<?xml version="1.0" encoding="utf-8"?>
<!-- Generator: Adobe Illustrator 27.7.0, SVG Export Plug-In . SVG Version: 6.00 Build 0)  -->
<svg version="1.1" id="Layer_1" xmlns="http://www.w3.org/2000/svg" xmlns:xlink="http://www.w3.org/1999/xlink" x="0px" y="0px"
	 viewBox="0 0 172 167" style="enable-background:new 0 0 172 167;" xml:space="preserve">
<style type="text/css">
	.st0{fill:#76B6FF;}
	.st1{fill:#1D1D1B;stroke:#575756;stroke-miterlimit:10;}
	.st2{fill:none;stroke:#575756;stroke-width:0.5669;stroke-miterlimit:10;}
	.st3{fill:none;stroke:#575756;stroke-miterlimit:10;}
	.st4{fill:none;stroke:#575756;stroke-linecap:round;stroke-miterlimit:10;}
	.st5{fill:#FFFFFF;stroke:#575756;stroke-width:0.5669;stroke-linejoin:round;stroke-miterlimit:10;}
	.st6{fill:#80B0DF;stroke:#575756;stroke-width:0.5669;stroke-linejoin:round;stroke-miterlimit:10;}
</style>
<path class="st0" d="M133.8,110.4l-3,1c0.5-0.3,1.1-0.5,1.7-0.7c0.8-0.2,1.4-0.4,1.1-0.4c-1.9,0.5-1.6,0.3-1.2,0.2
	c0.4-0.1,0.9-0.3,0.1-0.2c0.5-0.1,0.9-0.2,1.4-0.2c-0.8,0.1-0.9,0-0.8,0c0.1,0,0.3-0.2,0.2-0.2h-0.9l-0.3-0.3c0.5-0.1,1,0,1.4,0.1
	c0.1-0.1,0.3-0.1,0.5-0.2l0.2-0.1c0.1,0,0.1,0,0.2-0.2c0.1-0.2,0.3-0.3,0.5-0.4c0.2-0.1,0.2-0.2,0.2-0.2c0.3-0.4,0.7-0.8,1-1.1
	c5.9-6.5,12.3-14.2,17.6-20.9l16.7-21.5c0.4-0.6,0.2-1.4-0.5-1.6l-25.5-9.8c-2.3-0.9-4.7-1.6-7.2-1.9c-0.6-0.1-1.1-0.1-1.7-0.2
	l-0.8-0.1l-0.8-0.1c0,0-0.1,0-0.1,0c-0.5,0-1-0.1-1.5-0.1h-2.7c-0.4,0-0.9,0-1.3,0.1c-0.4,0.1-0.8,0.1-1.2,0.1c-0.2,0-0.4,0-0.6,0.1
	c-0.2,0.1-0.4,0-0.5,0.1l-0.8,0.1h0.2c0,0.1-0.1,0.1-0.1,0.2c-0.1,0.4-0.1,0.5,0,0.6c0.1,0.3,0.1,0.7,0.1,1
	c-0.1,0.4-0.2,0.4-0.3,0.3c-0.1-0.1-0.1-0.1-0.2,0.3c0.1-0.4,0.1-0.8,0.1-1.3c0-0.1-0.1-0.2,0.5-1.4c0,0-0.2,0.3-0.3,0.6
	c-0.1,0.3-0.3,0.7-0.3,0.7l0.2-0.4c0.1-0.1,0.1-0.3,0.2-0.4c-0.2,0.3-0.4,0.5-0.6,0.7c-0.1,0.1-0.2,0.2-0.2,0.1
	c0.1-0.1,0.2-0.3,0.2-0.4c-0.2,0.1-0.9,0.7-1.5,1.2s-1.2,0.8-0.9,0.4l-0.2,0.1c-0.2,0.1-0.3,0.3-0.4,0.4c-0.3,0.3-0.7,0.6-1.1,0.8
	c0.8-0.7,0.4-0.4,0-0.1c-0.4,0.3-0.9,0.5,0-0.1c-0.3,0.1-0.6,0.2-0.8,0.4c-0.9,0.5-1.8,1-2.6,1.6c0.6-0.5,1-0.8,1.3-1.1
	c0,0,0.1-0.1,0.1-0.1c0.5-0.4,1.1-0.7,1.6-1c-0.1,0,0.3-0.3-0.6,0.1l-0.7,0.6c-0.3,0.1-0.4,0-0.3-0.2s0.2-0.4,0.4-0.5
	c0.3-0.3,0.3-0.3-1,0.2l-1.5,0.8c0.2-0.2,0.3-0.4,3.3-1.8c0.1,0,0.2-0.1,0.3-0.1l0.4-0.1c0.2-0.1,0.2-0.2,0.1-0.3
	c-0.3,0-0.6,0-0.8,0.1l-0.2,0.1c-0.5,0.1-0.8,0.1-1-0.2c-0.1-0.4-0.1-0.9,0.1-1.3c0.2-0.6,0.4-1.4,0.5-2.2c0.1-0.4,0.1-0.8,0.2-1.1
	V48l-0.7,0.1c-0.2,0-0.4,0.1-0.5,0.1h-0.2c0,0,0-0.4,0.1-0.9l0.2-1c0,0,0.5,0.7,1.1,1.3c0.6,0.6,1.2,1,1,1L121,48l1.4-2.4
	c0.3-0.5,0.6-1,1-1.6s0.7-1.1,1-1.7s0.7-1.2,1-1.9c0.3-0.7,0.7-1.4,1.1-2.1l1.1-2.2l0.2-0.4l0.1-0.2l0.3-0.7l0.2-0.4l0.1-0.3
	c0.2-0.4,0.3-0.9,0.5-1.3c0.1-0.2,0.2-0.5,0.2-0.8l0.1-0.4l0.3-1.1l0.1-0.2c0.1-0.3,0.2-0.6,0.2-1l0.2-1.1v-0.6l0.1-0.6v-1.3
	c0-0.5,0-1-0.1-1.5c0-0.3-0.1-0.5-0.1-0.8s-0.1-0.5-0.1-0.9c-0.1-0.6-0.2-1.2-0.4-1.9s-0.4-1.3-0.7-2s-0.6-1.4-1-2
	c-0.3-0.7-0.7-1.3-1.2-1.9c-0.4-0.6-0.9-1.2-1.5-1.7l-0.4-0.4l-0.2-0.2l-0.1-0.1l-0.5-0.5l-0.1-0.1l-0.3-0.2
	c-0.2-0.2-0.4-0.3-0.6-0.5l-0.7-0.4l-0.3-0.2l-0.2-0.1c-1.1-0.7-2.3-1.2-3.4-1.7c0,0-0.1,0-0.1,0c-1-0.3-1.9-0.6-2.9-0.8
	c0,0-0.1,0-0.1,0c-0.7-0.1-1.5-0.2-2.2-0.2h-2.6c-0.8,0-1.7,0.1-2.6,0.1c-1.7,0.1-3.5,0.1-5.2,0.3c-1.7,0.2-3.4,0.2-5.1,0.3L95,8.5
	l-2.4,0.2c-3.2,0.2-6.3,0.5-9,0.7s-5.1,0.4-7.2,0.5s-3.5,0.2-4.5,0.2c-3.2-0.3-0.7-1.6-0.7-1.8c-3.8,0.7-1.6,1.2-4.8,1.4
	c-0.9-0.1,0.1-0.8,0.6-1c-0.2,0-0.3,0-0.5,0.1c-0.7,0.1-1.2,0.7-0.9,1.4c0,0,0,0,0,0c0.2,0.7-0.3,1.4-1,1.4l-0.5,0l-1.4,0.1h-0.6
	l0.1-0.8c-0.9,0-2.2,2.3-6.2,2.2c-6.8,0.1-14.1,0.7-20.7,0.4c0.1-0.2,0.4-0.4,1-0.6c0.3-0.1,0.6-0.2,0.9-0.2c0.3-0.1,0.7-0.1,1-0.2
	c-1,0.1-2,0-3-0.3c1.6,0.9-2.8,0.5-1.5,0.9c-1.2,0.5-2.5,0.7-3.9,0.8c0,0-0.1,0-0.1,0c-1.3,0-2.7,0-4-0.1l-1-0.1l-1-0.1
	c-0.6-0.1-1.3-0.1-1.9-0.2c0,0-0.1,0-0.1,0c-1-0.1-1.9,0-2.8,0.1c-0.4,0.1-0.7,0.3-0.8,0.7c-0.3,0.9-1.1,2.5-2,4.6
	c-1.2,2.8-2.9,6.4-4.7,10c-0.4,0.9-0.9,1.8-1.4,2.7c-0.2,0.4-0.4,0.9-0.7,1.3c-0.3,0.4-0.5,0.8-0.7,1.3c0,0,0,0.1,0,0.1l-2.5,4.6
	c-0.9,1.4-1.6,3-2.3,4.5c-0.2,0.5-0.7,0.7-1.2,0.6c-0.9-0.2-1.9-0.4-2.7-0.7c0.3,0.6,3.4,1.4,5.2,1.4l0.5-1c1.9,0.1,2.1,0.4,2.3,0.6
	s0.3,0.5,2.2,0.7c0,0.5-0.8,0.6-2.1,0.6c-0.7,0-1.4-0.1-2.1-0.2l-2.4-0.3c1.4,0.3,2.7,0.8,3.9,1c0.9,0.3,1.9,0.2,2.8-0.1
	c2.5,0.7-0.4,1.1,2.6,1.9c0.6,0,1.2,0,1.8-0.1s1.3-0.1,2-0.1c1.3-0.1,2.7,0,4,0.4L20.6,48c0.4,0.1,0.8,0.2,1.1,0.2l0.5,0.1
	c0.2,0,0.4,0,0.5,0.1c0.7,0.1,1.3,0.1,2,0.1c1.2,0,2.4-0.1,3.6-0.2l1.7-0.2c0.6-0.1,1.1-0.1,1.7-0.1c1.3-0.1,2.5,0,3.8,0.2l-0.6,0.3
	c1.7,0.5,4.5,0,7.4,0.1c0.3,0,0.5-0.2,0.7-0.5c0.1-0.1,0.5-0.3,1.2-0.4c1.7,0.2,3.4,0.2,5.1,0.1h2.2c0.6,0,1.2,0.1,1.8,0.2
	c0.2,0,0.4,0,0.5-0.1l2.3-0.9c0.1,0,0.2-0.1,0.3-0.1c1.7-0.1,3.8-0.2,6.5-0.4l2.1-0.2c0.7-0.1,1.5-0.1,2.3-0.2
	c1.5-0.1,3.2-0.3,4.9-0.5c6.8-0.7,14.6-1.6,22.2-2.3l2.9-0.3c0.5,0,0.9-0.1,1.4-0.1s0.9-0.1,1.4-0.1c1.9-0.1,3.7-0.3,5.5-0.4
	c1.8-0.1,3.5-0.2,5.2-0.3h0.6V31.3c0-0.5,0-0.8,0.1-1.2c0.1-0.4,0-0.6,0.1-0.9v-0.8c0.1-0.7,0.2-1.3,0.4-2c0.1-0.3,0.2-0.7,0.4-1
	c0-0.1,0.1-0.1,0.1-0.2v-0.1h-0.4c-0.4,0.1-0.1,0-0.2,0c0.2-0.2,0.2-0.1-0.2,0c-0.7,0.1-1.3,0.2-2,0.1c-1.1-0.1-2.1-0.3-3.2-0.7
	l-0.9-0.3l-0.9-0.3c-0.3-0.1-0.6-0.2-0.8-0.3c-0.3-0.1-0.5-0.2-0.8-0.4c-0.1-0.1-0.2-0.1-0.4-0.2l-0.3-0.2h-0.1
	c-0.3,0-0.5-0.1-0.8-0.1h-0.1c-2.4-1.3,5.3,2.9-5.4-2.9v0.1L96.1,20L96,20.2c-0.3,0.6-0.5,1.1-0.8,1.6c-0.1,0.3-0.2,0.5-0.4,0.8
	c-0.1,0.2-0.3,0.5-0.4,0.7c-0.5,0.9-1,1.8-1.4,2.6s-0.9,1.4-1.2,2l0.1-0.4l-0.4,0.7l-0.1,0.2l-0.2,0.4c-0.2,0.2-0.3,0.5-0.5,0.7
	l-2,2.9c-0.4,0.5-0.7,1-1.1,1.5c-0.2,0.3-0.4,0.5-0.6,0.8l-0.6,0.8c-0.9,1.1-1.7,2.2-2.7,3.3c-0.2,0.3-0.4,0.6-0.7,0.8L82.7,40
	l-0.4,0.4c-0.5,0.6-1,1.1-1.6,1.7c0,0,0,0,0,0l-3.2,3.6c0,0,0,0,0,0l-0.9,0.9l-0.9,0.9c-0.6,0.6-1.2,1.2-1.8,1.9
	c-1.3,1.3-2.4,2.5-3.9,3.8s-19.4,2.6-20.9,4c-0.4,0.3-0.8,0.7-1,1l-1,1c-0.7,0.7-1.3,1.4-2,2l-2,2l-0.5,0.5L42.4,64l-0.1,0.1
	l-0.1,0.2c-0.2,0.3-0.3,0.6-0.5,0.9l-2.1,3.6c-0.3,0.5-0.5,1-0.7,1.6c-0.2,0.5-0.3,1-0.5,1.5c-0.2,0.4-0.3,0.8-0.4,1.2
	c-0.1,0.2-0.2,0.6-0.2,0.8l-0.2,0.8c0,0,0,0,0,0.1l-0.4,2.4v1l-0.1,1c0,0.3-0.1,0.7-0.1,1l-0.1,1.7v0.8c0,0.9,0,1.9,0.1,2.6v1.1
	c0,0.6,0.2,1.2,0.4,1.8c0,0,0,0.1,0,0.1c0.4,1,0.9,2,1.6,2.8c0.5,0.7,1.1,1.3,1.7,1.8c0.5,0.4,1,0.8,1.5,1.1
	c0.2,0.2,0.5,0.3,0.7,0.5l0.4,0.2l0.4,0.2c0.5,0.3,1,0.6,1.6,0.9s1.2,0.5,1.8,0.8c0.3,0.1,0.6,0.2,0.9,0.4c0.3,0.2,0.6,0.2,0.9,0.3
	l0.9,0.3l1,0.3l1,0.3c0.2,0,0.3,0.1,0.5,0.1l0.2,0.1c0.1,0,0.2,0,0.3,0.1l2.1,0.4c0.2,0.1,0.3,0.2,0.4,0.3h0.1l0.2,0.1l0.3,0.1
	c0.4,0.2,0.9,0.3,1.3,0.4l0.7,0.2c0.3,0.1,0.5,0.1,0.8,0.2c0.6,0.1,1.2,0.1,1.8,0.2l0.9,0.1h1.2c0,0,0.1,0,0.1,0
	c0.7-0.1,1.4-0.1,2-0.2c0.7-0.1,18-0.1,18.6-0.1s1.4-0.1,2-0.2c-2.6-0.1-0.9-0.9,1.3-1.2c7.9-1,8.4-1.3,8.9-1.6
	c0.5-0.3,1.1-0.5,1.7-0.6c1.2-0.3,3.4-0.8,7.6-1.7c3.7-0.8,9.4-2.1,16.3-3.8l5.4-1.4l1.5-0.4l0.7-0.2c0.2-0.1,0.5-0.1,0.7-0.2
	s0.5-0.1,0.7-0.2l0.5-0.1h0.9v-0.1c0-0.3,0-0.5,0.1-0.8c0.1-1,0.2-1.9,0.4-2.9c0.1-0.2,0-0.4,0-0.7l-7.8-19.1
	c-0.3-0.8-1.3-0.9-1.8-0.3c-4.6,5.9-9.8,12-14.4,17.1c-0.7,0.8-1.4,1.5-2.1,2.2c-1,1.1-2,2.2-3,3.2c-0.5,0.5-1,1.1-1.4,1.6
	c-0.2,0.2-0.5,0.5-0.7,0.8l-0.4,0.4l-0.4,0.4c-1,1-2,2.1-3,3c-3.7,3.9-7,7-9.2,9.1c0,0-0.1,0.1-0.1,0.1c-1.6,2-3.2,4-5.1,5.7
	c-1,1-1.9,2-3,3l-0.8,0.8l-2.5,2.3l-3.2,3.1c-0.6,0.5-1.1,1-1.6,1.5c0,0,0,0-0.1,0.1l-1.2,1.4c-1.6,1.9-3.1,3.7-4.2,5.3v-0.5
	c-0.2,0.2-0.4,0.5-0.6,0.8c-0.2,0.3-0.2,0.5-0.4,0.8l-1,2c-0.4,0.8-0.8,1.6-1.3,2.5c-0.1,0.1-0.1,0.2-0.2,0.3c0,0.1-0.1,0.2-0.1,0.3
	c-0.1,0.2-0.2,0.4-0.2,0.6c-0.2,0.4-0.3,0.8-0.4,1.2c-0.1,0.4-0.3,0.9-0.5,1.3c-0.1,0.2-0.2,0.4-0.3,0.7c-0.1,0.3-0.1,0.2-0.1,0.3
	c0,0.1-0.1,0.2-0.1,0.3c-0.2,0.8-0.4,1.5-0.7,2.3c-0.1,0.4-0.2,0.8-0.4,1.2c0,0.1-0.1,0.2-0.1,0.3l-0.1,0.3c0,0.2-0.1,0.3-0.1,0.5
	c-0.2,0.7-0.4,1.4-0.5,2.1c-0.1,0.7-0.3,1.2-0.4,1.8c-0.1,0.3-0.1,0.6-0.2,0.9c-0.3,1.1-0.2,2.3,0.2,3.4c0.2,0.6,0.5,1.2,0.8,1.8
	c0,0,0,0,0,0.1c0.3,0.5,0.6,1.1,1,1.6c0.5,0.7,1.2,1.3,1.9,1.9c0.2,0.2,0.5,0.4,0.8,0.6c0.3,0.2,0.5,0.3,0.8,0.5
	c0.8,0.5,1.6,0.9,2.4,1.3l-0.4-0.5c0.3,0.1,0.5,0.2,0.8,0.3s0.5,0.2,0.8,0.2c0.4,0.1,0.8,0.3,1.1,0.5c0.5,0.2,0.8,0.5,1.2,0.9
	c0.1,0.2,0.2,0.3,0.3,0.5c0.1,0.2,0.3,0.4,0.5,0.5c0.3,0.3,0.7,0.6,1.1,0.9c0.4,0.2,0.8,0.2,1.1,0c0.3-0.2,0.7-0.4,1.1-0.4
	c0.4-0.1,0.8-0.2,1.1-0.2l0.6-0.1l0.7-0.1c1.7-0.2,3.5-0.2,5.2-0.2l-0.4,0.3h1c0,0,0.1,0,0.1,0l1.4-0.2c1.1-0.1,2.3-0.3,3.7-0.5
	c0.6-0.1,1.5-0.3,2-0.4l1.4-0.3l3.6-0.7c2.4-0.4,4.8-1,7-1.4l-0.9,1c3.1-0.8,7.3-1.9,11.3-2.7c4-1,7.7-1.8,10-2.5c0.1,0,0.1,0,0.2,0
	c2.2-0.2,5-0.7,8.1-1.6l4.9-1.3c1.7-0.5,3.4-1,5.2-1.6c1.8-0.6,3.6-1.1,5.4-1.8c0.5-0.2,0.9-0.3,1.4-0.5l1.3-0.5l1.6-0.6
	c2-0.9,4-1.7,6-2.8c0.1-0.1,0.3-0.1,0.5-0.1l5.9-0.1l0.8-0.5c0,0-0.1-1.8-0.5-4.5c-0.5-3.4-1.2-6.7-2.1-10
	c-2.2-7.4-6-14.8-12.3-15.4l-0.2-0.8l-1.9,0.9c-0.1,0-0.1,0-0.2,0.1c-2.5,0.6-3.3,2-3.4,1.1l1.6-0.6l1.7-0.6c-2.6,0.8-1-0.3-0.2-1.1
	c-1,0.4-2,0.6-3,0.8c-0.4,0.5,0.5,0.2,0.9,0.2c-1.2,0.8-2.8,2.2-4.6,2.5c-1.3,0.4-1.4,0.2-1.7-0.1c-0.1-0.2-0.3-0.3-0.5-0.3h-0.5
	l-0.4,0.1h-0.1c-0.6,0.1-1.2,0-1.8-0.2c-0.4-0.2-0.5-0.4-0.8-0.4c-0.2,0-0.4,0-0.6,0.1c0.6-0.5,0.6-0.5,0.9-0.7
	c-0.3,0.2-0.6,0.3-0.9,0.5c-0.2,0.1-0.5,0.2-1.1,0.5c0.9-0.6,2.2-1.4,3.1-1.9c-0.3,0.2-0.7,0.4-1.1,0.6c-0.3,0.1-0.4,0.1-0.4,0.1
	C133.6,110.5,133.7,110.4,133.8,110.4L133.8,110.4z"/>
<path class="st1" d="M105,152.4c-2.8,0.2-5.6-0.4-8.4-0.9c-12.9-2.6-25.9-4.2-39-4.9c-4.6-0.2-10.1-0.8-12.3-4.9
	c-1.2-2.1-1.1-4.7-1-7.1c1-20.5,5.2-40.8,5.9-61.3c0.1-4.1,0.1-8.2,0.5-12.3c0.3-3.8,1-7.6,1.5-11.4c1.6-10.6,3.4-21.8,2.6-32.5
	c0.4-3.8,1.7-8.5,5.4-9.5c1.1-0.3,2.3-0.2,3.5-0.1c18.4,1.9,36.8,3.8,55.2,5.7c0.9,0.1,1.8,0.2,2.6,0.5c3.3,1.3,4.3,5.4,4.5,9
	c0.4,8.4-1.3,16.7-2.4,25c-0.7,5-1.2,10.1-1.7,15.2c-0.3,3.3-0.6,6.6-1,9.9c-2.3,23.3-4.6,46.7-6.7,70c-0.1,1.6-0.3,3.3-1,4.8
	c-1.3,2.7-4.4,4.3-7.4,4.6C105.4,152.4,105.2,152.4,105,152.4z"/>
<path class="st2" d="M75.2,8.8c0.9,0.1,1.3,0.2,2.2,0.2c0.2,0,0.5,0,0.7,0.1c0.5,0.1,0.6,0.7,0.6,1.2c0.1,1.1,0.1,2.2,0.5,3.2
	c0.3,0.8,1,1.5,1.5,1.7c1.2,0.3,2.9,0.4,4.1,0.6c4.7,0.7,9,0.9,13.8,1.5c1.1,0.1,2.2,0.3,3.3,0.2c0.5,0,1.1,0,1.5-0.3
	c0.7-0.3,1.1-1,1.4-1.7c0.2-0.7,0.3-1.4,0.4-2.1c0.1-0.4,0.1-0.7,0.4-1c0.4-0.4,1-0.3,1.5-0.3c0.8,0.1,1.8,0.2,2.6,0.3"/>
<path class="st3" d="M77.9,9.1"/>
<path class="st3" d="M111.8,12.6"/>
<line class="st4" x1="122.3" y1="64" x2="123.5" y2="50.6"/>
<line class="st4" x1="50.3" y1="58.8" x2="51.4" y2="51.1"/>
<line class="st4" x1="51.9" y1="47.8" x2="52.3" y2="40"/>
<path class="st5" d="M97.3,90.9c0.6-5.2,0.5-10.4,1.3-15.6c0.6-4,1.2-8,1.8-12c0.2-1.4,0.5-3,0.1-4.3c-1.4-0.4-2.9-0.5-4.4-0.4
	c0.4-1.3,0.6-2.7,0.4-4.1c4.4,0.4,9,0.7,13.4,1.1c-0.1,1.4-0.2,2.9-0.3,4.3c-1.6-0.2-3.3-0.3-5-0.4c-0.2,1.8-0.4,3.7-0.5,5.5
	c-0.4,4.4-1.6,8.7-1.2,13.1c0.4,4.1-0.5,8.1-0.9,12.3c-0.3,2.8-0.6,5.6-1,8.4c1.5,0.1,3,0.7,4.5,0.8c0,1.4,0.1,2.8,0.1,4.2
	c-4.5-0.4-9.1-0.8-13.6-1.3c0.1-1.4,0.1-2.8,0.2-4.2c1.6,0.3,3.1,0.4,4.7,0.5C96.6,96.1,97,93.6,97.3,90.9z"/>
<path class="st5" d="M59,78.9c-0.4,3.5-0.4,7.1-0.9,10.6c-0.1,1-0.3,2.1-0.4,3.1c0,0.2-0.2,0.4-0.3,0.3c9,0.6,18.3,1.6,27.3,2.5
	c3.1-0.1,6.2,0.3,9.2,1c-0.1-1.4,0.1-2.9,0.5-4.2c0.3,0,0.5,0.1,0.8,0.1c-10.8-1.1-21.7-2.1-32.5-3.2c0.3-5.2,1-10.3,1.6-15.5
	c0.2-1.5,0.1-2.6,0.4-4.1c0.4-2.4,0.6-4.8,0.5-7.2C75.8,63,86.4,64,96.9,65.3c0.1-1.4,0.2-2.9,0.2-4.3c-3.4-0.3-7.3-0.7-10.7-1.1
	c-2-0.2-4-0.4-6-0.6c-6.4-0.6-12.8-1-19.3-1.4C61,62.5,59.7,74.3,59,78.9"/>
<path class="st5" d="M111.7,77.5c0.1-5,1.5-9.9,1.4-14.9c-2.2-0.5-4.4-0.4-6.7-0.5c0.3,1.4,0.3,2.8-0.1,4.1c0.7,0,1.3,0.1,1.9,0.3
	c-0.3,3.6-0.7,7.2-1,10.9c-0.5,5.1-0.9,10.5-1.8,15.6c-0.6,0-1.2,0-1.7,0c-0.3,1.3-0.4,2.7-0.2,4c2.1,0,4.1,0.1,6.2,0.4
	c0.2-1.3,0.4-2.6,0.6-3.9C110.9,88.3,111.6,82.8,111.7,77.5z"/>
<path class="st5" d="M80.2,72c0,0.2,0,0.2,0.1,0.3c0.1,0.1,0.3,0,0.4,0c3.1,0.2,6.2,0.6,9.4,0.8c-0.2-1.4-0.1-2.9,0.2-4.3
	c-2.5-0.4-6.2-0.8-8.7-1c-0.9-0.1-0.5,0.2-0.7,0.9C80.5,69.6,80.3,70.9,80.2,72z"/>
<path class="st6" d="M78.4,67.7c0,1.4-0.1,2.9-0.3,4.3c-3.1-0.6-6.3-0.9-9.4-0.9c0.3-1.1,0.5-2.2,0.6-3.3c0.1-0.7-0.1-0.8,0.5-0.9
	c0.4-0.1,1.4,0.2,1.8,0.3C72.1,67.3,78.4,67.9,78.4,67.7z"/>
<path class="st6" d="M92.2,73.3c1.3,0.1,2.5,0.3,3.8,0.4c-0.1-1.4,0-2.9,0.3-4.3c0,0.1-3.4-0.3-3.4,0C92.7,70.2,92.4,72.4,92.2,73.3
	z"/>
<path class="st5" d="M90.8,87.3c0,0.1,0,0.2,0,0.3c0,0.1,0.1,0.1,0.2,0.1c1.3,0.1,2.5,0.2,3.8,0.1c0.1-1.4,0.3-2.8,0.4-4.1
	c0-0.1,0-0.2,0-0.2c0-0.1-0.1-0.1-0.2-0.1c-1.2-0.2-2.8-0.6-4-0.5C91.2,84.4,91.1,85.8,90.8,87.3z"/>
<path class="st6" d="M86,79.7c3.1,0.3,6.1,0.6,9.2,0.8c0.5-1.3,0.7-2.7,0.5-4.1c-0.7,0-1.5-0.1-2.2-0.1c-2.1-0.2-4.2-0.5-6.2-0.5
	c-0.9,0-1,0.1-1.1,1C86,77.7,86.1,78.7,86,79.7z"/>
<path class="st6" d="M84.1,75.3c-0.2,1.3-0.3,3-0.5,4.3c-5.2-0.5-10.3-1-15.5-1.4c-0.1,0,0.4-3.6,0.9-4.1c0.3-0.3,3.2,0.2,4.3,0.3
	C76.9,74.6,80.5,74.9,84.1,75.3z"/>
<path class="st5" d="M68,85.2c3.2,0.4,6.3,0.6,9.5,0.7c0-1.4,0-2.8-0.1-4.2c-1-0.2-2.1-0.3-3.1-0.4c-1-0.1-1.9-0.1-2.9-0.2
	c-0.6,0-2.6-0.4-2.9-0.1C68.2,81.3,68.2,85.2,68,85.2z"/>
<path class="st6" d="M79.4,83.8c-0.2,0.8-0.3,1.6-0.2,2.4c1.5,0,2.9,0,4.4,0.2c1.8,0.2,3.5,0.7,5.3,0.6c-0.1,0-0.1-0.2-0.1-0.3
	c0-1.3,0.1-2.6,0.3-3.9c-1.5-0.1-3-0.2-4.5-0.3c-0.8-0.1-1.5-0.1-2.3-0.2c-0.7-0.1-1.9-0.4-2.6-0.2C79.4,82.2,79.5,83.3,79.4,83.8z"
	/>
</svg>
