<svg width="162" height="158" fill="none" xmlns="http://www.w3.org/2000/svg"><path fill-rule="evenodd" clip-rule="evenodd" d="M80.519.408C36.057.685.227 36.955.504 81.425c.221 35.573 23.48 65.61 55.537 76.057 4.029.721 5.49-1.781 5.477-3.907-.012-1.919-.126-8.262-.202-14.99-22.37 5.01-27.186-9.331-27.186-9.331-3.72-9.282-9.013-11.725-9.013-11.725-7.336-4.952.52-4.898.52-4.898 8.09.517 12.395 8.221 12.395 8.221 7.257 12.263 18.89 8.632 23.471 6.546.692-5.207 2.755-8.773 5.045-10.798-17.896-1.923-36.739-8.711-36.93-39.563-.055-8.789 3.045-15.992 8.16-21.663-.848-2.023-3.655-10.195.65-21.313 0 0 6.747-2.204 22.197 8.117 6.411-1.824 13.294-2.761 20.136-2.836 6.843-.01 13.742.841 20.187 2.585 15.303-10.513 22.068-8.392 22.068-8.392 4.452 11.063 1.747 19.27.924 21.303 5.197 5.606 8.365 12.77 8.419 21.56.193 30.926-18.6 37.851-36.517 39.956 2.904 2.48 5.507 7.364 5.554 14.876.067 10.773.029 19.444.046 22.096.013 2.144 1.476 4.645 5.553 3.83 31.909-10.858 54.762-41.171 54.541-76.733C161.259 35.953 124.986.13 80.519.408Z" fill="#1B1817"/></svg>