<svg width="162" height="158" fill="none" xmlns="http://www.w3.org/2000/svg"><path fill-rule="evenodd" clip-rule="evenodd" d="M80.81.401C36.346.678.517 36.948.794 81.418c.221 35.573 23.48 65.61 55.537 76.057 4.028.72 5.49-1.781 5.477-3.907-.012-1.919-.126-8.262-.203-14.99-22.369 5.01-27.185-9.331-27.185-9.331-3.72-9.282-9.013-11.726-9.013-11.726-7.336-4.951.52-4.898.52-4.898 8.089.518 12.394 8.222 12.394 8.222 7.258 12.263 18.89 8.632 23.472 6.546.692-5.207 2.755-8.773 5.045-10.798-17.896-1.923-36.739-8.712-36.931-39.563-.055-8.79 3.046-15.991 8.161-21.662-.848-2.024-3.655-10.196.649-21.314 0 0 6.748-2.204 22.198 8.117 6.411-1.824 13.293-2.761 20.136-2.836 6.842-.01 13.741.841 20.187 2.585 15.303-10.513 22.068-8.392 22.068-8.392 4.452 11.063 1.747 19.27.923 21.304 5.198 5.606 8.365 12.77 8.42 21.558.192 30.927-18.601 37.852-36.517 39.957 2.903 2.48 5.507 7.364 5.554 14.876.067 10.773.029 19.444.045 22.096.014 2.144 1.477 4.646 5.553 3.83 31.91-10.858 54.763-41.171 54.541-76.733C161.549 35.946 125.276.124 80.809.4Z" fill="#fff"/></svg>