<?xml version="1.0" standalone="no"?>
<!DOCTYPE svg PUBLIC "-//W3C//DTD SVG 20010904//EN"
 "http://www.w3.org/TR/2001/REC-SVG-20010904/DTD/svg10.dtd">
<svg version="1.0" xmlns="http://www.w3.org/2000/svg"
 width="500.000000pt" height="500.000000pt" viewBox="0 0 500.000000 500.000000"
 preserveAspectRatio="xMidYMid meet">
<metadata>
Created by potrace 1.11, written by Peter Selinger 2001-2013
</metadata>
<g transform="translate(0.000000,500.000000) scale(0.100000,-0.100000)"
fill="#000000" stroke="none">
<path d="M3224 4721 c-2 -2 -4 -91 -4 -197 l0 -192 178 -1 c97 0 186 0 197 0
20 -1 20 -8 20 -1801 0 -1594 -2 -1800 -15 -1801 -8 0 -97 -1 -197 -1 l-183
-1 0 -196 0 -197 610 0 610 0 0 197 0 196 -215 -1 -215 -1 -1 30 c-3 175 0
3568 4 3571 2 2 99 5 216 5 l211 1 0 196 0 197 -606 0 c-333 0 -607 -2 -610
-4z"/>
<path d="M172 2523 l3 -1607 1627 -1 1626 0 -1 235 -2 235 -1380 1 c-759 0
-1386 3 -1392 7 -6 4 -10 32 -9 67 1 33 -2 60 -7 60 -4 0 -5 6 0 13 10 17 10
99 0 115 -6 7 -6 12 -1 12 10 0 11 90 1 106 -3 6 -3 14 0 18 10 10 10 106 0
106 -5 0 -5 5 -1 12 11 17 11 108 1 108 -5 0 -5 5 -1 12 11 17 11 108 1 108
-5 0 -5 5 -1 12 11 17 11 108 1 108 -5 0 -5 5 -1 12 11 17 11 108 1 108 -4 0
-4 7 1 17 6 9 6 29 2 45 -5 15 -6 28 -2 28 9 0 7 134 -2 149 -4 6 -4 11 1 11
10 0 9 133 -1 149 -4 6 -4 11 1 11 10 0 9 133 -1 149 -4 6 -4 11 1 11 4 0 7
60 6 132 -2 73 -3 139 -3 146 0 6 0 32 0 57 0 25 0 52 0 60 0 8 0 35 0 60 0
25 0 52 0 60 0 8 0 35 0 60 0 69 0 77 1 113 l1 32 1393 0 1393 0 0 235 0 235
-1629 0 -1629 0 2 -1607z"/>
<path d="M4211 3895 l1 -235 58 0 57 0 1 -1127 c0 -621 -4 -1133 -9 -1138 -4
-6 -31 -10 -58 -9 l-50 1 2 -236 2 -235 292 -1 293 0 0 1608 0 1607 -295 0
-295 0 1 -235z"/>
<path d="M964 3342 c-6 -4 -10 -87 -9 -197 l0 -190 435 -1 c239 0 440 1 445 3
7 2 10 74 10 196 l0 192 -436 2 c-239 1 -440 -2 -445 -5z"/>
<path d="M2041 3327 c-5 -12 -6 -26 -3 -31 3 -5 6 -84 6 -175 l1 -166 440 0
440 0 2 197 2 196 -440 0 -440 1 -8 -22z"/>
<path d="M3129 3337 c-1 -7 -2 -94 -3 -195 -1 -154 1 -183 14 -186 8 -2 76 -3
150 -2 l135 1 2 196 2 197 -150 0 c-109 1 -149 -2 -150 -11z"/>
<path d="M959 2718 c-4 -10 -3 -388 1 -389 7 -1 1378 -1 1407 0 21 1 22 2 21
196 l0 194 -714 1 c-393 0 -715 -1 -715 -2z"/>
<path d="M2583 2530 c0 -121 3 -193 10 -197 6 -3 194 -7 419 -7 355 -1 409 1
413 14 2 8 4 97 3 198 l-1 182 -422 0 -422 0 0 -190z"/>
<path d="M995 2090 l-40 -5 0 -190 0 -190 445 -3 445 -2 0 195 c0 166 -2 195
-15 196 -70 4 -804 3 -835 -1z"/>
<path d="M2082 2092 l-43 -3 2 -62 c1 -34 0 -66 -1 -72 -1 -5 -1 -12 0 -15 6
-15 5 -69 -1 -92 -4 -14 -5 -29 -2 -32 9 -9 11 -66 3 -71 -5 -3 -6 -14 -3 -25
5 -20 12 -20 447 -18 l441 3 2 193 c1 105 -1 192 -5 193 -31 2 -807 3 -840 1z"/>
<path d="M3165 2090 l-40 -5 0 -190 0 -190 152 -3 151 -3 0 196 0 195 -27 1
c-117 4 -202 3 -236 -1z"/>
</g>
</svg>
