<svg width="16" height="16" viewBox="0 0 16 16" fill="none" xmlns="http://www.w3.org/2000/svg">
<path fill-rule="evenodd" clip-rule="evenodd" d="M13.0001 5.88517V7.05116C13.0001 9.23213 11.2311 11.0001 9.05112 11.0001H6.91715C6.75515 11.0001 6.59715 11.0531 6.46715 11.1511L5.12216 12.1581C4.73417 12.4491 4.71417 13.0331 5.09016 13.3391C5.59716 13.7521 6.24415 14.0001 6.94915 14.0001H9.66612L12.2001 15.9011C12.2881 15.9661 12.3941 16.0001 12.5001 16.0001C12.5761 16.0001 12.6531 15.9831 12.7241 15.9481C12.8931 15.8631 13.0001 15.6901 13.0001 15.5001V14.0001H13.0511C14.6801 14.0001 16.0001 12.6801 16.0001 11.0511V8.00015C16.0001 6.69416 15.1651 5.58217 13.9991 5.17018C13.5131 4.99918 13.0001 5.36918 13.0001 5.88517" fill="#050505"/>
<path fill-rule="evenodd" clip-rule="evenodd" d="M9.0509 1H2.94897C1.32299 1 0 2.32299 0 3.94897V7.05093C0 8.67691 1.32299 9.9999 2.94897 9.9999H2.99997V11.4999C2.99997 11.6889 3.10797 11.8619 3.27697 11.9469C3.34696 11.9819 3.42396 11.9999 3.49996 11.9999C3.60696 11.9999 3.71196 11.9659 3.79996 11.8999L6.33393 9.9999H9.0509C10.6769 9.9999 11.9999 8.67691 11.9999 7.05093V3.94897C11.9999 2.32299 10.6769 1 9.0509 1" fill="#050505"/>
</svg>
