<svg width="16" height="16" viewBox="0 0 16 16" fill="none" xmlns="http://www.w3.org/2000/svg">
<path d="M4.64844 4.47461L1.82422 12.25H0.669922L3.92188 3.71875H4.66602L4.64844 4.47461ZM7.01562 12.25L4.18555 4.47461L4.16797 3.71875H4.91211L8.17578 12.25H7.01562ZM6.86914 9.0918V10.0176H2.07617V9.0918H6.86914ZM12.8926 11.166V7.90234C12.8926 7.65234 12.8418 7.43555 12.7402 7.25195C12.6426 7.06445 12.4941 6.91992 12.2949 6.81836C12.0957 6.7168 11.8496 6.66602 11.5566 6.66602C11.2832 6.66602 11.043 6.71289 10.8359 6.80664C10.6328 6.90039 10.4727 7.02344 10.3555 7.17578C10.2422 7.32812 10.1855 7.49219 10.1855 7.66797H9.10156C9.10156 7.44141 9.16016 7.2168 9.27734 6.99414C9.39453 6.77148 9.5625 6.57031 9.78125 6.39062C10.0039 6.20703 10.2695 6.0625 10.5781 5.95703C10.8906 5.84766 11.2383 5.79297 11.6211 5.79297C12.082 5.79297 12.4883 5.87109 12.8398 6.02734C13.1953 6.18359 13.4727 6.41992 13.6719 6.73633C13.875 7.04883 13.9766 7.44141 13.9766 7.91406V10.8672C13.9766 11.0781 13.9941 11.3027 14.0293 11.541C14.0684 11.7793 14.125 11.9844 14.1992 12.1562V12.25H13.0684C13.0137 12.125 12.9707 11.959 12.9395 11.752C12.9082 11.541 12.8926 11.3457 12.8926 11.166ZM13.0801 8.40625L13.0918 9.16797H11.9961C11.6875 9.16797 11.4121 9.19336 11.1699 9.24414C10.9277 9.29102 10.7246 9.36328 10.5605 9.46094C10.3965 9.55859 10.2715 9.68164 10.1855 9.83008C10.0996 9.97461 10.0566 10.1445 10.0566 10.3398C10.0566 10.5391 10.1016 10.7207 10.1914 10.8848C10.2812 11.0488 10.416 11.1797 10.5957 11.2773C10.7793 11.3711 11.0039 11.418 11.2695 11.418C11.6016 11.418 11.8945 11.3477 12.1484 11.207C12.4023 11.0664 12.6035 10.8945 12.752 10.6914C12.9043 10.4883 12.9863 10.291 12.998 10.0996L13.4609 10.6211C13.4336 10.7852 13.3594 10.9668 13.2383 11.166C13.1172 11.3652 12.9551 11.5566 12.752 11.7402C12.5527 11.9199 12.3145 12.0703 12.0371 12.1914C11.7637 12.3086 11.4551 12.3672 11.1113 12.3672C10.6816 12.3672 10.3047 12.2832 9.98047 12.1152C9.66016 11.9473 9.41016 11.7227 9.23047 11.4414C9.05469 11.1562 8.9668 10.8379 8.9668 10.4863C8.9668 10.1465 9.0332 9.84766 9.16602 9.58984C9.29883 9.32812 9.49023 9.11133 9.74023 8.93945C9.99023 8.76367 10.291 8.63086 10.6426 8.54102C10.9941 8.45117 11.3867 8.40625 11.8203 8.40625H13.0801Z" fill="black"/>
</svg>
