<?xml version="1.0" standalone="no"?><!DOCTYPE svg PUBLIC "-//W3C//DTD SVG 1.1//EN" "http://www.w3.org/Graphics/SVG/1.1/DTD/svg11.dtd"><svg t="1737506997512" class="icon" viewBox="0 0 1024 1024" version="1.1" xmlns="http://www.w3.org/2000/svg" p-id="8946" xmlns:xlink="http://www.w3.org/1999/xlink" width="64" height="64"><path d="M859.9 780H164.1c-4.5 0-8.1 3.6-8.1 8v60c0 4.4 3.6 8 8.1 8h695.8c4.5 0 8.1-3.6 8.1-8v-60c0-4.4-3.6-8-8.1-8zM505.7 669c3.2 4.1 9.4 4.1 12.6 0l112-141.7c4.1-5.2 0.4-12.9-6.3-12.9h-74.1V176c0-4.4-3.6-8-8-8h-60c-4.4 0-8 3.6-8 8v338.3H400c-6.7 0-10.4 7.7-6.3 12.9l112 141.8z" p-id="8947"></path></svg>