<?xml version="1.0" standalone="no"?><!DOCTYPE svg PUBLIC "-//W3C//DTD SVG 1.1//EN" "http://www.w3.org/Graphics/SVG/1.1/DTD/svg11.dtd"><svg t="1737507002429" class="icon" viewBox="0 0 1024 1024" version="1.1" xmlns="http://www.w3.org/2000/svg" p-id="9094" xmlns:xlink="http://www.w3.org/1999/xlink" width="64" height="64"><path d="M859.9 474H164.1c-4.5 0-8.1 3.6-8.1 8v60c0 4.4 3.6 8 8.1 8h695.8c4.5 0 8.1-3.6 8.1-8v-60c0-4.4-3.6-8-8.1-8zM506.3 399.3c2.9 3.7 8.5 3.7 11.3 0l100.8-127.5c3.7-4.7 0.4-11.7-5.7-11.7H550V104c0-4.4-3.6-8-8-8h-60c-4.4 0-8 3.6-8 8v156h-62.8c-6 0-9.4 7-5.7 11.7l100.8 127.6zM517.7 624.7c-2.9-3.7-8.5-3.7-11.3 0L405.6 752.3c-3.7 4.7-0.4 11.7 5.7 11.7H474v156c0 4.4 3.6 8 8 8h60c4.4 0 8-3.6 8-8V764h62.8c6 0 9.4-7 5.7-11.7L517.7 624.7z" p-id="9095"></path></svg>