<svg id="svg" version="1.1" xmlns="http://www.w3.org/2000/svg" xmlns:xlink="http://www.w3.org/1999/xlink" width="400" height="203.97690827453496" viewBox="0, 0, 400,203.97690827453496"><g id="svgg"><path id="path0" d="M233.500 68.417 L 233.500 72.333 236.833 72.333 L 240.167 72.333 240.167 96.917 L 240.167 121.500 237.000 121.500 L 233.833 121.500 233.833 125.417 L 233.833 129.333 245.250 129.333 L 256.667 129.333 256.667 125.417 L 256.667 121.500 253.500 121.500 L 250.333 121.500 250.333 93.000 L 250.333 64.500 241.917 64.500 L 233.500 64.500 233.500 68.417 M203.500 80.331 L 203.500 86.833 200.417 86.833 L 197.333 86.833 197.333 90.667 L 197.333 94.500 200.417 94.500 L 203.500 94.500 203.505 105.958 C 203.512 119.934,203.561 120.462,205.141 123.643 C 205.476 124.318,205.844 124.907,205.958 124.953 C 206.073 124.998,206.167 125.108,206.167 125.195 C 206.167 125.404,207.930 127.167,208.138 127.167 C 208.226 127.167,208.341 127.279,208.394 127.417 C 208.446 127.554,208.593 127.667,208.719 127.667 C 208.845 127.667,209.084 127.817,209.250 128.000 C 209.416 128.183,209.615 128.333,209.693 128.333 C 209.771 128.333,210.228 128.526,210.709 128.762 C 215.738 131.226,224.814 130.599,228.093 127.560 C 228.326 127.344,228.564 127.167,228.622 127.167 C 229.097 127.167,230.984 124.584,231.909 122.667 C 232.416 121.618,233.233 118.817,233.416 117.500 L 233.521 116.750 231.552 116.122 C 225.199 114.095,225.668 114.180,225.665 115.052 C 225.658 116.740,224.276 119.620,223.102 120.392 C 219.530 122.743,215.525 121.625,214.277 117.929 C 214.029 117.195,214.000 115.907,214.000 105.804 L 214.000 94.500 221.750 94.500 L 229.500 94.500 229.500 90.667 L 229.500 86.833 221.752 86.833 L 214.004 86.833 213.960 80.375 L 213.917 73.917 208.708 73.873 L 203.500 73.829 203.500 80.331 M62.833 79.583 L 62.833 82.500 65.583 82.500 L 68.333 82.500 68.333 108.083 L 68.333 133.667 65.583 133.667 L 62.833 133.667 62.833 136.583 L 62.833 139.500 71.583 139.500 L 80.333 139.500 80.333 136.583 L 80.333 133.667 77.250 133.667 L 74.167 133.667 74.167 108.083 L 74.167 82.500 77.250 82.500 L 80.333 82.500 80.333 79.583 L 80.333 76.667 71.583 76.667 L 62.833 76.667 62.833 79.583 M19.167 108.083 L 19.167 131.167 42.500 131.167 L 65.833 131.167 65.833 127.750 L 65.833 124.333 46.000 124.333 L 26.167 124.333 26.167 108.250 L 26.167 92.167 46.000 92.167 L 65.833 92.167 65.833 88.583 L 65.833 85.000 42.500 85.000 L 19.167 85.000 19.167 108.083 M76.908 85.213 C 76.863 85.330,76.846 86.924,76.871 88.755 L 76.917 92.083 77.708 92.134 L 78.500 92.185 78.500 108.259 L 78.500 124.333 77.667 124.333 L 76.833 124.333 76.833 127.750 L 76.833 131.167 81.167 131.167 L 85.500 131.167 85.500 108.083 L 85.500 85.000 81.245 85.000 C 77.944 85.000,76.971 85.048,76.908 85.213 M122.250 86.150 C 120.078 86.324,117.840 86.824,116.167 87.508 C 114.480 88.198,113.667 88.588,113.667 88.707 C 113.667 88.777,113.565 88.833,113.442 88.833 C 113.318 88.833,112.699 89.219,112.067 89.690 C 105.488 94.593,102.300 103.216,103.571 112.667 C 104.054 116.257,105.375 119.884,106.831 121.618 C 106.924 121.729,107.000 121.868,107.000 121.928 C 107.000 122.321,110.143 125.588,111.042 126.129 C 111.294 126.281,111.500 126.464,111.500 126.536 C 111.500 126.608,111.571 126.667,111.658 126.667 C 111.745 126.667,112.139 126.881,112.533 127.144 C 113.818 127.999,116.235 129.047,117.583 129.334 C 117.950 129.412,118.472 129.560,118.742 129.663 C 121.041 130.540,128.160 130.464,131.667 129.526 C 136.322 128.281,140.115 125.906,142.755 122.583 C 143.119 122.125,143.473 121.725,143.542 121.694 C 143.610 121.664,143.667 121.569,143.667 121.484 C 143.667 121.399,143.912 120.974,144.211 120.540 C 145.472 118.712,146.644 115.710,146.995 113.417 C 147.078 112.867,147.226 111.967,147.323 111.417 C 147.729 109.100,147.443 104.501,146.721 101.750 C 146.188 99.717,144.913 96.482,144.520 96.167 C 144.425 96.090,144.239 95.783,143.766 94.917 C 143.665 94.733,143.546 94.546,143.500 94.500 C 143.453 94.454,143.193 94.089,142.922 93.689 C 139.124 88.094,131.717 85.393,122.250 86.150 M312.833 86.487 C 308.871 87.407,305.552 89.674,303.543 92.833 L 303.172 93.417 303.169 90.125 L 303.167 86.833 294.750 86.833 L 286.333 86.833 286.333 90.917 L 286.333 95.000 289.583 95.000 L 292.833 95.000 292.833 108.250 L 292.833 121.500 289.667 121.500 L 286.500 121.500 286.500 125.417 L 286.500 129.333 298.000 129.333 L 309.500 129.333 309.500 125.417 L 309.500 121.500 306.333 121.500 L 303.167 121.500 303.167 112.665 C 303.167 104.395,303.188 103.733,303.505 102.310 C 303.942 100.347,304.937 98.224,305.625 97.783 C 305.740 97.710,305.833 97.579,305.833 97.492 C 305.833 96.706,309.101 94.791,311.090 94.410 C 315.364 93.592,318.730 94.919,320.280 98.035 C 321.467 100.420,321.500 100.795,321.500 111.714 L 321.500 121.500 318.417 121.500 L 315.333 121.500 315.333 125.417 L 315.333 129.333 326.750 129.333 L 338.167 129.333 338.167 125.417 L 338.167 121.500 335.094 121.500 L 332.021 121.500 331.955 110.125 C 331.879 96.914,331.811 96.248,330.225 93.159 C 329.508 91.763,327.621 89.500,327.174 89.500 C 327.093 89.500,327.003 89.444,326.972 89.375 C 326.797 88.980,324.344 87.565,322.972 87.066 C 320.341 86.109,315.622 85.840,312.833 86.487 M356.750 86.438 C 356.108 86.569,355.236 86.787,354.811 86.922 C 354.386 87.056,353.953 87.167,353.849 87.167 C 352.605 87.167,346.000 91.695,346.000 92.549 C 346.000 92.603,345.738 92.934,345.417 93.282 C 345.097 93.631,344.835 93.973,344.834 94.041 C 344.834 94.110,344.584 94.522,344.279 94.958 C 342.036 98.162,340.675 103.302,340.647 108.677 C 340.618 114.011,342.120 119.944,344.013 121.976 C 344.189 122.165,344.333 122.363,344.333 122.417 C 344.333 122.470,344.407 122.605,344.497 122.715 C 348.609 127.763,354.474 130.326,361.917 130.327 C 363.804 130.327,367.350 129.946,368.091 129.663 C 368.362 129.560,368.883 129.412,369.250 129.334 C 370.414 129.087,372.301 128.299,373.250 127.664 C 373.525 127.480,373.881 127.284,374.042 127.229 C 374.202 127.173,374.333 127.067,374.333 126.992 C 374.333 126.917,374.471 126.812,374.640 126.759 C 376.506 126.166,379.917 121.153,380.599 118.000 C 380.982 116.231,380.987 116.243,379.792 116.032 C 379.219 115.930,377.925 115.693,376.917 115.504 C 371.715 114.529,372.167 114.576,372.167 115.002 C 372.167 115.187,372.096 115.468,372.011 115.627 C 371.925 115.786,371.751 116.142,371.625 116.417 C 369.124 121.851,362.645 123.675,356.708 120.616 C 356.319 120.415,356.000 120.194,356.000 120.125 C 356.000 120.056,355.928 120.000,355.841 120.000 C 355.624 120.000,354.497 118.899,353.880 118.083 C 352.791 116.644,351.500 112.899,351.500 111.179 L 351.500 110.502 365.704 110.459 L 379.908 110.417 380.193 108.750 C 380.791 105.264,380.471 100.885,379.413 98.083 C 379.171 97.442,378.928 96.767,378.873 96.583 C 377.790 92.961,372.327 88.188,367.833 86.938 C 364.905 86.123,359.483 85.879,356.750 86.438 M147.075 87.045 C 147.030 87.162,147.014 88.981,147.038 91.087 L 147.083 94.917 150.208 94.962 L 153.333 95.007 153.334 105.879 C 153.334 117.093,153.477 119.712,154.158 120.984 C 154.254 121.164,154.333 121.429,154.333 121.573 C 154.333 122.072,155.286 123.861,156.158 125.000 C 156.743 125.764,158.158 127.151,158.363 127.161 C 158.425 127.164,158.578 127.260,158.702 127.375 C 159.408 128.028,161.489 128.998,163.667 129.687 C 165.462 130.256,171.295 130.262,173.000 129.697 C 173.596 129.499,174.175 129.337,174.288 129.335 C 176.046 129.317,180.497 125.654,181.884 123.083 C 182.140 122.608,182.154 122.752,182.160 125.958 L 182.167 129.333 190.583 129.333 L 199.000 129.333 199.000 125.417 L 199.000 121.500 195.667 121.500 L 192.333 121.500 192.333 104.167 L 192.333 86.833 183.414 86.833 L 174.494 86.833 174.539 90.875 L 174.583 94.917 178.384 94.961 L 182.185 95.006 182.119 103.795 C 182.045 113.734,182.039 113.790,180.760 116.367 C 180.032 117.835,178.434 119.971,178.050 119.990 C 177.940 119.996,177.790 120.094,177.717 120.208 C 177.643 120.323,177.433 120.510,177.250 120.623 C 172.798 123.383,166.937 122.327,165.013 118.419 C 163.761 115.875,163.798 116.379,163.715 100.792 L 163.640 86.833 155.398 86.833 C 148.884 86.833,147.139 86.878,147.075 87.045 M260.000 90.917 L 260.000 95.000 263.333 95.000 L 266.667 95.000 266.667 108.250 L 266.667 121.500 263.500 121.500 L 260.333 121.500 260.333 125.417 L 260.333 129.333 271.750 129.333 L 283.167 129.333 283.167 125.417 L 283.167 121.500 280.000 121.500 L 276.833 121.500 276.833 104.167 L 276.833 86.833 268.417 86.833 L 260.000 86.833 260.000 90.917 M364.176 94.193 C 367.482 95.298,370.000 99.042,370.000 102.852 L 370.000 103.833 360.750 103.833 C 355.662 103.833,351.501 103.777,351.503 103.708 C 351.545 102.017,353.367 97.868,354.730 96.358 C 356.770 94.099,360.998 93.130,364.176 94.193 M127.724 94.406 C 134.137 95.633,137.756 102.303,136.593 110.750 C 135.992 115.118,133.777 119.150,131.197 120.572 C 125.824 123.535,118.786 122.084,116.451 117.532 C 116.325 117.285,116.074 116.821,115.895 116.500 C 114.365 113.763,113.502 107.091,114.290 104.083 C 114.831 102.015,115.014 101.449,115.426 100.562 C 116.407 98.452,118.557 96.033,120.058 95.351 C 122.580 94.205,125.069 93.899,127.724 94.406 M45.946 96.276 C 45.884 96.338,45.833 97.689,45.833 99.278 L 45.833 102.167 52.337 102.167 L 58.841 102.167 58.796 99.208 L 58.750 96.250 52.405 96.206 C 48.915 96.182,46.009 96.214,45.946 96.276 M30.333 117.083 L 30.333 120.000 36.833 120.000 L 43.333 120.000 43.333 117.083 L 43.333 114.167 36.833 114.167 L 30.333 114.167 30.333 117.083 M61.333 117.083 L 61.333 120.000 63.583 120.000 L 65.833 120.000 65.833 117.083 L 65.833 114.167 63.583 114.167 L 61.333 114.167 61.333 117.083 " stroke="none" fill="#fcfcfc" fill-rule="evenodd"></path><path id="path1" d="M265.167 72.917 L 265.167 79.167 271.417 79.167 L 277.667 79.167 277.667 72.917 L 277.667 66.667 271.417 66.667 L 265.167 66.667 265.167 72.917 M30.333 99.165 L 30.333 102.167 36.837 102.167 L 43.341 102.167 43.296 99.208 L 43.250 96.250 36.792 96.206 L 30.333 96.163 30.333 99.165 M61.444 96.278 C 61.383 96.339,61.333 97.689,61.333 99.278 L 61.333 102.167 63.583 102.167 L 65.833 102.167 65.833 99.167 L 65.833 96.167 63.694 96.167 C 62.518 96.167,61.506 96.217,61.444 96.278 M30.333 108.082 L 30.333 111.000 40.754 111.000 L 51.175 111.000 51.129 108.125 L 51.083 105.250 40.708 105.207 L 30.333 105.164 30.333 108.082 M53.611 105.278 C 53.550 105.339,53.500 106.651,53.500 108.194 L 53.500 111.000 59.667 111.000 L 65.833 111.000 65.833 108.083 L 65.833 105.167 59.778 105.167 C 56.447 105.167,53.672 105.217,53.611 105.278 M45.833 117.083 L 45.833 120.000 52.333 120.000 L 58.833 120.000 58.833 117.083 L 58.833 114.167 52.333 114.167 L 45.833 114.167 45.833 117.083 " stroke="none" fill="#5c94fc" fill-rule="evenodd"></path><path id="path2" d="" stroke="none" fill="#d4100fc" fill-rule="evenodd"></path><path id="path3" d="" stroke="none" fill="#d4100fc" fill-rule="evenodd"></path><path id="path4" d="" stroke="none" fill="#d4100fc" fill-rule="evenodd"></path><path id="path5" d="" stroke="none" fill="#d4100fc" fill-rule="evenodd"></path><path id="path6" d="" stroke="none" fill="#d4100fc" fill-rule="evenodd"></path><path id="path7" d="" stroke="none" fill="#d4100fc" fill-rule="evenodd"></path></g></svg>