<svg version="1.1" xmlns="http://www.w3.org/2000/svg" viewBox="0 0 982.9386572699655 327.4422452703403" width="982.9386572699655" height="327.4422452703403">
  <!-- svg-source:excalidraw -->
  
  <defs>
    <style class="style-fonts">
      @font-face {
        font-family: "Virgil";
        src: url("https://excalidraw.com/Virgil.woff2");
      }
      @font-face {
        font-family: "Cascadia";
        src: url("https://excalidraw.com/Cascadia.woff2");
      }
    </style>
  </defs>
  <rect x="0" y="0" width="982.9386572699655" height="327.4422452703403" fill="#ffffff"></rect><g stroke-linecap="round" transform="translate(10 15.608212856847544) rotate(0 67.61753614294571 61.69589357157623)"><path d="M85 15.5 M85 15.5 C93.69 25.19, 103.47 34.95, 118.24 46.5 M85 15.5 C91.88 21.66, 98.65 29.34, 118.24 46.5 M118.24 46.5 C133.5 61.83, 134.52 63.52, 118.24 77.5 M118.24 46.5 C134.75 62.1, 136.35 62.44, 118.24 77.5 M118.24 77.5 C107.56 86.56, 98.79 98.67, 85 107.89 M118.24 77.5 C106.55 88.91, 94.45 99.66, 85 107.89 M85 107.89 C66.6 122.16, 68.16 122.93, 51 107.89 M85 107.89 C69.99 125.45, 70.23 123.83, 51 107.89 M51 107.89 C37.04 94.88, 26.98 87.45, 17 77.5 M51 107.89 C40.49 99.03, 30.34 88.15, 17 77.5 M17 77.5 C0.44 61.21, -1.5 63.92, 17 46.5 M17 77.5 C1.72 59.87, -0.99 61.32, 17 46.5 M17 46.5 C27.49 37.49, 36.04 29.08, 51 15.5 M17 46.5 C29.94 34.73, 40.29 24.59, 51 15.5 M51 15.5 C66.68 -0.01, 68.33 -1.09, 85 15.5 M51 15.5 C67.39 -1.91, 69.38 -0.95, 85 15.5" stroke="#000000" stroke-width="1" fill="none"></path></g><g stroke-linecap="round"><g transform="translate(150.593930703958 73.25947016425246) rotate(0 20.809793750056997 -1.2680193558073816)"><path d="M0.3 -0.76 C7.43 -1.3, 35.49 -3.47, 42.62 -3.99 M-1 1.45 C6.05 1.09, 34.71 -2.28, 42.02 -3.03" stroke="#000000" stroke-width="1" fill="none"></path></g><g transform="translate(150.593930703958 73.25947016425246) rotate(0 20.809793750056997 -1.2680193558073816)"><path d="M21.9 7.4 C26.8 5.44, 32.43 0.21, 40.88 -4.06 M22.81 7.04 C29.87 2.96, 37.41 -0.26, 42.23 -2.79" stroke="#000000" stroke-width="1" fill="none"></path></g><g transform="translate(150.593930703958 73.25947016425246) rotate(0 20.809793750056997 -1.2680193558073816)"><path d="M20.33 -6.9 C25.59 -4.76, 31.67 -5.91, 40.88 -4.06 M21.24 -7.26 C28.75 -6.15, 36.85 -4.19, 42.23 -2.79" stroke="#000000" stroke-width="1" fill="none"></path></g></g><mask></mask><g transform="translate(35 58) rotate(0 43.56996154785156 24)"><text x="43.56996154785156" y="0" font-family="Virgil, Segoe UI Emoji" font-size="20px" fill="#000000" text-anchor="middle" style="white-space: pre;" direction="ltr" dominant-baseline="text-before-edge">Keyboard</text><text x="43.56996154785156" y="24" font-family="Virgil, Segoe UI Emoji" font-size="20px" fill="#000000" text-anchor="middle" style="white-space: pre;" direction="ltr" dominant-baseline="text-before-edge">event</text></g><g stroke-linecap="round" transform="translate(203 10) rotate(0 74 60.5)"><path d="M30.25 0 M30.25 0 C59.8 -1.52, 91.39 -1.86, 117.75 0 M30.25 0 C61.61 0.83, 93.47 0.12, 117.75 0 M117.75 0 C138.89 0.38, 148.41 10.56, 148 30.25 M117.75 0 C136.47 -0.11, 147.46 12.14, 148 30.25 M148 30.25 C147.02 54.49, 150.09 77.69, 148 90.75 M148 30.25 C147.66 53.54, 148.44 78.2, 148 90.75 M148 90.75 C149.94 111.29, 139.36 120.43, 117.75 121 M148 90.75 C150 109.3, 135.62 122.37, 117.75 121 M117.75 121 C82.81 120.52, 50.81 122.01, 30.25 121 M117.75 121 C92.21 121.62, 68.91 119.73, 30.25 121 M30.25 121 C9.22 120.41, 0.13 111.51, 0 90.75 M30.25 121 C11.16 121.18, 0.74 108.95, 0 90.75 M0 90.75 C-1.45 69.31, -2.19 42.4, 0 30.25 M0 90.75 C0.57 72.24, 0.13 53.99, 0 30.25 M0 30.25 C1.2 9.25, 10.65 1.74, 30.25 0 M0 30.25 C1.52 10.07, 10.98 1.94, 30.25 0" stroke="#000000" stroke-width="1" fill="none"></path></g><g transform="translate(230.04003143310547 56) rotate(0 45.95996856689453 12)"><text x="45.95996856689453" y="0" font-family="Virgil, Segoe UI Emoji" font-size="20px" fill="#000000" text-anchor="middle" style="white-space: pre;" direction="ltr" dominant-baseline="text-before-edge">UpdateFn</text></g><g stroke-linecap="round"><g transform="translate(353.00203762158753 76.6983983700917) rotate(0 22.846173745234182 -1.922802058703093)"><path d="M0.08 0.78 C7.77 -0.06, 39.43 -4.01, 47.03 -4.63 M-1.34 0.15 C6.14 -0.62, 37.95 -2.77, 46.18 -3.61" stroke="#000000" stroke-width="1" fill="none"></path></g><g transform="translate(353.00203762158753 76.6983983700917) rotate(0 22.846173745234182 -1.922802058703093)"><path d="M26.14 6.52 C31.07 0.68, 41.82 -1.97, 46.11 -3.31 M24.79 6.57 C30.32 3.89, 34.25 2.16, 46.6 -2.87" stroke="#000000" stroke-width="1" fill="none"></path></g><g transform="translate(353.00203762158753 76.6983983700917) rotate(0 22.846173745234182 -1.922802058703093)"><path d="M24.81 -9.5 C30.3 -9.4, 41.54 -6.11, 46.11 -3.31 M23.46 -9.45 C29.15 -8.64, 33.37 -6.88, 46.6 -2.87" stroke="#000000" stroke-width="1" fill="none"></path></g></g><mask></mask><g stroke-linecap="round" transform="translate(409.86224026383525 12.043124974525824) rotate(0 74 60.5)"><path d="M30.25 0 M30.25 0 C55.43 -2.02, 85.08 -1.02, 117.75 0 M30.25 0 C55.38 1.1, 82.09 1.05, 117.75 0 M117.75 0 C139.43 -0.23, 148.06 10.69, 148 30.25 M117.75 0 C138.89 1.7, 147.75 11.47, 148 30.25 M148 30.25 C146.75 49.06, 147.6 65.64, 148 90.75 M148 30.25 C147.23 52.73, 146.75 77.27, 148 90.75 M148 90.75 C147.54 109.31, 136.97 121.01, 117.75 121 M148 90.75 C147.07 109.86, 139.11 123.24, 117.75 121 M117.75 121 C96.51 120.58, 75.86 120.52, 30.25 121 M117.75 121 C91.75 122.69, 66.88 121.76, 30.25 121 M30.25 121 C9.49 120.5, -0.41 111.33, 0 90.75 M30.25 121 C9.23 119.4, 1.58 108.96, 0 90.75 M0 90.75 C0.23 68.29, -0.06 41.66, 0 30.25 M0 90.75 C0.41 72.57, 0.64 54.98, 0 30.25 M0 30.25 C1.63 11.89, 9.36 0.43, 30.25 0 M0 30.25 C1.5 7.83, 9.21 1.14, 30.25 0" stroke="#000000" stroke-width="1" fill="none"></path></g><g transform="translate(427.29229397477275 58.043124974525824) rotate(0 55.5699462890625 12)"><text x="55.5699462890625" y="0" font-family="Virgil, Segoe UI Emoji" font-size="20px" fill="#000000" text-anchor="middle" style="white-space: pre;" direction="ltr" dominant-baseline="text-before-edge">Transforms</text></g><g stroke-linecap="round"><g transform="translate(561.216214363883 77.83355074008969) rotate(0 23.417394560714 -1.6461931386057413)"><path d="M0.63 0.34 C8.58 -0.22, 39.54 -2.79, 47.34 -3.63 M-0.5 -0.53 C7.36 -0.86, 38.74 -1.51, 46.64 -2.08" stroke="#000000" stroke-width="1" fill="none"></path></g><g transform="translate(561.216214363883 77.83355074008969) rotate(0 23.417394560714 -1.6461931386057413)"><path d="M25.48 7.69 C30.84 5.25, 34.9 1.72, 46.06 -3.81 M25 6.21 C32.56 4.34, 40.22 1.58, 47.58 -2.42" stroke="#000000" stroke-width="1" fill="none"></path></g><g transform="translate(561.216214363883 77.83355074008969) rotate(0 23.417394560714 -1.6461931386057413)"><path d="M24.79 -8.37 C30.3 -6.47, 34.55 -5.66, 46.06 -3.81 M24.31 -9.85 C32.07 -6.33, 39.97 -3.71, 47.58 -2.42" stroke="#000000" stroke-width="1" fill="none"></path></g></g><mask></mask><g stroke-linecap="round" transform="translate(618.0764170061307 13.17827734452382) rotate(0 74 60.5)"><path d="M30.25 0 M30.25 0 C61.1 0.55, 90.12 -0.56, 117.75 0 M30.25 0 C53.8 -0.94, 77.74 -1, 117.75 0 M117.75 0 C138.61 0.64, 149.45 11.23, 148 30.25 M117.75 0 C140.09 -0.77, 146.81 7.85, 148 30.25 M148 30.25 C149.33 46.14, 145.62 61.74, 148 90.75 M148 30.25 C147.53 51.82, 148.05 73.82, 148 90.75 M148 90.75 C146.05 108.93, 136.89 119.56, 117.75 121 M148 90.75 C147.39 109.04, 139.41 118.94, 117.75 121 M117.75 121 C81.79 120.24, 49.62 118.73, 30.25 121 M117.75 121 C92.15 121.95, 68.68 121.18, 30.25 121 M30.25 121 C11.74 120.19, -1.55 109.76, 0 90.75 M30.25 121 C9.01 120.88, -1.43 110.16, 0 90.75 M0 90.75 C1.75 71.93, -0.17 49.52, 0 30.25 M0 90.75 C0.17 78.47, 0.13 66.04, 0 30.25 M0 30.25 C1.21 12, 11.38 -0.99, 30.25 0 M0 30.25 C-0.74 9.68, 8.76 1.53, 30.25 0" stroke="#000000" stroke-width="1" fill="none"></path></g><g transform="translate(627.2248199059527 49.47306048684939) rotate(0 64.9299545288086 24)"><text x="64.9299545288086" y="0" font-family="Virgil, Segoe UI Emoji" font-size="20px" fill="#000000" text-anchor="middle" style="white-space: pre;" direction="ltr" dominant-baseline="text-before-edge">DOM changes</text><text x="64.9299545288086" y="24" font-family="Virgil, Segoe UI Emoji" font-size="20px" fill="#000000" text-anchor="middle" style="white-space: pre;" direction="ltr" dominant-baseline="text-before-edge">reconciled</text></g><g stroke-linecap="round"><g transform="translate(768.0784546277187 79.87667571461552) rotate(0 23.169659273595244 -2.736147374438879)"><path d="M-0.13 -0.35 C7.42 -0.71, 38.02 -2.55, 45.82 -3.22 M-1.65 -1.58 C6.21 -2.21, 40.08 -4.81, 47.99 -5.12" stroke="#000000" stroke-width="1" fill="none"></path></g><g transform="translate(768.0784546277187 79.87667571461552) rotate(0 23.169659273595244 -2.736147374438879)"><path d="M25.86 2.53 C34.66 0.74, 40.13 -2.04, 46.61 -4.43 M27.39 3.93 C33.01 0.05, 40.32 -2.76, 48.69 -4.25" stroke="#000000" stroke-width="1" fill="none"></path></g><g transform="translate(768.0784546277187 79.87667571461552) rotate(0 23.169659273595244 -2.736147374438879)"><path d="M24.87 -13.51 C33.87 -9.77, 39.68 -7.01, 46.61 -4.43 M26.4 -12.12 C32.46 -10.67, 40.11 -8.17, 48.69 -4.25" stroke="#000000" stroke-width="1" fill="none"></path></g></g><mask></mask><g stroke-linecap="round" transform="translate(824.9386572699655 15.221402319049645) rotate(0 74 60.5)"><path d="M30.25 0 M30.25 0 C56.29 0.45, 79.67 0.91, 117.75 0 M30.25 0 C51.17 0.29, 71.59 -0.61, 117.75 0 M117.75 0 C136.88 -1.94, 147.3 8.74, 148 30.25 M117.75 0 C139.54 2, 147.82 7.82, 148 30.25 M148 30.25 C146.82 46.07, 148.21 63.45, 148 90.75 M148 30.25 C146.9 49.42, 147.14 69.22, 148 90.75 M148 90.75 C149.3 109.13, 139.89 121.26, 117.75 121 M148 90.75 C146.76 109.67, 137.59 122.87, 117.75 121 M117.75 121 C100.36 119.72, 82.02 122.36, 30.25 121 M117.75 121 C92.94 120.06, 69.2 120.59, 30.25 121 M30.25 121 C8.84 120.34, 0.6 111.43, 0 90.75 M30.25 121 C11.98 123.19, 1.32 110.9, 0 90.75 M0 90.75 C1.47 75.93, 0.4 61.6, 0 30.25 M0 90.75 C0.28 74.21, -0.69 58.48, 0 30.25 M0 30.25 C-1.15 11.41, 11.17 -1.13, 30.25 0 M0 30.25 C1.64 9.13, 9.52 -2.24, 30.25 0" stroke="#000000" stroke-width="1" fill="none"></path></g><g transform="translate(853.3387045722116 61.221402319049645) rotate(0 44.599952697753906 12)"><text x="44.599952697753906" y="0" font-family="Virgil, Segoe UI Emoji" font-size="20px" fill="#000000" text-anchor="middle" style="white-space: pre;" direction="ltr" dominant-baseline="text-before-edge">Listeners</text></g><g stroke-linecap="round" transform="translate(503.86466572439986 196.44224527034032) rotate(0 74 60.5)"><path d="M30.25 0 M30.25 0 C50.95 -0.31, 67.84 0.66, 117.75 0 M30.25 0 C54.79 -0.36, 79.77 -0.65, 117.75 0 M117.75 0 C137.08 0.99, 147.18 10.89, 148 30.25 M117.75 0 C139.51 0.95, 146.11 12.35, 148 30.25 M148 30.25 C149.58 51.62, 148.92 77.02, 148 90.75 M148 30.25 C148.09 51.88, 148.07 75.74, 148 90.75 M148 90.75 C149.38 110.97, 136.5 121.18, 117.75 121 M148 90.75 C148.81 112.51, 139.16 122.92, 117.75 121 M117.75 121 C85.83 123.18, 57.17 122.82, 30.25 121 M117.75 121 C89.02 121.44, 61.92 120.73, 30.25 121 M30.25 121 C10.06 119.74, -1.09 110.46, 0 90.75 M30.25 121 C8.94 122.63, -1.6 111.03, 0 90.75 M0 90.75 C-0.17 74.69, 1.86 63.05, 0 30.25 M0 90.75 C-0.56 69.51, 0.63 47.88, 0 30.25 M0 30.25 C-1.52 11.38, 9.34 1.11, 30.25 0 M0 30.25 C0.42 8.52, 9.5 -2.22, 30.25 0" stroke="#000000" stroke-width="1" fill="none"></path></g><g transform="translate(530.9979899296391 231.65867098403544) rotate(0 43.7099609375 24)"><text x="43.7099609375" y="0" font-family="Virgil, Segoe UI Emoji" font-size="20px" fill="#000000" text-anchor="middle" style="white-space: pre;" direction="ltr" dominant-baseline="text-before-edge">Mutation</text><text x="43.7099609375" y="24" font-family="Virgil, Segoe UI Emoji" font-size="20px" fill="#000000" text-anchor="middle" style="white-space: pre;" direction="ltr" dominant-baseline="text-before-edge">Observer</text></g><g stroke-linecap="round"><g transform="translate(520.7117220069836 194.3975144097716) rotate(0 -13.070051988495152 -27.964511731130905)"><path d="M-0.33 1.15 C-4.96 -8.29, -22.79 -47.34, -27.29 -57.08 M1.7 0.71 C-3.08 -8.48, -22.94 -46.05, -27.84 -55.5" stroke="#000000" stroke-width="1" fill="none"></path></g><g transform="translate(520.7117220069836 194.3975144097716) rotate(0 -13.070051988495152 -27.964511731130905)"><path d="M-3.75 -34.05 C-13.11 -41.16, -21.08 -49.89, -26.88 -55.25 M-6.57 -35.31 C-11.38 -41.73, -18.62 -46.84, -28.6 -55.05" stroke="#000000" stroke-width="1" fill="none"></path></g><g transform="translate(520.7117220069836 194.3975144097716) rotate(0 -13.070051988495152 -27.964511731130905)"><path d="M-21.92 -24.52 C-24.98 -34.86, -26.68 -46.88, -26.88 -55.25 M-24.74 -25.78 C-24.3 -35.07, -26.24 -42.96, -28.6 -55.05" stroke="#000000" stroke-width="1" fill="none"></path></g></g><mask></mask><g stroke-linecap="round"><g transform="translate(659.8198303003173 137.2445706923554) rotate(0 -13.403366242228685 28.877561017734827)"><path d="M0.94 -0.59 C-3.54 9.17, -23.05 48.83, -27.75 58.34 M-0.02 1.72 C-4.05 11.19, -20.77 47.56, -25.45 56.84" stroke="#000000" stroke-width="1" fill="none"></path></g><g transform="translate(659.8198303003173 137.2445706923554) rotate(0 -13.403366242228685 28.877561017734827)"><path d="M-23.52 25.67 C-21.27 33.38, -25.07 41.91, -24.82 55.37 M-21.72 26.75 C-23.08 35.79, -24.28 45.46, -24.86 56.47" stroke="#000000" stroke-width="1" fill="none"></path></g><g transform="translate(659.8198303003173 137.2445706923554) rotate(0 -13.403366242228685 28.877561017734827)"><path d="M-5.01 34.52 C-6.97 40.36, -14.99 46.87, -24.82 55.37 M-3.21 35.6 C-10 42.18, -16.64 49.24, -24.86 56.47" stroke="#000000" stroke-width="1" fill="none"></path></g></g><mask></mask></svg>