<svg xmlns="http://www.w3.org/2000/svg" viewBox="0 0 1171.55 329.004" width="2343.099" height="658.007"><defs><style>@font-face{font-family:&quot;Virgil&quot;;src:url(https://excalidraw.com/Virgil.woff2)}@font-face{font-family:&quot;Cascadia&quot;;src:url(https://excalidraw.com/Cascadia.woff2)}</style></defs><path fill="#fff" d="M0 0h1171.55v329.004H0z"/><path d="M239.18 84.861c56.91 1.25 113.81 1.05 183.39-.19m-180.97 1.4c45.62 1.02 89.78 1.08 180.64.42m.81-1.23c-.87 41.93-1.01 84.23-2.16 148.56m1.09-146.62c1.2 43.08.73 85.69.36 148.23m-1.88-.03c-34.95-.68-72.59-2.69-180.41-.92m182.11 1.51c-43.21-.28-84.26-.02-180.26.32m-1.06-2.74c2.2-47.41-.48-100.35 1.22-145.34m-1.38 147.22c-.17-57.32-1.43-115.49-.64-149.56" stroke="#000" fill="none" stroke-linecap="round"/><text x="85.5" y="18" font-family="Virgil, Segoe UI Emoji" font-size="20" text-anchor="middle" style="white-space:pre" transform="translate(246.03 148.331)">updateFn</text><path d="M75.6 99.632c12.97 14.5 26.8 24.81 59.34 59.02m-61.85-59.34c24.18 23.21 47.28 43.3 62.75 57.41m1.96-.54c-26.2 23.55-47.13 42.06-62.73 57.12m60.21-55.86c-15.69 14.28-29.93 28.67-61.8 55.79m.85.07c-15.36-15.05-33.32-27.74-65.97-56.49m65.66 57.09c-13.99-14.52-30.36-26.15-63.85-57.06m1.34-.57c18.07-17.15 36.24-32.8 61.02-55.11m-62.25 55.67c22.27-19.24 43.27-38.63 64.24-56.45" stroke="#000" fill="none" stroke-linecap="round"/><text x="58" y="18" font-family="Virgil, Segoe UI Emoji" font-size="20" text-anchor="middle" style="white-space:pre" transform="translate(15 131.728)">keyboard </text><text x="58" y="43" font-family="Virgil, Segoe UI Emoji" font-size="20" text-anchor="middle" style="white-space:pre" transform="translate(15 131.728)">event</text><g stroke-linecap="round"><path d="M143.072 153.467c14.47.11 72.56.62 86.89.92m-85.09 1.39c14.34.34 69.61.57 84.01.18" stroke="#000" fill="none"/><path d="M199.792 166.067c8.01-3.98 16.38-2.92 27.84-10.47m-27.49 11.51c10.98-4 22.98-8.74 29.45-10.16" stroke="#000" fill="none"/><path d="M199.612 145.547c7.99 1.05 16.42 7.13 28.02 10.05m-27.68-9.01c10.95 4.1 23.02 7.47 29.64 10.36" stroke="#000" fill="none"/></g><path d="M495.357 8.85c71.87.05 143.72-1.95 182.77 2.47m-180.89-.84c52.5-.51 107.09.94 178.92.31m-.87-.18c.04 32.38.29 67.36 2.6 148.87m-1.32-148.78c1.06 37.59.37 77.01.33 148.9m-1.7-1.68c-38.63.38-79.05 1.15-176.53 2.35m177.65-1.64c-69.67-.5-139.88 1.28-179.83-.61m-1.19 1.9c.82-43.62 1.33-84.96 1.09-150.15m1.32 149.11c-2.22-58.43-1.48-118.03-.57-149.79" stroke="#5c940d" fill="none" stroke-linecap="round"/><text x="85" y="18" font-family="Virgil, Segoe UI Emoji" font-size="20" fill="#5c940d" text-anchor="middle" style="white-space:pre" transform="translate(501.967 72)">transform1</text><g stroke-linecap="round"><path d="M430.277 125.356c10.12-2.93 51.21-14.91 61.56-18.29m-63.08 17.77c9.88-3.27 51.54-16.14 62.05-19.27" stroke="#000" fill="none"/><path d="M468.477 123.356c8.94-5.58 14.35-14.28 23.97-19.61m-26.39 19.75c7.35-5.22 12.72-9.42 24.1-18.31" stroke="#000" fill="none"/><path d="M462.497 103.726c11.15 1.52 18.72-.09 29.95.02m-32.36.12c8.99.04 15.96 1.1 30.07 1.32" stroke="#000" fill="none"/></g><path d="M748.65 83.001c51.64-.21 101.87-1.25 168.57 1.03m-167.53-.75c60.88-1.42 122.92-1.6 167.57-1.13m.96.3c.53 42.82-.43 85.67-.3 150.68m-.54-151.21c-2.2 48.66-1.36 97.17-.21 150.38m.54-.84c-48.57 2.61-96.2.39-168.13.85m167.19.12c-56.67 1.93-115.06 1.47-167.16.17m.87-.67c-1.73-39.67.15-77.61-1.82-150.89m.96 151.31c-.06-47.71-.68-96.4.05-150.64" stroke="#000" fill="none" stroke-linecap="round"/><g stroke-linecap="round"><path d="M683.874 108.806c10.08 3.02 50.07 15.09 59.89 18.15m-60.94-18.68c9.94 3.2 50.38 14.1 60.2 16.94" stroke="#000" fill="none"/><path d="M714.754 128.206c9.02-2.5 18.81-3.77 28.32-2.35m-29.46 2.09c10.67-1.56 20.01-2.31 28.72-3.38" stroke="#000" fill="none"/><path d="M720.264 108.436c7.45 3.78 15.5 8.75 22.81 17.42m-23.95-17.68c8.62 5.38 16.04 11.55 23.21 16.39" stroke="#000" fill="none"/></g><text x="79" y="18" font-family="Virgil, Segoe UI Emoji" font-size="20" text-anchor="middle" style="white-space:pre" transform="translate(754.13 132.341)">DOM changes</text><text x="79" y="43" font-family="Virgil, Segoe UI Emoji" font-size="20" text-anchor="middle" style="white-space:pre" transform="translate(754.13 132.341)">reconciled</text><path d="M991.55 80.86c41.27 1.3 79.63.44 169.89-1.07m-168.61 1.84c41.08.24 80 .55 167.74-.38m1.46.75c-.24 35.19.99 72.09-1.19 151.27m.83-151.91c.63 57.39 2.05 114.3.58 149.77m.37.75c-51.2-.04-100.75-.86-167.35-.24m165.36-.5c-64.46.36-129.1-.62-166.75 1.05m1.49-.03c-2.96-48.63-3-96.69-2-150.33m-.44 150.49c-1.32-58.91.23-117.07.35-150.85" stroke="#000" fill="none" stroke-linecap="round"/><g stroke-linecap="round"><path d="M926.314 153.257c10.38.06 51.88.79 62.31.85m-60.74-2.15c10.4-.32 50.09-.29 60.24.19" stroke="#000" fill="none"/><path d="M958.934 163.247c7.07-1.17 11.97-5.17 27.32-12.36m-26.55 11.45c8.19-3.64 17.02-7.09 28.01-10.78" stroke="#000" fill="none"/><path d="M959.344 142.737c6.99 2.98 11.81 3.14 26.91 8.15m-26.14-9.07c7.99 2.51 16.7 5.22 27.6 9.74" stroke="#000" fill="none"/></g><text x="79" y="18" font-family="Virgil, Segoe UI Emoji" font-size="20" text-anchor="middle" style="white-space:pre" transform="translate(998.55 144.16)">update listener</text><path d="M496.956 168.354c63.39 1.49 124.98 3.03 179.69 1.34m-178.03.28c59.88-.06 118.74-.04 179.1-.37m-.65-.64c.47 51.82.67 100.2.42 148.71m.55-148.21c1.27 46.23 1.15 92.93.06 149.11m-.76 2.38c-42.23-3.76-84.35-2.57-177.73-.53m178.92-2.15c-71.44 2.08-142.09 3.3-180.64-.24m.4.83c.77-48.18 1.9-96.66-.2-147.06m.81 146.79c-.71-41.1-1.36-80.1.06-148.38" stroke="#5c940d" fill="none" stroke-linecap="round"/><text x="85" y="18" font-family="Virgil, Segoe UI Emoji" font-size="20" fill="#5c940d" text-anchor="middle" style="white-space:pre" transform="translate(503.556 232.004)">transform2</text><g stroke-linecap="round"><path d="M428.786 168.206c9.4 7.02 48.79 34.61 58.55 41.52m-56.91-42.22c9.65 6.7 49.15 33.92 59.02 40.65" stroke="#000" fill="none"/><path d="M461.496 198.756c12.06 3.19 23.37 9.55 28.52 8.09m-29.58-5.71c4.86.22 10.73 2 29.6 7.93" stroke="#000" fill="none"/><path d="M473.106 181.836c7.51 9.72 14.27 22.73 16.91 25.01m-17.97-22.63c2.45 3.7 5.98 8.9 17.99 24.85" stroke="#000" fill="none"/></g><g stroke-linecap="round"><path d="M687.094 198.74c8.76-5.22 42.75-26.41 51.49-31.66m-52.65 30.51c9.19-5.07 46.11-24.64 54.94-29.57M720.634 189.11c3.69-4.25 9.06-11.29 18.41-19.86m-17.4 21.1c6.6-7.39 14.26-14.86 18.32-21.53" stroke="#000" fill="none"/><path d="M710.854 171.07c6.12.35 14.01-2.05 28.19-1.82m-27.18 3.06c9.89-1.1 20.95-2.29 28.1-3.49" stroke="#000" fill="none"/></g></svg>