
<svg width="1800px" height="376px" viewBox="0 0 1800 376" version="1.1" xmlns="http://www.w3.org/2000/svg" xmlns:xlink="http://www.w3.org/1999/xlink">
    <defs>
        <path d="M231.178391,0 L0,0 L0,228.39311 L231.178391,228.39311 L231.178391,0 Z M328.663255,0 L286.884028,0 L286.884028,228.39311 L328.663255,228.39311 L328.663255,0 Z" id="path-1"></path>
    </defs>
    <g id="Page-1" stroke="none" stroke-width="1" fill="none" fill-rule="evenodd">
        <g id="Artboard-Copy-62" transform="translate(-659.000000, -607.000000)">
            <g id="Group-3" transform="translate(659.000000, 607.572816)">
                <g id="Clipped" transform="translate(0.000000, 104.682032)">
                    <mask id="mask-2" fill="white">
                        <use xlink:href="#path-1"></use>
                    </mask>
                    <g id="Shape"></g>
                    <g id="Group" mask="url(#mask-2)" fill-rule="nonzero">
                        <g transform="translate(-0.764037, -0.764037)">
                            <path d="M329.427292,0.764037214 L0.764037214,0.764037214 L0.764037214,229.157147 L329.427292,229.157147 L329.427292,0.764037214 Z M296.003911,34.1874191 L296.003911,195.733765 L34.1874191,195.733765 L34.1874191,34.1874191 L296.003911,34.1874191 Z" id="Rectangle" fill="#333333"></path>
                            <polygon id="Path" fill="#333333" points="56.4696737 56.4696737 119.603657 56.4696737 119.603657 84.3224919 56.4696737 84.3224919"></polygon>
                            <polygon id="Path" fill="#4385FF" points="133.530066 56.4696737 196.661264 56.4696737 196.661264 84.3224919 133.530066 84.3224919"></polygon>
                            <polygon id="Path" fill="#333333" points="210.587673 56.4696737 273.721656 56.4696737 273.721656 84.3224919 210.587673 84.3224919"></polygon>
                            <polygon id="Path" fill="#333333" points="56.4696737 101.034183 158.13246 101.034183 158.13246 128.887001 56.4696737 128.887001"></polygon>
                            <polygon id="Path" fill="#333333" points="172.058869 101.034183 273.721656 101.034183 273.721656 128.887001 172.058869 128.887001"></polygon>
                            <polygon id="Path" fill="#4385FF" points="56.4696737 145.598692 119.603657 145.598692 119.603657 173.45151 56.4696737 173.45151"></polygon>
                            <polygon id="Path" fill="#333333" points="133.530066 145.598692 196.661264 145.598692 196.661264 173.45151 133.530066 173.45151"></polygon>
                            <polygon id="Path" fill="#4385FF" points="210.587673 145.598692 273.721656 145.598692 273.721656 173.45151 210.587673 173.45151"></polygon>
                        </g>
                    </g>
                </g>
                <polygon id="Path" fill="#333333" points="217.251982 62.9028047 245.1048 62.9028047 272.957619 62.9028047 303.595719 62.9028047 303.595719 90.7556229 272.957619 90.7556229 272.957619 347.001551 303.595719 347.001551 303.595719 374.854369 272.957619 374.854369 245.1048 374.854369 217.251982 374.854369 217.251982 347.001551 245.1048 347.001551 245.1048 90.7556229 217.251982 90.7556229"></polygon>
                <path d="M637.328187,219.903571 C637.328187,252.658485 626.88338,279.174368 605.993766,299.451219 C585.410534,319.41612 558.560417,329.39857 525.499122,329.39857 C493.384822,329.39857 467.481701,319.728071 447.817612,300.387074 C428.487756,281.046077 418.822828,254.842146 418.822828,221.77528 C418.822828,191.204027 428.014258,165.000095 446.424971,143.163486 C464.835684,121.014925 492.131445,109.940644 528.312256,109.940644 C564.799448,109.940644 592.09521,120.858949 610.199542,142.695558 C628.303874,164.532168 637.328187,190.268172 637.328187,219.903571 Z M585.410534,218.499788 C585.410534,196.039276 579.951381,178.88194 569.033077,167.02778 C558.421153,155.173621 544.522596,149.246541 527.36526,149.246541 C509.595162,149.246541 495.724459,155.641548 485.725297,168.431562 C475.753988,180.909625 470.768334,197.755009 470.768334,218.967716 C470.768334,238.932616 475.447607,255.778 484.806154,269.503869 C494.471082,283.229738 508.648167,290.092672 527.36526,290.092672 C545.469592,290.092672 559.67453,283.54169 569.95222,270.439724 C580.257762,257.025807 585.410534,239.712495 585.410534,218.499788 Z M893.100617,324.719296 L810.266335,324.719296 L810.266335,289.624745 C796.534896,315.828677 773.44491,328.930642 741.024229,328.930642 C721.053758,328.930642 703.729306,323.003563 689.078723,311.149403 C674.734522,298.983292 667.548495,279.798271 667.548495,253.594339 L667.548495,152.98996 L636.186221,152.98996 L636.186221,114.619918 L717.627862,114.619918 L717.627862,235.345173 C717.627862,255.310073 721.193023,269.503869 728.37905,277.926561 C735.565077,286.037302 745.703503,290.092672 758.794327,290.092672 C774.391905,290.092672 786.702851,284.63352 795.755017,273.715215 C805.113564,262.796911 809.959954,249.850921 810.266335,234.877246 L810.266335,152.98996 L772.832148,152.98996 L772.832148,114.619918 L860.345702,114.619918 L860.345702,286.349254 L893.100617,286.349254 L893.100617,324.719296 Z M1064.4233,262.952886 C1058.49065,307.250009 1033.86876,329.39857 990.501922,329.39857 C968.024698,329.39857 950.087483,323.47149 936.690277,311.61733 C923.5716,299.763171 917.026188,283.229738 917.026188,262.017032 L917.026188,151.586178 L886.137412,151.586178 L886.137412,114.619918 L917.026188,114.619918 L917.026188,49.5780165 L967.105555,49.5780165 L967.105555,114.619918 L1045.23271,114.619918 L1045.23271,151.586178 L967.105555,151.586178 L967.105555,254.062267 C967.105555,276.210828 976.770483,287.285108 996.100339,287.285108 C1001.42023,287.285108 1007.35288,285.413399 1013.89829,281.66998 C1020.4437,277.61461 1024.95586,267.476184 1027.46261,251.254703 L1064.4233,262.952886 Z M1179.39974,324.719296 L1067.09717,324.719296 L1067.09717,286.349254 L1098.43159,286.349254 L1098.43159,41.1553242 L1065.23103,41.1553242 L1065.23103,2.78528182 L1148.03746,2.78528182 L1148.03746,286.349254 L1179.39974,286.349254 L1179.39974,324.719296 Z M1227.75223,71.1026744 L1227.75223,15.8872475 L1278.75074,15.8872475 L1278.75074,71.1026744 L1227.75223,71.1026744 Z M1311.50565,324.719296 L1199.20309,324.719296 L1199.20309,286.349254 L1230.53751,286.349254 L1230.53751,153.457887 L1197.33695,153.457887 L1197.33695,114.619918 L1280.14338,114.619918 L1280.14338,286.349254 L1311.50565,286.349254 L1311.50565,324.719296 Z M1584.76965,324.719296 L1472.46709,324.719296 L1472.46709,286.349254 L1503.35586,286.349254 L1503.35586,203.994041 C1503.35586,184.029141 1499.76285,169.99132 1492.57682,161.88058 C1485.41865,153.457887 1475.41949,149.246541 1462.63504,149.246541 C1446.73108,149.246541 1434.08591,154.393742 1424.72736,164.688144 C1415.70305,174.982545 1411.02377,187.616584 1410.68954,202.590259 L1410.68954,286.349254 L1442.05181,286.349254 L1442.05181,324.719296 L1329.27575,324.719296 L1329.27575,286.349254 L1360.63802,286.349254 L1360.63802,153.457887 L1327.88311,153.457887 L1327.88311,114.619918 L1410.68954,114.619918 L1410.68954,148.778614 C1425.36797,123.198586 1448.59722,110.408571 1480.43299,110.408571 C1500.37561,110.408571 1517.53295,116.491627 1531.905,128.657738 C1546.2492,140.823849 1553.40738,159.852894 1553.40738,185.744874 L1553.40738,286.349254 L1584.76965,286.349254 L1584.76965,324.719296 Z M1796.70175,260.61325 C1794.83561,279.018392 1785.78344,295.083898 1769.5731,308.809766 C1753.33491,322.535635 1731.05265,329.39857 1702.64278,329.39857 C1672.08824,329.39857 1646.965,320.50795 1627.32876,302.726711 C1607.66467,284.63352 1597.83262,258.117637 1597.83262,223.179062 C1597.83262,191.048051 1606.71767,164.220216 1624.51562,142.695558 C1642.5921,121.1709 1667.71534,110.408571 1699.8575,110.408571 C1728.85228,110.408571 1751.77515,119.143215 1768.62611,136.612503 C1785.78344,153.769839 1794.52923,175.606448 1794.83561,202.122331 C1794.83561,210.856975 1793.88861,220.215522 1792.02247,230.197972 L1650.25163,230.197972 C1653.06476,269.503869 1671.78186,289.156818 1706.40291,289.156818 C1722.61325,289.156818 1734.17217,285.257423 1741.02396,277.458634 C1748.20999,269.659845 1752.88926,261.393129 1755.06178,252.658485 L1796.70175,260.61325 Z M1743.3636,199.314767 C1744.61698,186.836705 1741.63672,175.138521 1734.47855,164.220216 C1727.5989,152.98996 1715.90072,147.374832 1699.384,147.374832 C1684.39918,147.374832 1673.00738,152.366057 1665.20859,162.348507 C1657.4098,172.330957 1652.59126,184.653044 1650.72513,199.314767 L1743.3636,199.314767 Z" id="Shape" fill="#333333" fill-rule="nonzero"></path>
                <path d="M605.993766,299.451219 L607.915611,301.451052 L607.915611,301.451052 L605.993766,299.451219 Z M447.817612,300.387074 L445.867914,302.356268 L445.867914,302.37298 L447.817612,300.387074 Z M446.424971,143.163486 L448.541785,144.957207 L448.569638,144.943281 L446.424971,143.163486 Z M610.199542,142.695558 L612.344209,140.918549 L610.199542,142.695558 Z M569.033077,167.02778 L566.944115,168.885563 L566.971968,168.89949 L566.971968,168.913416 L569.033077,167.02778 Z M485.725297,168.431562 L487.897817,170.172364 L487.92567,170.144511 L485.725297,168.431562 Z M484.806154,269.503869 L482.49437,271.071983 L482.49437,271.09148 L482.522223,271.108192 L484.806154,269.503869 Z M569.95222,270.439724 L572.152592,272.161028 L572.180445,272.135961 L569.95222,270.439724 Z M634.542905,219.903571 C634.542905,252.009514 624.348774,277.7678 604.044069,297.451387 L607.915611,301.451052 C629.445839,280.580935 640.113469,253.307455 640.113469,219.903571 L634.542905,219.903571 Z M604.044069,297.451387 C584.073598,316.834163 557.975508,326.613288 525.499122,326.613288 L525.499122,332.183851 C559.173179,332.183851 586.747469,321.998076 607.915611,301.451052 L604.044069,297.451387 Z M525.499122,326.613288 C493.969731,326.613288 468.818637,317.146115 449.795162,298.401168 L445.867914,302.37298 C466.144766,322.310027 492.77206,332.183851 525.499122,332.183851 L525.499122,326.613288 Z M449.795162,298.41788 C431.078068,279.703571 421.60811,254.268378 421.60811,221.77528 L416.037546,221.77528 C416.037546,255.415914 425.897444,282.388583 445.867914,302.356268 L449.795162,298.41788 Z M421.60811,221.77528 C421.60811,191.811218 430.60457,166.256257 448.541785,144.957207 L444.308156,141.369764 C425.423946,163.743933 416.037546,190.596835 416.037546,221.77528 L421.60811,221.77528 Z M448.569638,144.943281 C466.311883,123.59131 492.716355,112.725926 528.312256,112.725926 L528.312256,107.155362 C491.518683,107.155362 463.359484,118.438539 444.280304,141.383691 L448.569638,144.943281 Z M528.312256,112.725926 C564.242392,112.725926 590.646863,123.449261 608.054875,144.472568 L612.344209,140.918549 C593.571409,118.268637 565.384357,107.155362 528.312256,107.155362 L528.312256,112.725926 Z M608.054875,144.472568 C625.713562,165.785545 634.542905,190.886504 634.542905,219.903571 L640.113469,219.903571 C640.113469,189.649839 630.866333,163.278791 612.344209,140.918549 L608.054875,144.472568 Z M588.195815,218.499788 C588.195815,195.615913 582.625252,177.681483 571.066332,165.142145 L566.971968,168.913416 C577.249658,180.082396 582.625252,196.462639 582.625252,218.499788 L588.195815,218.499788 Z M571.094185,165.169997 C559.925205,152.675223 545.24677,146.461259 527.36526,146.461259 L527.36526,152.031823 C543.798423,152.031823 556.917101,157.672019 566.944115,168.885563 L571.094185,165.169997 Z M527.36526,146.461259 C508.843136,146.461259 494.108995,153.179359 483.524925,166.718614 L487.92567,170.144511 C497.31207,158.103737 510.347189,152.031823 527.36526,152.031823 L527.36526,146.461259 Z M483.552777,166.690761 C473.052265,179.803868 467.983052,197.328861 467.983052,218.967716 L473.553616,218.967716 C473.553616,198.181158 478.427859,182.015382 487.897817,170.172364 L483.552777,166.690761 Z M467.983052,218.967716 C467.983052,239.378261 472.773737,256.797414 482.49437,271.071983 L487.090085,267.935756 C478.121478,254.758587 473.553616,238.486971 473.553616,218.967716 L467.983052,218.967716 Z M482.522223,271.108192 C492.77206,285.66686 507.868288,292.877954 527.36526,292.877954 L527.36526,287.307391 C509.455898,287.307391 496.142251,280.792616 487.062232,267.899547 L482.522223,271.108192 Z M527.36526,292.877954 C546.249471,292.877954 561.26214,285.998308 572.152592,272.161028 L567.7797,268.71842 C558.059066,281.085071 544.689713,287.307391 527.36526,287.307391 L527.36526,292.877954 Z M572.180445,272.135961 C582.931633,258.123208 588.195815,240.166496 588.195815,218.499788 L582.625252,218.499788 C582.625252,239.258494 577.583892,255.928406 567.751847,268.743487 L572.180445,272.135961 Z M893.100617,324.719296 L893.100617,327.504578 L895.885899,327.504578 L895.885899,324.719296 L893.100617,324.719296 Z M810.266335,324.719296 L807.481053,324.719296 L807.481053,327.504578 L810.266335,327.504578 L810.266335,324.719296 Z M810.266335,289.624745 L813.051617,289.624745 L807.787434,288.332374 L810.266335,289.624745 Z M689.078723,311.149403 L687.26829,313.274573 L687.296143,313.29407 L687.323996,313.316352 L689.078723,311.149403 Z M667.548495,152.98996 L670.333776,152.98996 L670.333776,150.204678 L667.548495,150.204678 L667.548495,152.98996 Z M636.186221,152.98996 L633.400939,152.98996 L633.400939,155.775242 L636.186221,155.775242 L636.186221,152.98996 Z M636.186221,114.619918 L636.186221,111.834636 L633.400939,111.834636 L633.400939,114.619918 L636.186221,114.619918 Z M717.627862,114.619918 L720.413144,114.619918 L720.413144,111.834636 L717.627862,111.834636 L717.627862,114.619918 Z M728.37905,277.926561 L726.262235,279.731424 L726.262235,279.753706 L726.290088,279.773203 L728.37905,277.926561 Z M795.755017,273.715215 L793.638203,271.901997 L793.638203,271.921494 L793.61035,271.938206 L795.755017,273.715215 Z M810.266335,234.877246 L813.051617,234.935737 L813.051617,234.905098 L813.051617,234.877246 L810.266335,234.877246 Z M810.266335,152.98996 L813.051617,152.98996 L813.051617,150.204678 L810.266335,150.204678 L810.266335,152.98996 Z M772.832148,152.98996 L770.046866,152.98996 L770.046866,155.775242 L772.832148,155.775242 L772.832148,152.98996 Z M772.832148,114.619918 L772.832148,111.834636 L770.046866,111.834636 L770.046866,114.619918 L772.832148,114.619918 Z M860.345702,114.619918 L863.130984,114.619918 L863.130984,111.834636 L860.345702,111.834636 L860.345702,114.619918 Z M860.345702,286.349254 L857.560421,286.349254 L857.560421,289.134536 L860.345702,289.134536 L860.345702,286.349254 Z M893.100617,286.349254 L895.885899,286.349254 L895.885899,283.563972 L893.100617,283.563972 L893.100617,286.349254 Z M893.100617,321.934014 L810.266335,321.934014 L810.266335,327.504578 L893.100617,327.504578 L893.100617,321.934014 Z M813.051617,324.719296 L813.051617,289.624745 L807.481053,289.624745 L807.481053,324.719296 L813.051617,324.719296 Z M807.787434,288.332374 C801.158464,301.016548 792.301268,310.42523 781.271551,316.680973 C770.241835,322.947857 756.84463,326.14536 741.024229,326.14536 L741.024229,331.715924 C757.596656,331.715924 771.996563,328.362445 784.02898,321.527363 C796.089251,314.68114 805.642767,304.436874 812.745236,290.917116 L807.787434,288.332374 Z M741.024229,326.14536 C721.638668,326.14536 704.95483,320.41325 690.833451,308.982454 L687.323996,313.316352 C702.503782,325.593875 720.440996,331.715924 741.024229,331.715924 L741.024229,326.14536 Z M690.861303,309.024233 C677.352687,297.571154 670.333776,279.316417 670.333776,253.594339 L664.763213,253.594339 C664.763213,280.280125 672.088504,300.39543 687.26829,313.274573 L690.861303,309.024233 Z M670.333776,253.594339 L670.333776,152.98996 L664.763213,152.98996 L664.763213,253.594339 L670.333776,253.594339 Z M667.548495,150.204678 L636.186221,150.204678 L636.186221,155.775242 L667.548495,155.775242 L667.548495,150.204678 Z M638.971503,152.98996 L638.971503,114.619918 L633.400939,114.619918 L633.400939,152.98996 L638.971503,152.98996 Z M636.186221,117.405199 L717.627862,117.405199 L717.627862,111.834636 L636.186221,111.834636 L636.186221,117.405199 Z M714.84258,114.619918 L714.84258,235.345173 L720.413144,235.345173 L720.413144,114.619918 L714.84258,114.619918 Z M714.84258,235.345173 C714.84258,255.496687 718.407741,270.534424 726.262235,279.731424 L730.495864,276.121699 C723.978304,268.473315 720.413144,255.123459 720.413144,235.345173 L714.84258,235.345173 Z M726.290088,279.773203 C734.11673,288.605332 745.062888,292.877954 758.794327,292.877954 L758.794327,287.307391 C746.316265,287.307391 736.98557,283.469272 730.468011,276.07992 L726.290088,279.773203 Z M758.794327,292.877954 C775.116079,292.877954 788.262609,287.117991 797.899684,275.492225 L793.61035,271.938206 C785.143093,282.149049 773.667732,287.307391 758.794327,287.307391 L758.794327,292.877954 Z M797.871831,275.528434 C807.676023,264.097637 812.717383,250.524959 813.051617,234.935737 L807.481053,234.818755 C807.174672,249.176882 802.551105,261.496184 793.638203,271.901997 L797.871831,275.528434 Z M813.051617,234.877246 L813.051617,152.98996 L807.481053,152.98996 L807.481053,234.877246 L813.051617,234.877246 Z M810.266335,150.204678 L772.832148,150.204678 L772.832148,155.775242 L810.266335,155.775242 L810.266335,150.204678 Z M775.617429,152.98996 L775.617429,114.619918 L770.046866,114.619918 L770.046866,152.98996 L775.617429,152.98996 Z M772.832148,117.405199 L860.345702,117.405199 L860.345702,111.834636 L772.832148,111.834636 L772.832148,117.405199 Z M857.560421,114.619918 L857.560421,286.349254 L863.130984,286.349254 L863.130984,114.619918 L857.560421,114.619918 Z M860.345702,289.134536 L893.100617,289.134536 L893.100617,283.563972 L860.345702,283.563972 L860.345702,289.134536 Z M890.315335,286.349254 L890.315335,324.719296 L895.885899,324.719296 L895.885899,286.349254 L890.315335,286.349254 Z M1064.4233,262.952886 L1067.18073,263.323329 L1067.48711,261.003189 L1065.25889,260.298513 L1064.4233,262.952886 Z M936.690277,311.61733 L934.824138,313.68401 L934.851991,313.703506 L936.690277,311.61733 Z M917.026188,151.586178 L919.811469,151.586178 L919.811469,148.800896 L917.026188,148.800896 L917.026188,151.586178 Z M886.137412,151.586178 L883.35213,151.586178 L883.35213,154.37146 L886.137412,154.37146 L886.137412,151.586178 Z M886.137412,114.619918 L886.137412,111.834636 L883.35213,111.834636 L883.35213,114.619918 L886.137412,114.619918 Z M917.026188,114.619918 L917.026188,117.405199 L919.811469,117.405199 L919.811469,114.619918 L917.026188,114.619918 Z M917.026188,49.5780165 L917.026188,46.7927346 L914.240906,46.7927346 L914.240906,49.5780165 L917.026188,49.5780165 Z M967.105555,49.5780165 L969.890837,49.5780165 L969.890837,46.7927346 L967.105555,46.7927346 L967.105555,49.5780165 Z M967.105555,114.619918 L964.320273,114.619918 L964.320273,117.405199 L967.105555,117.405199 L967.105555,114.619918 Z M1045.23271,114.619918 L1048.01799,114.619918 L1048.01799,111.834636 L1045.23271,111.834636 L1045.23271,114.619918 Z M1045.23271,151.586178 L1045.23271,154.37146 L1048.01799,154.37146 L1048.01799,151.586178 L1045.23271,151.586178 Z M967.105555,151.586178 L967.105555,148.800896 L964.320273,148.800896 L964.320273,151.586178 L967.105555,151.586178 Z M1013.89829,281.66998 L1015.26308,284.087605 L1015.31878,284.065323 L1015.34664,284.03747 L1013.89829,281.66998 Z M1027.46261,251.254703 L1028.2982,248.600329 L1025.20653,247.617125 L1024.70518,250.83134 L1027.46261,251.254703 Z M1061.66587,262.582444 C1058.76918,284.304857 1051.33248,300.217172 1039.63429,310.714899 C1027.96396,321.20427 1011.69792,326.613288 990.501922,326.613288 L990.501922,332.183851 C1012.64491,332.183851 1030.38716,326.518588 1043.36657,314.859398 C1056.31813,303.208565 1064.17263,285.898038 1067.18073,263.323329 L1061.66587,262.582444 Z M990.501922,326.613288 C968.526048,326.613288 951.313007,320.828257 938.528563,309.531154 L934.851991,313.703506 C948.889812,326.114722 967.523347,332.183851 990.501922,332.183851 L990.501922,326.613288 Z M938.556416,309.550651 C926.161912,298.331536 919.811469,282.614191 919.811469,262.017032 L914.240906,262.017032 C914.240906,283.845285 921.009141,301.194806 934.824138,313.68401 L938.556416,309.550651 Z M919.811469,262.017032 L919.811469,151.586178 L914.240906,151.586178 L914.240906,262.017032 L919.811469,262.017032 Z M917.026188,148.800896 L886.137412,148.800896 L886.137412,154.37146 L917.026188,154.37146 L917.026188,148.800896 Z M888.922694,151.586178 L888.922694,114.619918 L883.35213,114.619918 L883.35213,151.586178 L888.922694,151.586178 Z M886.137412,117.405199 L917.026188,117.405199 L917.026188,111.834636 L886.137412,111.834636 L886.137412,117.405199 Z M919.811469,114.619918 L919.811469,49.5780165 L914.240906,49.5780165 L914.240906,114.619918 L919.811469,114.619918 Z M917.026188,52.3632983 L967.105555,52.3632983 L967.105555,46.7927346 L917.026188,46.7927346 L917.026188,52.3632983 Z M964.320273,49.5780165 L964.320273,114.619918 L969.890837,114.619918 L969.890837,49.5780165 L964.320273,49.5780165 Z M967.105555,117.405199 L1045.23271,117.405199 L1045.23271,111.834636 L967.105555,111.834636 L967.105555,117.405199 Z M1042.44743,114.619918 L1042.44743,151.586178 L1048.01799,151.586178 L1048.01799,114.619918 L1042.44743,114.619918 Z M1045.23271,148.800896 L967.105555,148.800896 L967.105555,154.37146 L1045.23271,154.37146 L1045.23271,148.800896 Z M964.320273,151.586178 L964.320273,254.062267 L969.890837,254.062267 L969.890837,151.586178 L964.320273,151.586178 Z M964.320273,254.062267 C964.320273,265.479137 966.799174,274.564726 972.258326,280.812113 C977.773184,287.131918 985.906207,290.07039 996.100339,290.07039 L996.100339,284.499827 C986.964614,284.499827 980.614172,281.901159 976.464102,277.146683 C972.230473,272.319789 969.890837,264.793958 969.890837,254.062267 L964.320273,254.062267 Z M996.100339,290.07039 C1002.06084,290.07039 1008.46699,287.975858 1015.26308,284.087605 L1012.50565,279.252356 C1006.21091,282.85094 1000.77961,284.499827 996.100339,284.499827 L996.100339,290.07039 Z M1015.34664,284.03747 C1019.27388,281.614275 1022.33769,277.522696 1024.73304,272.158243 C1027.12838,266.782649 1028.93881,259.92807 1030.22004,251.678066 L1024.70518,250.83134 C1023.47966,258.802816 1021.78064,265.128191 1019.66382,269.891023 C1017.51916,274.664996 1015.06811,277.670316 1012.42209,279.302491 L1015.34664,284.03747 Z M1026.62703,253.909076 L1063.58772,265.60726 L1065.25889,260.298513 L1028.2982,248.600329 L1026.62703,253.909076 Z M1179.39974,324.719296 L1179.39974,327.504578 L1182.18502,327.504578 L1182.18502,324.719296 L1179.39974,324.719296 Z M1067.09717,324.719296 L1064.31189,324.719296 L1064.31189,327.504578 L1067.09717,327.504578 L1067.09717,324.719296 Z M1067.09717,286.349254 L1067.09717,283.563972 L1064.31189,283.563972 L1064.31189,286.349254 L1067.09717,286.349254 Z M1098.43159,286.349254 L1098.43159,289.134536 L1101.21687,289.134536 L1101.21687,286.349254 L1098.43159,286.349254 Z M1098.43159,41.1553242 L1101.21687,41.1553242 L1101.21687,38.3700424 L1098.43159,38.3700424 L1098.43159,41.1553242 Z M1065.23103,41.1553242 L1062.44575,41.1553242 L1062.44575,43.940606 L1065.23103,43.940606 L1065.23103,41.1553242 Z M1065.23103,2.78528182 L1065.23103,4.47021061e-13 L1062.44575,4.47021061e-13 L1062.44575,2.78528182 L1065.23103,2.78528182 Z M1148.03746,2.78528182 L1150.82274,2.78528182 L1150.82274,4.47021061e-13 L1148.03746,4.47021061e-13 L1148.03746,2.78528182 Z M1148.03746,286.349254 L1145.25218,286.349254 L1145.25218,289.134536 L1148.03746,289.134536 L1148.03746,286.349254 Z M1179.39974,286.349254 L1182.18502,286.349254 L1182.18502,283.563972 L1179.39974,283.563972 L1179.39974,286.349254 Z M1179.39974,321.934014 L1067.09717,321.934014 L1067.09717,327.504578 L1179.39974,327.504578 L1179.39974,321.934014 Z M1069.88245,324.719296 L1069.88245,286.349254 L1064.31189,286.349254 L1064.31189,324.719296 L1069.88245,324.719296 Z M1067.09717,289.134536 L1098.43159,289.134536 L1098.43159,283.563972 L1067.09717,283.563972 L1067.09717,289.134536 Z M1101.21687,286.349254 L1101.21687,41.1553242 L1095.64631,41.1553242 L1095.64631,286.349254 L1101.21687,286.349254 Z M1098.43159,38.3700424 L1065.23103,38.3700424 L1065.23103,43.940606 L1098.43159,43.940606 L1098.43159,38.3700424 Z M1068.01632,41.1553242 L1068.01632,2.78528182 L1062.44575,2.78528182 L1062.44575,41.1553242 L1068.01632,41.1553242 Z M1065.23103,5.57056365 L1148.03746,5.57056365 L1148.03746,4.47021061e-13 L1065.23103,4.47021061e-13 L1065.23103,5.57056365 Z M1145.25218,2.78528182 L1145.25218,286.349254 L1150.82274,286.349254 L1150.82274,2.78528182 L1145.25218,2.78528182 Z M1148.03746,289.134536 L1179.39974,289.134536 L1179.39974,283.563972 L1148.03746,283.563972 L1148.03746,289.134536 Z M1176.61445,286.349254 L1176.61445,324.719296 L1182.18502,324.719296 L1182.18502,286.349254 L1176.61445,286.349254 Z M1227.75223,71.1026744 L1224.96695,71.1026744 L1224.96695,73.8879562 L1227.75223,73.8879562 L1227.75223,71.1026744 Z M1227.75223,15.8872475 L1227.75223,13.1019657 L1224.96695,13.1019657 L1224.96695,15.8872475 L1227.75223,15.8872475 Z M1278.75074,15.8872475 L1281.53602,15.8872475 L1281.53602,13.1019657 L1278.75074,13.1019657 L1278.75074,15.8872475 Z M1278.75074,71.1026744 L1278.75074,73.8879562 L1281.53602,73.8879562 L1281.53602,71.1026744 L1278.75074,71.1026744 Z M1311.50565,324.719296 L1311.50565,327.504578 L1314.29093,327.504578 L1314.29093,324.719296 L1311.50565,324.719296 Z M1199.20309,324.719296 L1196.41781,324.719296 L1196.41781,327.504578 L1199.20309,327.504578 L1199.20309,324.719296 Z M1199.20309,286.349254 L1199.20309,283.563972 L1196.41781,283.563972 L1196.41781,286.349254 L1199.20309,286.349254 Z M1230.53751,286.349254 L1230.53751,289.134536 L1233.32279,289.134536 L1233.32279,286.349254 L1230.53751,286.349254 Z M1230.53751,153.457887 L1233.32279,153.457887 L1233.32279,150.672606 L1230.53751,150.672606 L1230.53751,153.457887 Z M1197.33695,153.457887 L1194.55167,153.457887 L1194.55167,156.243169 L1197.33695,156.243169 L1197.33695,153.457887 Z M1197.33695,114.619918 L1197.33695,111.834636 L1194.55167,111.834636 L1194.55167,114.619918 L1197.33695,114.619918 Z M1280.14338,114.619918 L1282.92866,114.619918 L1282.92866,111.834636 L1280.14338,111.834636 L1280.14338,114.619918 Z M1280.14338,286.349254 L1277.3581,286.349254 L1277.3581,289.134536 L1280.14338,289.134536 L1280.14338,286.349254 Z M1311.50565,286.349254 L1314.29093,286.349254 L1314.29093,283.563972 L1311.50565,283.563972 L1311.50565,286.349254 Z M1230.53751,71.1026744 L1230.53751,15.8872475 L1224.96695,15.8872475 L1224.96695,71.1026744 L1230.53751,71.1026744 Z M1227.75223,18.6725293 L1278.75074,18.6725293 L1278.75074,13.1019657 L1227.75223,13.1019657 L1227.75223,18.6725293 Z M1275.96546,15.8872475 L1275.96546,71.1026744 L1281.53602,71.1026744 L1281.53602,15.8872475 L1275.96546,15.8872475 Z M1278.75074,68.3173926 L1227.75223,68.3173926 L1227.75223,73.8879562 L1278.75074,73.8879562 L1278.75074,68.3173926 Z M1311.50565,321.934014 L1199.20309,321.934014 L1199.20309,327.504578 L1311.50565,327.504578 L1311.50565,321.934014 Z M1201.98837,324.719296 L1201.98837,286.349254 L1196.41781,286.349254 L1196.41781,324.719296 L1201.98837,324.719296 Z M1199.20309,289.134536 L1230.53751,289.134536 L1230.53751,283.563972 L1199.20309,283.563972 L1199.20309,289.134536 Z M1233.32279,286.349254 L1233.32279,153.457887 L1227.75223,153.457887 L1227.75223,286.349254 L1233.32279,286.349254 Z M1230.53751,150.672606 L1197.33695,150.672606 L1197.33695,156.243169 L1230.53751,156.243169 L1230.53751,150.672606 Z M1200.12223,153.457887 L1200.12223,114.619918 L1194.55167,114.619918 L1194.55167,153.457887 L1200.12223,153.457887 Z M1197.33695,117.405199 L1280.14338,117.405199 L1280.14338,111.834636 L1197.33695,111.834636 L1197.33695,117.405199 Z M1277.3581,114.619918 L1277.3581,286.349254 L1282.92866,286.349254 L1282.92866,114.619918 L1277.3581,114.619918 Z M1280.14338,289.134536 L1311.50565,289.134536 L1311.50565,283.563972 L1280.14338,283.563972 L1280.14338,289.134536 Z M1308.72037,286.349254 L1308.72037,324.719296 L1314.29093,324.719296 L1314.29093,286.349254 L1308.72037,286.349254 Z M1584.76965,324.719296 L1584.76965,327.504578 L1587.55493,327.504578 L1587.55493,324.719296 L1584.76965,324.719296 Z M1472.46709,324.719296 L1469.68181,324.719296 L1469.68181,327.504578 L1472.46709,327.504578 L1472.46709,324.719296 Z M1472.46709,286.349254 L1472.46709,283.563972 L1469.68181,283.563972 L1469.68181,286.349254 L1472.46709,286.349254 Z M1503.35586,286.349254 L1503.35586,289.134536 L1506.14115,289.134536 L1506.14115,286.349254 L1503.35586,286.349254 Z M1492.57682,161.88058 L1490.46001,163.685442 L1490.48786,163.707724 L1490.48786,163.727221 L1492.57682,161.88058 Z M1424.72736,164.688144 L1422.66625,162.813649 L1422.66625,162.833146 L1422.6384,162.849858 L1424.72736,164.688144 Z M1410.68954,202.590259 L1407.90426,202.531768 L1407.90426,202.562406 L1407.90426,202.590259 L1410.68954,202.590259 Z M1410.68954,286.349254 L1407.90426,286.349254 L1407.90426,289.134536 L1410.68954,289.134536 L1410.68954,286.349254 Z M1442.05181,286.349254 L1444.83709,286.349254 L1444.83709,283.563972 L1442.05181,283.563972 L1442.05181,286.349254 Z M1442.05181,324.719296 L1442.05181,327.504578 L1444.83709,327.504578 L1444.83709,324.719296 L1442.05181,324.719296 Z M1329.27575,324.719296 L1326.49047,324.719296 L1326.49047,327.504578 L1329.27575,327.504578 L1329.27575,324.719296 Z M1329.27575,286.349254 L1329.27575,283.563972 L1326.49047,283.563972 L1326.49047,286.349254 L1329.27575,286.349254 Z M1360.63802,286.349254 L1360.63802,289.134536 L1363.42331,289.134536 L1363.42331,286.349254 L1360.63802,286.349254 Z M1360.63802,153.457887 L1363.42331,153.457887 L1363.42331,150.672606 L1360.63802,150.672606 L1360.63802,153.457887 Z M1327.88311,153.457887 L1325.09783,153.457887 L1325.09783,156.243169 L1327.88311,156.243169 L1327.88311,153.457887 Z M1327.88311,114.619918 L1327.88311,111.834636 L1325.09783,111.834636 L1325.09783,114.619918 L1327.88311,114.619918 Z M1410.68954,114.619918 L1413.47482,114.619918 L1413.47482,111.834636 L1410.68954,111.834636 L1410.68954,114.619918 Z M1410.68954,148.778614 L1407.90426,148.778614 L1407.90426,159.240132 L1413.11273,150.162899 L1410.68954,148.778614 Z M1553.40738,286.349254 L1550.6221,286.349254 L1550.6221,289.134536 L1553.40738,289.134536 L1553.40738,286.349254 Z M1584.76965,286.349254 L1587.55493,286.349254 L1587.55493,283.563972 L1584.76965,283.563972 L1584.76965,286.349254 Z M1584.76965,321.934014 L1472.46709,321.934014 L1472.46709,327.504578 L1584.76965,327.504578 L1584.76965,321.934014 Z M1475.25237,324.719296 L1475.25237,286.349254 L1469.68181,286.349254 L1469.68181,324.719296 L1475.25237,324.719296 Z M1472.46709,289.134536 L1503.35586,289.134536 L1503.35586,283.563972 L1472.46709,283.563972 L1472.46709,289.134536 Z M1506.14115,286.349254 L1506.14115,203.994041 L1500.57058,203.994041 L1500.57058,286.349254 L1506.14115,286.349254 Z M1506.14115,203.994041 C1506.14115,183.859238 1502.54813,168.938484 1494.66578,160.033938 L1490.48786,163.727221 C1496.97757,171.044157 1500.57058,184.199043 1500.57058,203.994041 L1506.14115,203.994041 Z M1494.69364,160.075717 C1486.9227,150.931637 1476.11581,146.461259 1462.63504,146.461259 L1462.63504,152.031823 C1474.75102,152.031823 1483.9146,155.984138 1490.46001,163.685442 L1494.69364,160.075717 Z M1462.63504,146.461259 C1446.06262,146.461259 1432.63756,151.853565 1422.66625,162.813649 L1426.78847,166.562638 C1435.5621,156.933919 1447.39955,152.031823 1462.63504,152.031823 L1462.63504,146.461259 Z M1422.6384,162.849858 C1413.11273,173.684604 1408.23849,186.967613 1407.90426,202.531768 L1413.47482,202.64875 C1413.7812,188.265554 1418.2655,176.280487 1426.81632,166.52643 L1422.6384,162.849858 Z M1407.90426,202.590259 L1407.90426,286.349254 L1413.47482,286.349254 L1413.47482,202.590259 L1407.90426,202.590259 Z M1410.68954,289.134536 L1442.05181,289.134536 L1442.05181,283.563972 L1410.68954,283.563972 L1410.68954,289.134536 Z M1439.26653,286.349254 L1439.26653,324.719296 L1444.83709,324.719296 L1444.83709,286.349254 L1439.26653,286.349254 Z M1442.05181,321.934014 L1329.27575,321.934014 L1329.27575,327.504578 L1442.05181,327.504578 L1442.05181,321.934014 Z M1332.06103,324.719296 L1332.06103,286.349254 L1326.49047,286.349254 L1326.49047,324.719296 L1332.06103,324.719296 Z M1329.27575,289.134536 L1360.63802,289.134536 L1360.63802,283.563972 L1329.27575,283.563972 L1329.27575,289.134536 Z M1363.42331,286.349254 L1363.42331,153.457887 L1357.85274,153.457887 L1357.85274,286.349254 L1363.42331,286.349254 Z M1360.63802,150.672606 L1327.88311,150.672606 L1327.88311,156.243169 L1360.63802,156.243169 L1360.63802,150.672606 Z M1330.66839,153.457887 L1330.66839,114.619918 L1325.09783,114.619918 L1325.09783,153.457887 L1330.66839,153.457887 Z M1327.88311,117.405199 L1410.68954,117.405199 L1410.68954,111.834636 L1327.88311,111.834636 L1327.88311,117.405199 Z M1407.90426,114.619918 L1407.90426,148.778614 L1413.47482,148.778614 L1413.47482,114.619918 L1407.90426,114.619918 Z M1413.11273,150.162899 C1427.23411,125.529867 1449.51637,113.193853 1480.43299,113.193853 L1480.43299,107.62329 C1447.70593,107.62329 1423.47398,120.867305 1408.2942,147.394329 L1413.11273,150.162899 Z M1480.43299,113.193853 C1499.76285,113.193853 1516.27957,119.070798 1530.09457,130.782908 L1533.68758,126.532568 C1518.81418,113.912456 1500.98837,107.62329 1480.43299,107.62329 L1480.43299,113.193853 Z M1530.09457,130.782908 C1543.60319,142.241557 1550.6221,160.348675 1550.6221,185.744874 L1556.19266,185.744874 C1556.19266,159.357114 1548.86737,139.406141 1533.68758,126.532568 L1530.09457,130.782908 Z M1550.6221,185.744874 L1550.6221,286.349254 L1556.19266,286.349254 L1556.19266,185.744874 L1550.6221,185.744874 Z M1553.40738,289.134536 L1584.76965,289.134536 L1584.76965,283.563972 L1553.40738,283.563972 L1553.40738,289.134536 Z M1581.98437,286.349254 L1581.98437,324.719296 L1587.55493,324.719296 L1587.55493,286.349254 L1581.98437,286.349254 Z M1796.70175,260.61325 L1799.48703,260.894563 L1799.7377,258.357171 L1797.23095,257.878103 L1796.70175,260.61325 Z M1769.5731,308.809766 L1771.35568,310.934936 L1769.5731,308.809766 Z M1627.32876,302.726711 L1625.43477,304.776678 L1625.46262,304.79339 L1627.32876,302.726711 Z M1624.51562,142.695558 L1622.37096,140.904622 L1622.37096,140.921334 L1624.51562,142.695558 Z M1768.62611,136.612503 L1766.6207,138.545488 L1766.64856,138.564985 L1766.67641,138.581697 L1768.62611,136.612503 Z M1794.83561,202.122331 L1797.62089,202.122331 L1797.62089,202.088908 L1794.83561,202.122331 Z M1792.02247,230.197972 L1792.02247,232.983254 L1794.33426,232.983254 L1794.7799,230.710464 L1792.02247,230.197972 Z M1650.25163,230.197972 L1650.25163,227.41269 L1647.24352,227.41269 L1647.46635,230.395727 L1650.25163,230.197972 Z M1741.02396,277.458634 L1738.96285,275.572998 L1738.96285,275.595281 L1738.935,275.617563 L1741.02396,277.458634 Z M1755.06178,252.658485 L1755.59099,249.923338 L1753.00067,249.427558 L1752.36006,251.981661 L1755.06178,252.658485 Z M1743.3636,199.314767 L1743.3636,202.100049 L1745.89821,202.100049 L1746.14888,199.593295 L1743.3636,199.314767 Z M1734.47855,164.220216 L1732.11106,165.671348 L1732.11106,165.710342 L1732.13891,165.749336 L1734.47855,164.220216 Z M1665.20859,162.348507 L1667.40896,164.064241 L1665.20859,162.348507 Z M1650.72513,199.314767 L1647.93984,198.961036 L1647.5499,202.100049 L1650.72513,202.100049 L1650.72513,199.314767 Z M1793.94432,260.331936 C1792.16174,277.912635 1783.52736,293.348667 1767.76267,306.684596 L1771.35568,310.934936 C1788.03952,296.819128 1797.53733,280.124149 1799.48703,260.894563 L1793.94432,260.331936 Z M1767.76267,306.684596 C1752.19294,319.858979 1730.60701,326.613288 1702.64278,326.613288 L1702.64278,332.183851 C1731.47045,332.183851 1754.50473,325.212291 1771.35568,310.934936 L1767.76267,306.684596 Z M1702.64278,326.613288 C1672.67315,326.613288 1648.24622,317.909282 1629.1949,300.660032 L1625.46262,304.79339 C1645.68377,323.106618 1671.50333,332.183851 1702.64278,332.183851 L1702.64278,326.613288 Z M1629.1949,300.676743 C1610.28283,283.260376 1600.61791,257.591219 1600.61791,223.179062 L1595.04734,223.179062 C1595.04734,258.644055 1605.0465,286.006664 1625.43477,304.776678 L1629.1949,300.676743 Z M1600.61791,223.179062 C1600.61791,191.591181 1609.36369,165.420673 1626.66029,144.469783 L1622.37096,140.921334 C1604.09951,163.01976 1595.04734,190.504921 1595.04734,223.179062 L1600.61791,223.179062 Z M1626.63244,144.486495 C1644.12401,123.68601 1668.41167,113.193853 1699.8575,113.193853 L1699.8575,107.62329 C1667.01902,107.62329 1641.08805,118.655791 1622.37096,140.904622 L1626.63244,144.486495 Z M1699.8575,113.193853 C1728.26737,113.193853 1750.41036,121.725172 1766.6207,138.545488 L1770.63151,134.679517 C1753.16779,116.561259 1729.46504,107.62329 1699.8575,107.62329 L1699.8575,113.193853 Z M1766.67641,138.581697 C1783.24883,155.173621 1791.74394,176.291628 1792.05033,202.155755 L1797.62089,202.088908 C1797.31451,174.921269 1788.31805,152.366057 1770.60366,134.643309 L1766.67641,138.581697 Z M1792.05033,202.122331 C1792.05033,210.65922 1791.13118,219.84508 1789.2929,229.68548 L1794.7799,230.710464 C1796.67389,220.585965 1797.62089,211.05473 1797.62089,202.122331 L1792.05033,202.122331 Z M1792.02247,227.41269 L1650.25163,227.41269 L1650.25163,232.983254 L1792.02247,232.983254 L1792.02247,227.41269 Z M1647.46635,230.395727 C1648.88684,250.410762 1654.4017,265.871862 1664.37301,276.338951 C1674.40002,286.85896 1688.54925,291.9421 1706.40291,291.9421 L1706.40291,286.371536 C1689.63551,286.371536 1677.10174,281.628201 1668.41167,272.495262 C1659.66588,263.309402 1654.4017,249.291079 1653.03691,230.000217 L1647.46635,230.395727 Z M1706.40291,291.9421 C1722.97534,291.9421 1735.48125,287.967502 1743.11292,279.299705 L1738.935,275.617563 C1732.83523,282.547344 1722.27902,286.371536 1706.40291,286.371536 L1706.40291,291.9421 Z M1743.08507,279.34427 C1750.52177,271.264167 1755.45172,262.593585 1757.76351,253.335308 L1752.36006,251.981661 C1750.29895,260.192672 1745.89821,268.055523 1738.96285,275.572998 L1743.08507,279.34427 Z M1754.53258,255.393632 L1796.2004,263.348396 L1797.23095,257.878103 L1755.59099,249.923338 L1754.53258,255.393632 Z M1746.14888,199.593295 C1747.45796,186.449551 1744.31059,174.119108 1736.79033,162.691097 L1732.13891,165.749336 C1738.99071,176.157934 1741.77599,187.223859 1740.60617,199.036239 L1746.14888,199.593295 Z M1736.84604,162.769084 C1729.35363,150.491562 1716.59704,144.58955 1699.384,144.58955 L1699.384,150.160114 C1715.23225,150.160114 1725.87203,155.488358 1732.11106,165.671348 L1736.84604,162.769084 Z M1699.384,144.58955 C1683.73072,144.58955 1671.44762,149.848162 1663.03607,160.632773 L1667.40896,164.064241 C1674.59499,154.883952 1685.0955,150.160114 1699.384,150.160114 L1699.384,144.58955 Z M1663.03607,160.632773 C1654.8752,171.07201 1649.88954,183.887091 1647.93984,198.961036 L1653.48255,199.668498 C1655.29299,185.418996 1659.97226,173.589904 1667.40896,164.064241 L1663.03607,160.632773 Z M1650.72513,202.100049 L1743.3636,202.100049 L1743.3636,196.529485 L1650.72513,196.529485 L1650.72513,202.100049 Z" id="Shape" fill="#333333" fill-rule="nonzero"></path>
                <rect id="Rectangle" fill="#4385FF" fill-rule="nonzero" x="1222.73872" y="12.7677319" width="61.2762001" height="61.2762001"></rect>
            </g>
        </g>
    </g>
</svg>