<svg width="162" height="158" viewBox="0 0 162 158" fill="none" xmlns="http://www.w3.org/2000/svg">
<path fill-rule="evenodd" clip-rule="evenodd" d="M80.8093 0.400989C36.3475 0.677751 0.517869 36.9481 0.794681 81.418C1.01611 116.991 24.2742 147.028 56.3319 157.475C60.3604 158.195 61.8222 155.694 61.809 153.568C61.797 151.649 61.6829 145.306 61.6063 138.578C39.2371 143.588 34.4211 129.247 34.4211 129.247C30.7005 119.965 25.4079 117.521 25.4079 117.521C18.0716 112.57 25.9281 112.623 25.9281 112.623C34.0168 113.141 38.3222 120.845 38.3222 120.845C45.58 133.108 57.2123 129.477 61.794 127.391C62.4856 122.184 64.5488 118.618 66.8389 116.593C48.9426 114.67 30.1 107.881 29.9079 77.03C29.8532 68.2408 32.9538 61.0387 38.0693 55.3681C37.2206 53.344 34.4137 45.172 38.7179 34.0543C38.7179 34.0543 45.4657 31.8496 60.9156 42.171C67.327 40.347 74.2093 39.4095 81.0516 39.3349C87.8944 39.3243 94.7931 40.1761 101.239 41.92C116.542 31.4072 123.307 33.5278 123.307 33.5278C127.759 44.5909 125.054 52.7973 124.23 54.8318C129.428 60.4382 132.595 67.6013 132.65 76.3904C132.842 107.317 114.049 114.242 96.1326 116.347C99.0361 118.827 101.64 123.711 101.687 131.223C101.754 141.996 101.716 150.667 101.732 153.319C101.746 155.463 103.209 157.965 107.285 157.149C139.195 146.291 162.048 115.978 161.826 80.4156C161.549 35.9458 125.276 0.124194 80.8093 0.400989Z" fill="white"/>
</svg>
