<svg width="597" height="131" viewBox="0 0 597 131" fill="none" xmlns="http://www.w3.org/2000/svg">
<path d="M189.512 115.984H149.192V102.208H160.448V14.176H148.52V0.399994H178.256V102.208H189.512V115.984Z" fill="#050505"/>
<path d="M265.334 92.968C264.662 99.576 261.414 105.344 255.59 110.272C249.766 115.2 241.758 117.664 231.566 117.664C220.59 117.664 211.574 114.472 204.518 108.088C197.462 101.592 193.934 92.072 193.934 79.528C193.934 67.992 197.126 58.36 203.51 50.632C210.006 42.904 219.022 39.04 230.558 39.04C240.974 39.04 249.206 42.176 255.254 48.448C261.414 54.608 264.55 62.448 264.662 71.968C264.662 75.104 264.326 78.464 263.654 82.048H212.75C213.758 96.16 220.478 103.216 232.91 103.216C238.734 103.216 242.878 101.816 245.342 99.016C247.918 96.216 249.598 93.248 250.382 90.112L265.334 92.968ZM246.182 70.96C246.63 66.48 245.566 62.28 242.99 58.36C240.526 54.328 236.326 52.312 230.39 52.312C225.014 52.312 220.926 54.104 218.126 57.688C215.326 61.272 213.59 65.696 212.918 70.96H246.182Z" fill="#050505"/>
<path d="M352.448 115.984H316.328V102.208H323.552L309.944 86.752L296.504 102.208H302.888V115.984H269.12V102.208H279.536L301.376 78.688L278.192 54.328H269.624V40.552H306.416V54.328H299.36L311.96 69.448L325.4 54.328H318.848V40.552H350.6V54.328H342.704L321.032 77.008L344.384 102.208H352.448V115.984Z" fill="#050505"/>
<path d="M397.526 115.984H357.206V102.208H368.462V54.496H356.534V40.552H386.27V102.208H397.526V115.984Z" fill="#050505"/>
<path d="M472.117 88.936C471.333 95.656 468.365 102.152 463.213 108.424C458.061 114.584 449.773 117.664 438.349 117.664C427.597 117.664 418.805 114.416 411.973 107.92C405.253 101.424 401.893 91.96 401.893 79.528C401.893 67.32 405.365 57.52 412.309 50.128C419.365 42.736 428.549 39.04 439.861 39.04C444.341 39.04 448.821 39.6 453.301 40.72C457.781 41.84 462.205 43.688 466.573 46.264L469.597 67.432L455.149 68.944L452.629 56.512C448.485 54.496 444.117 53.488 439.525 53.488C426.981 53.488 420.709 61.888 420.709 78.688C420.709 95.04 427.149 103.216 440.029 103.216C449.437 103.216 455.093 97.504 456.997 86.08L472.117 88.936Z" fill="#050505"/>
<path d="M484.683 46.096C490.283 43.408 495.267 41.56 499.635 40.552C504.003 39.544 509.043 39.04 514.755 39.04C523.155 39.04 530.043 41.168 535.419 45.424C540.907 49.68 543.651 56.064 543.651 64.576V98.512C543.651 102.992 545.499 105.232 549.195 105.232C550.203 105.232 551.491 105.008 553.059 104.56L553.227 114.472C549.531 116.6 545.499 117.664 541.131 117.664C531.611 117.664 526.459 112.68 525.675 102.712V102.376C523.435 106.296 520.243 109.824 516.099 112.96C512.067 116.096 507.027 117.664 500.979 117.664C495.715 117.664 490.507 116.096 485.355 112.96C480.315 109.712 477.795 104.112 477.795 96.16C477.795 86.864 481.491 80.76 488.883 77.848C496.275 74.824 504.283 73.312 512.907 73.312C515.035 73.312 517.219 73.368 519.459 73.48C521.699 73.592 523.771 73.76 525.675 73.984V69.784C525.675 65.304 524.891 61.272 523.323 57.688C521.755 54.104 517.835 52.312 511.563 52.312C509.211 52.312 506.971 52.48 504.843 52.816C502.827 53.152 500.867 53.824 498.963 54.832L495.939 66.424L481.491 64.912L484.683 46.096ZM525.675 86.08V83.392C523.771 83.168 521.811 82.944 519.795 82.72C517.779 82.496 515.707 82.384 513.579 82.384C509.099 82.384 505.067 83.168 501.483 84.736C498.011 86.304 496.275 89.44 496.275 94.144C496.275 100.976 499.915 104.392 507.195 104.392C511.451 104.392 515.483 102.88 519.291 99.856C523.099 96.72 525.227 92.128 525.675 86.08Z" fill="#050505"/>
<path d="M596.079 115.984H555.759V102.208H567.015V14.176H555.087V0.399994H584.823V102.208H596.079V115.984Z" fill="#050505"/>
<rect x="367" y="2" width="19" height="20" fill="#76B6FF"/>
<path d="M20 54H42V64H20V54Z" fill="#76B6FF"/>
<path d="M47 54H69V64H47V54Z" fill="#050505"/>
<path d="M74 54H83V64H74V54Z" fill="#76B6FF"/>
<path d="M20 70H56V80H20V70Z" fill="#76B6FF"/>
<path d="M61 70H83V80H61V70Z" fill="#76B6FF"/>
<path d="M20 86H42V96H20V86Z" fill="#050505"/>
<path d="M47 86H69V96H47V86Z" fill="#76B6FF"/>
<path d="M74 86H83V96H74V86Z" fill="#050505"/>
<path d="M0 34H83V44H10V106H83V116H0V34Z" fill="#050505"/>
<path d="M118 34H103V44H108V106H103V116H118V34Z" fill="#050505"/>
<path d="M78 29V19H109V29H98V121H109V131H78V121H88V29H78Z" fill="#050505"/>
</svg>
