<svg version="1.1" xmlns="http://www.w3.org/2000/svg" viewBox="0 0 1171.5495395600817 329.0036926269531" width="2343.0990791201634" height="658.0073852539062">
  <!-- svg-source:excalidraw -->
  
  <defs>
    <style>
      @font-face {
        font-family: "Virgil";
        src: url("https://excalidraw.com/Virgil.woff2");
      }
      @font-face {
        font-family: "Cascadia";
        src: url("https://excalidraw.com/Cascadia.woff2");
      }
    </style>
  </defs>
  <rect x="0" y="0" width="1171.5495395600817" height="329.0036926269531" fill="#ffffff"></rect><g stroke-linecap="round" transform="translate(241.02926635742188 86.33139038085938) rotate(0 90.5 74.5)"><path d="M-1.85 -1.47 C55.06 -0.22, 111.96 -0.42, 181.54 -1.66 M0.57 -0.26 C46.19 0.76, 90.35 0.82, 181.21 0.16 M182.02 -1.07 C181.15 40.86, 181.01 83.16, 179.86 147.49 M180.95 0.87 C182.15 43.95, 181.68 86.56, 181.31 149.1 M179.43 149.07 C144.48 148.39, 106.84 146.38, -0.98 148.15 M181.13 149.66 C137.92 149.38, 96.87 149.64, 0.87 149.98 M-0.19 147.24 C2.01 99.83, -0.67 46.89, 1.03 1.9 M-0.35 149.12 C-0.52 91.8, -1.78 33.63, -0.99 -0.44" stroke="#000000" stroke-width="1" fill="none"></path></g><g transform="translate(246.02926635742188 148.33139038085938) rotate(0 85.5 12.5)"><text x="85.5" y="18" font-family="Virgil, Segoe UI Emoji" font-size="20px" fill="#000000" text-anchor="middle" style="white-space: pre;" direction="ltr">updateFn</text></g><g stroke-linecap="round" transform="translate(10 100.19244384765625) rotate(0 63 56.53572082519531)"><path d="M65.6 -0.56 C78.57 13.94, 92.4 24.25, 124.94 58.46 M63.09 -0.88 C87.27 22.33, 110.37 42.42, 125.84 56.53 M127.8 55.99 C101.6 79.54, 80.67 98.05, 65.07 113.11 M125.28 57.25 C109.59 71.53, 95.35 85.92, 63.48 113.04 M64.33 113.11 C48.97 98.06, 31.01 85.37, -1.64 56.62 M64.02 113.71 C50.03 99.19, 33.66 87.56, 0.17 56.65 M1.51 56.08 C19.58 38.93, 37.75 23.28, 62.53 0.97 M0.28 56.64 C22.55 37.4, 43.55 18.01, 64.52 0.19" stroke="#000000" stroke-width="1" fill="none"></path></g><g transform="translate(15 131.72816467285156) rotate(0 58 25)"><text x="58" y="18" font-family="Virgil, Segoe UI Emoji" font-size="20px" fill="#000000" text-anchor="middle" style="white-space: pre;" direction="ltr">keyboard </text><text x="58" y="43" font-family="Virgil, Segoe UI Emoji" font-size="20px" fill="#000000" text-anchor="middle" style="white-space: pre;" direction="ltr">event</text></g><g stroke-linecap="round"><g transform="translate(143.8424046816399 154.06731465902385) rotate(0 42.67392358445477 0.7482278483587379)"><path d="M-0.77 -0.6 C13.7 -0.49, 71.79 0.02, 86.12 0.32 M1.03 1.71 C15.37 2.05, 70.64 2.28, 85.04 1.89" stroke="#000000" stroke-width="1" fill="none"></path></g><g transform="translate(143.8424046816399 154.06731465902385) rotate(0 42.67392358445477 0.7482278483587379)"><path d="M55.95 12 C63.96 8.02, 72.33 9.08, 83.79 1.53 M56.3 13.04 C67.28 9.04, 79.28 4.3, 85.75 2.88" stroke="#000000" stroke-width="1" fill="none"></path></g><g transform="translate(143.8424046816399 154.06731465902385) rotate(0 42.67392358445477 0.7482278483587379)"><path d="M55.77 -8.52 C63.76 -7.47, 72.19 -1.39, 83.79 1.53 M56.11 -7.48 C67.06 -3.38, 79.13 -0.01, 85.75 2.88" stroke="#000000" stroke-width="1" fill="none"></path></g></g><g stroke-linecap="round" transform="translate(496.9670104980469 10) rotate(0 90 74.5)"><path d="M-1.61 -1.15 C70.26 -1.1, 142.11 -3.1, 181.16 1.32 M0.27 0.48 C52.77 -0.03, 107.36 1.42, 179.19 0.79 M178.32 0.61 C178.36 32.99, 178.61 67.97, 180.92 149.48 M179.6 0.7 C180.66 38.29, 179.97 77.71, 179.93 149.6 M178.23 147.92 C139.6 148.3, 99.18 149.07, 1.7 150.27 M179.35 148.63 C109.68 148.13, 39.47 149.91, -0.48 148.02 M-1.67 149.92 C-0.85 106.3, -0.34 64.96, -0.58 -0.23 M0.74 148.88 C-1.48 90.45, -0.74 30.85, 0.17 -0.91" stroke="#5c940d" stroke-width="1" fill="none"></path></g><g transform="translate(501.9670104980469 72) rotate(0 85 12.5)"><text x="85" y="18" font-family="Virgil, Segoe UI Emoji" font-size="20px" fill="#5c940d" text-anchor="middle" style="white-space: pre;" direction="ltr">transform1</text></g><g stroke-linecap="round"><g transform="translate(430.39692017245807 124.37583294218848) rotate(0 29.9000440974948 -8.911933655495602)"><path d="M-0.12 0.98 C10 -1.95, 51.09 -13.93, 61.44 -17.31 M-1.64 0.46 C8.24 -2.81, 49.9 -15.68, 60.41 -18.81" stroke="#000000" stroke-width="1" fill="none"></path></g><g transform="translate(430.39692017245807 124.37583294218848) rotate(0 29.9000440974948 -8.911933655495602)"><path d="M38.08 -1.02 C47.02 -6.6, 52.43 -15.3, 62.05 -20.63 M35.66 -0.88 C43.01 -6.1, 48.38 -10.3, 59.76 -19.19" stroke="#000000" stroke-width="1" fill="none"></path></g><g transform="translate(430.39692017245807 124.37583294218848) rotate(0 29.9000440974948 -8.911933655495602)"><path d="M32.1 -20.65 C43.25 -19.13, 50.82 -20.74, 62.05 -20.63 M29.69 -20.51 C38.68 -20.47, 45.65 -19.41, 59.76 -19.19" stroke="#000000" stroke-width="1" fill="none"></path></g></g><g stroke-linecap="round" transform="translate(749.1298522949219 82.34146118164062) rotate(0 84 75)"><path d="M-0.48 0.66 C51.16 0.45, 101.39 -0.59, 168.09 1.69 M0.56 0.94 C61.44 -0.48, 123.48 -0.66, 168.13 -0.19 M169.09 0.11 C169.62 42.93, 168.66 85.78, 168.79 150.79 M168.25 -0.42 C166.05 48.24, 166.89 96.75, 168.04 149.96 M168.58 149.12 C120.01 151.73, 72.38 149.51, 0.45 149.97 M167.64 150.09 C110.97 152.02, 52.58 151.56, 0.48 150.26 M1.35 149.59 C-0.38 109.92, 1.5 71.98, -0.47 -1.3 M0.49 150.01 C0.43 102.3, -0.19 53.61, 0.54 -0.63" stroke="#000000" stroke-width="1" fill="none"></path></g><g stroke-linecap="round"><g transform="translate(683.0941887021024 107.82607273985877) rotate(0 30.200914599626913 9.789687946082722)"><path d="M0.78 0.98 C10.86 4, 50.85 16.07, 60.67 19.13 M-0.27 0.45 C9.67 3.65, 50.11 14.55, 59.93 17.39" stroke="#000000" stroke-width="1" fill="none"></path></g><g transform="translate(683.0941887021024 107.82607273985877) rotate(0 30.200914599626913 9.789687946082722)"><path d="M31.66 20.38 C40.68 17.88, 50.47 16.61, 59.98 18.03 M30.52 20.12 C41.19 18.56, 50.53 17.81, 59.24 16.74" stroke="#000000" stroke-width="1" fill="none"></path></g><g transform="translate(683.0941887021024 107.82607273985877) rotate(0 30.200914599626913 9.789687946082722)"><path d="M37.17 0.61 C44.62 4.39, 52.67 9.36, 59.98 18.03 M36.03 0.35 C44.65 5.73, 52.07 11.9, 59.24 16.74" stroke="#000000" stroke-width="1" fill="none"></path></g></g><g transform="translate(754.1298522949219 132.34146118164062) rotate(0 79 25)"><text x="79" y="18" font-family="Virgil, Segoe UI Emoji" font-size="20px" fill="#000000" text-anchor="middle" style="white-space: pre;" direction="ltr">DOM changes</text><text x="79" y="43" font-family="Virgil, Segoe UI Emoji" font-size="20px" fill="#000000" text-anchor="middle" style="white-space: pre;" direction="ltr">reconciled</text></g><g stroke-linecap="round" transform="translate(993.5495395600817 81.65972900390625) rotate(0 84 75)"><path d="M-2 -0.8 C39.27 0.5, 77.63 -0.36, 167.89 -1.87 M-0.72 -0.03 C40.36 0.21, 79.28 0.52, 167.02 -0.41 M168.48 0.34 C168.24 35.53, 169.47 72.43, 167.29 151.61 M168.12 -0.3 C168.75 57.09, 170.17 114, 168.7 149.47 M169.07 150.22 C117.87 150.18, 68.32 149.36, 1.72 149.98 M167.08 149.48 C102.62 149.84, 37.98 148.86, 0.33 150.53 M1.82 150.5 C-1.14 101.87, -1.18 53.81, -0.18 0.17 M-0.62 150.66 C-1.94 91.75, -0.39 33.59, -0.27 -0.19" stroke="#000000" stroke-width="1" fill="none"></path></g><g stroke-linecap="round"><g transform="translate(927.513875967262 153.73665896722866) rotate(0 29.9568794323892 -0.8127748690825172)"><path d="M-1.2 -0.48 C9.18 -0.42, 50.68 0.31, 61.11 0.37 M0.37 -1.78 C10.77 -2.1, 50.46 -2.07, 60.61 -1.59" stroke="#000000" stroke-width="1" fill="none"></path></g><g transform="translate(927.513875967262 153.73665896722866) rotate(0 29.9568794323892 -0.8127748690825172)"><path d="M31.42 9.51 C38.49 8.34, 43.39 4.34, 58.74 -2.85 M32.19 8.6 C40.38 4.96, 49.21 1.51, 60.2 -2.18" stroke="#000000" stroke-width="1" fill="none"></path></g><g transform="translate(927.513875967262 153.73665896722866) rotate(0 29.9568794323892 -0.8127748690825172)"><path d="M31.83 -11 C38.82 -8.02, 43.64 -7.86, 58.74 -2.85 M32.6 -11.92 C40.59 -9.41, 49.3 -6.7, 60.2 -2.18" stroke="#000000" stroke-width="1" fill="none"></path></g></g><g transform="translate(998.5495395600817 144.15972900390625) rotate(0 79 12.5)"><text x="79" y="18" font-family="Virgil, Segoe UI Emoji" font-size="20px" fill="#000000" text-anchor="middle" style="white-space: pre;" direction="ltr">update listener</text></g><g stroke-linecap="round" transform="translate(498.5557556152344 170.00369262695312) rotate(0 90 74.5)"><path d="M-1.6 -1.65 C61.79 -0.16, 123.38 1.38, 178.09 -0.31 M0.06 -0.03 C59.94 -0.09, 118.8 -0.07, 179.16 -0.4 M178.51 -1.04 C178.98 50.78, 179.18 99.16, 178.93 147.67 M179.48 -0.54 C180.75 45.69, 180.63 92.39, 179.54 148.57 M178.78 150.95 C136.55 147.19, 94.43 148.38, 1.05 150.42 M179.97 148.27 C108.53 150.35, 37.88 151.57, -0.67 148.03 M-0.27 148.86 C0.5 100.68, 1.63 52.2, -0.47 1.8 M0.34 148.59 C-0.37 107.49, -1.02 68.49, 0.4 0.21" stroke="#5c940d" stroke-width="1" fill="none"></path></g><g transform="translate(503.5557556152344 232.00369262695312) rotate(0 85 12.5)"><text x="85" y="18" font-family="Virgil, Segoe UI Emoji" font-size="20px" fill="#5c940d" text-anchor="middle" style="white-space: pre;" direction="ltr">transform2</text></g><g stroke-linecap="round"><g transform="translate(429.8659973144531 167.546142578125) rotate(0 29.251810489580976 21.07084605210926)"><path d="M-1.08 0.66 C8.32 7.68, 47.71 35.27, 57.47 42.18 M0.56 -0.04 C10.21 6.66, 49.71 33.88, 59.58 40.61" stroke="#000000" stroke-width="1" fill="none"></path></g><g transform="translate(429.8659973144531 167.546142578125) rotate(0 29.251810489580976 21.07084605210926)"><path d="M31.63 31.21 C43.69 34.4, 55 40.76, 60.15 39.3 M30.57 33.59 C35.43 33.81, 41.3 35.59, 60.17 41.52" stroke="#000000" stroke-width="1" fill="none"></path></g><g transform="translate(429.8659973144531 167.546142578125) rotate(0 29.251810489580976 21.07084605210926)"><path d="M43.24 14.29 C50.75 24.01, 57.51 37.02, 60.15 39.3 M42.18 16.67 C44.63 20.37, 48.16 25.57, 60.17 41.52" stroke="#000000" stroke-width="1" fill="none"></path></g></g><g stroke-linecap="round"><g transform="translate(686.5041198730469 198.95074462890625) rotate(0 26.899869189085393 -16.040077109634865)"><path d="M0.59 -0.21 C9.35 -5.43, 43.34 -26.62, 52.08 -31.87 M-0.57 -1.36 C8.62 -6.43, 45.54 -26, 54.37 -30.93" stroke="#000000" stroke-width="1" fill="none"></path></g><g transform="translate(686.5041198730469 198.95074462890625) rotate(0 26.899869189085393 -16.040077109634865)"><path d="M34.13 -9.84 C37.82 -14.09, 43.19 -21.13, 52.54 -29.7 M35.14 -8.6 C41.74 -15.99, 49.4 -23.46, 53.46 -30.13" stroke="#000000" stroke-width="1" fill="none"></path></g><g transform="translate(686.5041198730469 198.95074462890625) rotate(0 26.899869189085393 -16.040077109634865)"><path d="M24.35 -27.88 C30.47 -27.53, 38.36 -29.93, 52.54 -29.7 M25.36 -26.64 C35.25 -27.74, 46.31 -28.93, 53.46 -30.13" stroke="#000000" stroke-width="1" fill="none"></path></g></g></svg>