<svg width="611" height="111" viewBox="0 0 611 111" fill="none" xmlns="http://www.w3.org/2000/svg">
    <g clip-path="url(#clip0_44_130)">
        <path d="M47.8516 42.9951C47.6634 42.9951 47.4753 42.9757 47.2872 42.9418C46.3128 42.7527 45.4976 42.0788 45.1213 41.1529L35.387 17.2484C34.7696 15.7359 35.4931 14.0053 36.9981 13.3847C38.5031 12.7642 40.2252 13.4914 40.8426 15.0039L48.5992 34.0557C50.4371 30.9144 52.2701 26.1393 51.0883 20.7049C49.4337 13.1181 42.7914 7.34439 34.5862 6.12759L25.8842 25.9454C25.2282 27.4434 23.482 28.122 21.9963 27.4627C20.5057 26.8034 19.8304 25.0534 20.4864 23.5554L30.0568 1.76458C30.5536 0.63504 31.6968 -0.0581952 32.9172 -2.1646e-05C44.6582 0.654431 54.5035 8.64845 56.8527 19.4348C59.5443 31.7773 50.9532 41.0802 49.9644 42.0982C49.4048 42.6751 48.6378 42.9951 47.8516 42.9951Z" fill="#F03F20"/>
        <path d="M13.9358 64.466C12.8746 64.466 11.8471 63.8891 11.3213 62.8759L0.337655 41.7832C-0.231547 40.6876 -0.0675395 39.3544 0.752498 38.4333C8.58626 29.6152 20.9399 26.8617 30.7948 31.7434C42.0775 37.328 43.954 49.8741 44.1325 51.2848C44.2579 52.2738 43.8768 53.2627 43.1195 53.9124C42.3621 54.562 41.3347 54.7801 40.3796 54.4989L15.7109 47.2466C14.148 46.7861 13.2508 45.1427 13.7091 43.5672C14.1673 41.9965 15.8026 41.0948 17.3703 41.5553L37.0271 47.3387C35.7295 43.9356 33.1584 39.5192 28.19 37.0614C21.2582 33.6292 12.6237 35.2483 6.56029 40.9397L16.5503 60.1321C17.3076 61.5816 16.748 63.3753 15.3057 64.1315C14.8716 64.3594 14.4037 64.4709 13.9406 64.4709L13.9358 64.466Z" fill="#F03F20"/>
        <path d="M36.7618 94.6581C36.5737 94.6581 36.3855 94.6387 36.1974 94.6047L12.9373 90.0818C11.7314 89.8491 10.7955 88.8843 10.5881 87.6724C8.61039 76.0231 14.1722 64.5969 24.1139 59.8945C35.4883 54.5135 46.4237 60.8592 47.6297 61.6009C48.4787 62.1197 49.0093 63.0359 49.043 64.0345C49.0768 65.0332 48.6041 65.9785 47.7937 66.5554L26.7718 81.4139C25.4404 82.3544 23.6026 82.0344 22.662 80.6964C21.7262 79.3584 22.0445 77.5066 23.3759 76.5661L40.1288 64.7229C36.6701 63.6225 31.6293 62.8856 26.6223 65.2562C19.6278 68.5672 15.5083 76.3625 16.1547 84.6716L37.3117 88.7874C38.9083 89.0976 39.9551 90.6538 39.6464 92.2584C39.3714 93.674 38.1365 94.6581 36.7521 94.6581H36.7618Z" fill="#F03F20"/>
        <path d="M56.4523 111C55.9651 111 55.4731 110.879 55.0293 110.632C44.7306 104.921 39.3135 93.4316 41.8508 82.684C44.7547 70.3949 56.5102 65.7555 57.8415 65.2707C58.7773 64.9265 59.8193 65.0817 60.6152 65.6779C61.4111 66.2742 61.8549 67.2341 61.797 68.2327L60.2486 94.0182C60.1521 95.6519 58.758 96.8978 57.1276 96.8008C55.502 96.7038 54.2623 95.298 54.3588 93.6643L55.5888 73.1193C52.574 75.1505 48.8645 78.6555 47.5862 84.0608C45.8015 91.6185 49.2938 99.7192 56.1629 104.392L72.554 90.3338C73.7937 89.2722 75.6556 89.4176 76.712 90.6635C77.7684 91.9094 77.6237 93.7806 76.384 94.8423L58.3625 110.297C57.8174 110.767 57.1324 111.005 56.4475 111.005L56.4523 111Z" fill="#F03F20"/>
        <path d="M90.098 92.1517C82.5102 92.1517 75.2794 88.9134 70.6438 82.9652C62.892 73.0175 66.616 60.8932 67.0646 59.5406C67.3829 58.5953 68.1499 57.8681 69.1098 57.616C70.0698 57.364 71.0972 57.616 71.8353 58.2802L90.9277 75.5723C92.1384 76.6679 92.2349 78.544 91.1447 79.7559C90.0546 80.9727 88.1878 81.0697 86.9818 79.9741L71.7629 66.1966C71.4638 69.8276 71.8739 74.9324 75.2842 79.3099C80.0501 85.423 88.5303 87.7306 96.446 85.2485L95.7273 63.6031C95.6742 61.9645 96.9477 60.5974 98.5781 60.5441C100.209 60.4762 101.569 61.7706 101.622 63.4092L102.413 87.2021C102.452 88.4335 101.728 89.563 100.594 90.0381C97.1648 91.4682 93.5904 92.1566 90.0931 92.1566L90.098 92.1517Z" fill="#F03F20"/>
        <path d="M89.0126 60.5102C88.9451 60.5102 88.8824 60.5102 88.8148 60.5102C76.2442 60.3987 69.1291 49.9129 68.3622 48.7203C67.8219 47.8817 67.7399 46.8248 68.1403 45.9135C68.5406 44.9972 69.3751 44.3525 70.3544 44.1876L95.708 39.9652C97.3143 39.7034 98.8338 40.7893 99.0991 42.4037C99.3644 44.018 98.279 45.545 96.6727 45.8117L76.4661 49.176C79.1095 51.6775 83.3302 54.5328 88.8631 54.5813C88.9113 54.5813 88.9644 54.5813 89.0126 54.5813C96.6824 54.5813 103.691 49.3748 106.677 41.6522L89.3889 28.7183C88.0816 27.7391 87.8115 25.8824 88.7859 24.5686C89.7603 23.2549 91.6078 22.9834 92.915 23.9626L111.921 38.1764C112.905 38.9132 113.334 40.1882 112.996 41.3711C109.769 52.6616 99.9288 60.5053 89.0174 60.5053L89.0126 60.5102Z" fill="#F03F20"/>
        <path d="M62.8149 41.0463C61.7585 41.0463 61.0301 40.9833 60.7455 40.959C59.7566 40.8621 58.8835 40.2658 58.4253 39.3835C57.967 38.4964 57.9815 37.4395 58.4638 36.5669L70.9863 14.0101C71.7822 12.58 73.5766 12.071 74.9996 12.8661C76.4227 13.6659 76.9291 15.4693 76.1381 16.8994L66.1577 34.8751C69.7466 34.3563 74.6041 32.8244 78.0917 28.505C82.9637 22.4744 83.311 13.6514 79.1433 6.44757L58.3047 11.9692C56.7321 12.3861 55.1162 11.4408 54.7013 9.86042C54.2865 8.27519 55.2271 6.65603 56.7996 6.23912L79.7028 0.164827C80.8894 -0.15028 82.1484 0.310261 82.8575 1.31375C89.6687 10.9463 89.5915 23.6621 82.6694 32.2379C76.3358 40.0816 67.0163 41.0463 62.8149 41.0463Z" fill="#F03F20"/>
        <path d="M139.098 34.7539H156.656V40.6003H145.422V49.273H155.604V55.1195H145.422V64.1945H156.859V70.041H139.098V34.749V34.7539Z" fill="#2C232F"/>
        <path d="M183.298 51.8472L184.002 45.0893H183.751L181.894 51.1394L176.173 63.5401H174.065L167.997 51.0861L166.14 44.9875H165.84L166.796 51.7938V70.0458H160.824V34.7538H166.892L174.219 50.0293L175.425 54.4165H175.628L176.781 49.9274L183.655 34.7538H189.626V70.0458H183.307V51.8472H183.298Z" fill="#2C232F"/>
        <path d="M194.281 34.7539H211.84V40.6003H200.6V49.273H210.783V55.1195H200.6V64.1945H212.037V70.041H194.276V34.749L194.281 34.7539Z" fill="#2C232F"/>
        <path d="M216.003 35.1078C217.373 34.8072 218.844 34.589 220.416 34.4533C221.989 34.3176 223.344 34.2497 224.478 34.2497C225.915 34.2497 227.319 34.3951 228.694 34.6763C230.064 34.9623 231.279 35.481 232.331 36.2373C233.383 36.9935 234.236 38.0213 234.888 39.3108C235.539 40.6052 235.867 42.2437 235.867 44.2265C235.867 47.0818 235.341 49.4136 234.285 51.2073C233.233 53.0058 231.786 54.242 229.943 54.911L231.95 56.5253L238.423 70.0361H231.149L225.028 56.1229L222.317 55.4685V70.041H215.998V35.1029L216.003 35.1078ZM222.322 51.1394H224.478C226.05 51.1394 227.237 50.6595 228.038 49.7045C228.839 48.7446 229.244 47.2612 229.244 45.2445C229.244 43.732 228.911 42.4958 228.24 41.5408C227.57 40.5809 226.518 40.1058 225.081 40.1058C224.545 40.1058 224.029 40.1252 223.528 40.1543C223.026 40.1882 222.626 40.2561 222.322 40.3579V51.1491V51.1394Z" fill="#2C232F"/>
        <path d="M250.719 51.7939H261.553V67.4232C260.314 68.6012 258.871 69.4495 257.212 69.9683C255.557 70.487 253.908 70.7488 252.272 70.7488C250.299 70.7488 248.51 70.3949 246.904 69.6919C245.297 68.9841 243.937 67.8837 242.813 66.3906C241.694 64.8975 240.826 62.9971 240.203 60.6944C239.581 58.3917 239.272 55.6285 239.272 52.3998C239.272 49.1712 239.639 46.1995 240.377 43.8774C241.11 41.5602 242.089 39.6695 243.31 38.2055C244.53 36.7415 245.953 35.6846 247.574 35.0302C249.195 34.3757 250.912 34.0461 252.716 34.0461C254.322 34.0461 255.784 34.1915 257.106 34.4727C258.427 34.7587 259.522 35.0884 260.391 35.4568L259.083 40.9542C258.413 40.6536 257.636 40.4015 256.749 40.1979C255.861 39.9943 254.786 39.8974 253.512 39.8974C252.34 39.8974 251.279 40.1349 250.328 40.6052C249.373 41.0754 248.573 41.8171 247.921 42.8254C247.27 43.8338 246.768 45.1378 246.416 46.7328C246.064 48.3277 245.891 50.2377 245.891 52.4532C245.891 56.7241 246.532 59.8654 247.82 61.8821C249.108 63.8988 250.806 64.9072 252.914 64.9072C253.584 64.9072 254.226 64.8053 254.843 64.6017C255.461 64.3981 256.006 64.0733 256.474 63.6322V56.3363L250.705 55.5461V51.7987L250.719 51.7939Z" fill="#2C232F"/>
        <path d="M265.417 34.7539H282.976V40.6003H271.741V49.273H281.924V55.1195H271.741V64.1945H283.178V70.041H265.417V34.749V34.7539Z" fill="#2C232F"/>
        <path d="M294.866 52.7004L292.555 46.5001H292.305L293.105 52.5986V70.041H287.134V34.4969H292.001L302.082 52.2447L304.239 58.3432H304.538L303.737 52.3417V34.7442H309.709V70.2882H304.842L294.856 52.6907L294.866 52.7004Z" fill="#2C232F"/>
        <path d="M334.295 68.6351C333.427 69.3768 332.265 69.9149 330.808 70.2494C329.351 70.5839 327.904 70.7536 326.466 70.7536C324.662 70.7536 322.979 70.4433 321.426 69.8228C319.872 69.2023 318.507 68.1697 317.34 66.7202C316.168 65.2756 315.251 63.3753 314.581 61.0241C313.91 58.6729 313.577 55.7788 313.577 52.3514C313.577 48.924 313.954 45.8311 314.706 43.4799C315.459 41.1287 316.443 39.2526 317.668 37.8565C318.888 36.4603 320.282 35.481 321.855 34.909C323.427 34.337 325.014 34.0509 326.621 34.0509C328.227 34.0509 329.689 34.1867 330.909 34.4533C332.13 34.7248 333.123 35.0253 333.895 35.3598L332.641 40.9542C332.004 40.6197 331.261 40.3579 330.407 40.1737C329.554 39.9895 328.541 39.8974 327.373 39.8974C325.068 39.8974 323.292 40.9057 322.058 42.9224C320.818 44.9391 320.2 48.0998 320.2 52.3998C320.2 54.2469 320.34 55.9387 320.625 57.4658C320.909 58.9977 321.363 60.3163 321.98 61.4216C322.598 62.5317 323.384 63.3898 324.339 63.9909C325.289 64.5969 326.438 64.8975 327.774 64.8975C328.946 64.8975 329.949 64.7375 330.784 64.4175C331.618 64.0976 332.371 63.7194 333.041 63.2831L334.295 68.6254V68.6351Z" fill="#2C232F"/>
        <path d="M337.46 34.7539H355.018V40.6003H343.784V49.273H353.967V55.1195H343.784V64.1945H355.221V70.041H337.46V34.749V34.7539Z" fill="#2C232F"/>
        <path d="M372.461 34.7539H388.061V38.2346H376.223V50.1844H387.111V53.6651H376.223V66.57H388.312V70.0507H372.461V34.7587V34.7539Z" fill="#2C232F"/>
        <path d="M399.498 47.6635L397.342 42.1177H397.192L397.742 47.6635V70.0507H394.129V34.2061H396.387L409.382 57.0974L411.437 62.3911H411.639L411.089 57.0974V34.7636H414.702V70.6082H412.397L399.503 47.6684L399.498 47.6635Z" fill="#2C232F"/>
        <path d="M430.954 52.4483H440.635V67.9758C439.699 68.8484 438.493 69.5126 437.022 69.9683C435.551 70.424 434.06 70.6469 432.555 70.6469C430.683 70.6469 428.986 70.2931 427.461 69.5901C425.937 68.8824 424.644 67.7819 423.573 66.2888C422.502 64.7957 421.673 62.905 421.089 60.6169C420.505 58.3335 420.211 55.5945 420.211 52.3998C420.211 49.2051 420.563 46.3062 421.263 44.0035C421.967 41.7008 422.908 39.8198 424.099 38.3558C425.286 36.8917 426.641 35.8252 428.161 35.1562C429.68 34.4824 431.248 34.1479 432.849 34.1479C434.451 34.1479 435.802 34.2594 436.887 34.4775C437.972 34.6957 438.903 34.9914 439.67 35.3598L438.768 38.7872C438.098 38.4188 437.306 38.1328 436.385 37.9292C435.464 37.7256 434.403 37.6286 433.201 37.6286C432 37.6286 430.91 37.8807 429.839 38.3849C428.768 38.889 427.809 39.7229 426.955 40.8815C426.101 42.0401 425.426 43.5623 424.924 45.4433C424.422 47.3242 424.171 49.6463 424.171 52.3998C424.171 57.4415 424.967 61.1647 426.554 63.5692C428.141 65.9737 430.327 67.1759 433.1 67.1759C434.837 67.1759 436.279 66.759 437.413 65.9252V55.7303L430.939 54.7413V52.4532L430.954 52.4483Z" fill="#2C232F"/>
        <path d="M446.858 34.7539H450.62V70.0458H446.858V34.7539Z" fill="#2C232F"/>
        <path d="M463.311 47.6635L461.155 42.1177H461.006L461.555 47.6635V70.0507H457.942V34.2061H460.2L473.195 57.0974L475.25 62.3911H475.453L474.903 57.0974V34.7636H478.516V70.6082H476.21L463.316 47.6684L463.311 47.6635Z" fill="#2C232F"/>
        <path d="M485.081 34.7539H500.681V38.2346H488.843V50.1844H499.731V53.6651H488.843V66.57H500.932V70.0507H485.081V34.7587V34.7539Z" fill="#2C232F"/>
        <path d="M506.754 34.7539H522.354V38.2346H510.517V50.1844H521.404V53.6651H510.517V66.57H522.605V70.0507H506.754V34.7587V34.7539Z" fill="#2C232F"/>
        <path d="M528.427 35.1078C529.532 34.8411 530.742 34.6472 532.064 34.526C533.386 34.4097 534.597 34.3515 535.701 34.3515C537.004 34.3515 538.243 34.5115 539.416 34.8314C540.588 35.1514 541.606 35.6895 542.474 36.4457C543.342 37.202 544.037 38.1958 544.558 39.4223C545.074 40.6488 545.334 42.1855 545.334 44.0374C545.334 46.8297 544.755 49.0646 543.603 50.7419C542.45 52.4241 540.921 53.5488 539.01 54.1208L540.916 55.9872L547.838 70.0555H543.472L535.947 54.6783L532.185 53.9221V70.0555H528.422V35.1175L528.427 35.1078ZM532.19 51.3915H535.2C537.105 51.3915 538.61 50.8049 539.715 49.6269C540.819 48.4489 541.369 46.6504 541.369 44.2313C541.369 42.3843 540.911 40.8524 539.99 39.6453C539.068 38.4333 537.708 37.8322 535.899 37.8322C535.229 37.8322 534.534 37.8565 533.815 37.9098C533.096 37.9583 532.551 38.0358 532.185 38.1376V51.3964L532.19 51.3915Z" fill="#2C232F"/>
        <path d="M553.409 34.7539H557.172V70.0458H553.409V34.7539Z" fill="#2C232F"/>
        <path d="M569.863 47.6635L567.707 42.1177H567.557L568.107 47.6635V70.0507H564.494V34.2061H566.752L579.747 57.0974L581.802 62.3911H582.004L581.455 57.0974V34.7636H585.068V70.6082H582.762L569.868 47.6684L569.863 47.6635Z" fill="#2C232F"/>
        <path d="M601.314 52.4483H610.995V67.9758C610.059 68.8484 608.853 69.5126 607.382 69.9683C605.911 70.424 604.42 70.6469 602.915 70.6469C601.044 70.6469 599.346 70.2931 597.822 69.5901C596.297 68.8824 595.004 67.7819 593.934 66.2888C592.863 64.7957 592.033 62.905 591.449 60.6169C590.866 58.3335 590.571 55.5945 590.571 52.3998C590.571 49.2051 590.924 46.3062 591.623 44.0035C592.327 41.7008 593.268 39.8198 594.459 38.3558C595.646 36.8917 597.002 35.8252 598.521 35.1562C600.04 34.4824 601.608 34.1479 603.21 34.1479C604.811 34.1479 606.162 34.2594 607.247 34.4775C608.332 34.6957 609.263 34.9914 610.03 35.3598L609.128 38.7872C608.458 38.4188 607.667 38.1328 606.745 37.9292C605.824 37.7256 604.763 37.6286 603.562 37.6286C602.361 37.6286 601.271 37.8807 600.2 38.3849C599.129 38.889 598.169 39.7229 597.315 40.8815C596.461 42.0401 595.786 43.5623 595.284 45.4433C594.783 47.3242 594.532 49.6463 594.532 52.3998C594.532 57.4415 595.328 61.1647 596.915 63.5692C598.502 65.9737 600.687 67.1759 603.461 67.1759C605.197 67.1759 606.639 66.759 607.773 65.9252V55.7303L601.299 54.7413V52.4532L601.314 52.4483Z" fill="#2C232F"/>
    </g>
    <defs>
        <clipPath id="clip0_44_130">
            <rect width="611" height="111" fill="white"/>
        </clipPath>
    </defs>
</svg>
