<svg id="svg" version="1.1" xmlns="http://www.w3.org/2000/svg" xmlns:xlink="http://www.w3.org/1999/xlink" width="400" height="89.7822445561139" viewBox="0, 0, 400,89.7822445561139"><g id="svgg"><path id="path0" d="M245.613 3.109 C 245.551 3.171,245.500 6.322,245.500 10.111 L 245.500 17.000 252.252 17.000 L 259.004 17.000 258.960 10.042 L 258.917 3.083 252.321 3.040 C 248.694 3.016,245.675 3.047,245.613 3.109 M13.038 41.458 L 13.083 45.083 20.792 45.127 L 28.500 45.170 28.500 41.502 L 28.500 37.833 20.747 37.833 L 12.993 37.833 13.038 41.458 M49.333 41.496 L 49.333 45.167 52.670 45.167 L 56.007 45.167 55.962 41.542 L 55.917 37.917 52.625 37.871 L 49.333 37.826 49.333 41.496 M13.111 48.611 C 13.050 48.672,13.000 50.322,13.000 52.278 L 13.000 55.833 25.417 55.833 L 37.833 55.833 37.833 52.167 L 37.833 48.500 25.528 48.500 C 18.760 48.500,13.172 48.550,13.111 48.611 M40.500 52.167 L 40.500 55.833 48.250 55.833 L 56.000 55.833 56.000 52.167 L 56.000 48.500 48.250 48.500 L 40.500 48.500 40.500 52.167 M31.167 62.833 L 31.167 66.500 38.833 66.500 L 46.500 66.500 46.500 62.833 L 46.500 59.167 38.833 59.167 L 31.167 59.167 31.167 62.833 " stroke="none" fill="#74b4fc" fill-rule="evenodd"></path><path id="path1" d="M98.833 5.167 L 98.833 10.333 102.833 10.333 L 106.833 10.333 106.833 39.167 L 106.833 68.000 103.167 68.000 L 99.500 68.000 99.500 73.000 L 99.500 78.000 113.583 78.000 L 127.667 78.000 127.667 73.000 L 127.667 68.000 124.000 68.000 L 120.333 68.000 120.333 34.000 L 120.333 0.000 109.583 0.000 L 98.833 0.000 98.833 5.167 M371.500 5.167 L 371.500 10.333 375.500 10.333 L 379.500 10.333 379.500 39.167 L 379.500 68.000 375.500 68.000 L 371.500 68.000 371.487 68.875 C 371.480 69.356,371.436 69.656,371.390 69.542 C 371.233 69.153,368.987 69.265,368.882 69.667 C 368.756 70.149,367.578 70.149,367.452 69.667 C 367.385 69.411,367.224 69.333,366.766 69.333 C 366.278 69.333,366.167 69.271,366.167 69.000 C 366.167 68.778,366.056 68.667,365.833 68.667 C 365.562 68.667,365.500 68.556,365.500 68.068 C 365.500 67.609,365.422 67.448,365.167 67.382 C 364.837 67.295,364.833 67.154,364.833 52.965 C 364.833 38.776,364.830 38.635,364.500 38.548 C 364.211 38.473,364.167 38.321,364.167 37.411 C 364.167 36.211,364.063 35.833,363.732 35.833 C 363.572 35.833,363.500 35.625,363.500 35.167 C 363.500 34.611,363.444 34.500,363.167 34.500 C 362.895 34.500,362.833 34.389,362.833 33.901 C 362.833 33.442,362.755 33.282,362.500 33.215 C 362.316 33.167,362.167 32.988,362.167 32.814 C 362.167 32.611,362.049 32.500,361.833 32.500 C 361.611 32.500,361.500 32.389,361.500 32.167 C 361.500 31.951,361.389 31.833,361.185 31.833 C 360.959 31.833,360.840 31.674,360.764 31.266 C 360.657 30.697,360.415 30.500,359.820 30.500 C 359.611 30.500,359.500 30.384,359.500 30.167 C 359.500 29.944,359.389 29.833,359.167 29.833 C 358.944 29.833,358.833 29.722,358.833 29.500 C 358.833 29.265,358.722 29.167,358.457 29.167 C 358.250 29.167,357.987 29.017,357.872 28.833 C 357.758 28.650,357.486 28.500,357.268 28.500 C 357.012 28.500,356.841 28.382,356.785 28.167 C 356.718 27.909,356.558 27.833,356.083 27.833 C 355.609 27.833,355.449 27.757,355.382 27.500 C 355.308 27.220,355.154 27.167,354.417 27.167 C 353.679 27.167,353.525 27.113,353.452 26.833 C 353.374 26.537,353.224 26.500,352.118 26.500 C 351.012 26.500,350.862 26.463,350.785 26.167 C 350.648 25.643,336.352 25.643,336.215 26.167 C 336.137 26.467,335.988 26.500,334.731 26.500 C 333.444 26.500,333.333 26.527,333.333 26.833 C 333.333 27.129,333.222 27.167,332.347 27.167 C 331.210 27.167,330.833 27.275,330.833 27.601 C 330.833 27.765,330.613 27.833,330.083 27.833 C 329.444 27.833,329.333 27.883,329.333 28.167 C 329.333 28.463,329.222 28.500,328.333 28.500 C 327.444 28.500,327.333 28.537,327.333 28.833 C 327.333 29.111,327.222 29.167,326.667 29.167 C 326.111 29.167,326.000 29.222,326.000 29.500 C 326.000 29.778,325.889 29.833,325.333 29.833 C 324.778 29.833,324.667 29.889,324.667 30.167 C 324.667 30.389,324.556 30.500,324.333 30.500 C 324.028 30.500,324.000 30.611,324.000 31.833 C 324.000 33.056,323.972 33.167,323.667 33.167 C 323.352 33.167,323.333 33.278,323.333 35.167 C 323.333 37.056,323.315 37.167,323.000 37.167 C 322.685 37.167,322.667 37.278,322.667 39.167 C 322.667 41.056,322.648 41.167,322.333 41.167 C 322.028 41.167,322.000 41.278,322.000 42.500 C 322.000 43.722,322.028 43.833,322.333 43.833 C 322.517 43.833,322.667 43.938,322.667 44.066 C 322.667 44.451,323.068 44.500,326.244 44.500 C 329.154 44.500,329.298 44.515,329.382 44.833 C 329.461 45.137,329.609 45.167,331.068 45.167 C 332.556 45.167,332.667 45.144,332.667 44.833 C 332.667 44.611,332.778 44.500,333.000 44.500 C 333.299 44.500,333.333 44.389,333.333 43.417 C 333.333 42.605,333.391 42.333,333.564 42.333 C 333.854 42.333,333.995 41.819,333.998 40.748 C 334.000 40.096,334.073 39.868,334.333 39.705 C 334.615 39.529,334.667 39.317,334.667 38.332 L 334.667 37.167 335.333 37.167 C 335.889 37.167,336.000 37.111,336.000 36.833 C 336.000 36.537,336.111 36.500,337.000 36.500 C 337.889 36.500,338.000 36.463,338.000 36.167 C 338.000 35.843,338.111 35.833,341.989 35.833 C 345.831 35.833,345.981 35.846,346.083 36.167 C 346.166 36.426,346.336 36.500,346.845 36.500 C 347.314 36.500,347.500 36.570,347.500 36.748 C 347.500 36.909,347.735 37.034,348.167 37.103 C 348.669 37.183,348.833 37.286,348.833 37.521 C 348.833 37.722,348.952 37.833,349.167 37.833 C 349.428 37.833,349.500 37.944,349.500 38.349 C 349.500 38.724,349.591 38.888,349.833 38.952 C 350.096 39.020,350.167 39.179,350.167 39.702 C 350.167 40.224,350.237 40.383,350.500 40.452 C 350.786 40.526,350.833 40.679,350.833 41.519 C 350.833 42.389,350.871 42.500,351.167 42.500 C 351.488 42.500,351.500 42.611,351.500 45.500 L 351.500 48.500 344.484 48.500 C 337.609 48.500,337.467 48.507,337.382 48.833 C 337.301 49.142,337.154 49.167,335.382 49.167 C 333.609 49.167,333.462 49.191,333.382 49.500 C 333.304 49.796,333.154 49.833,332.048 49.833 C 330.942 49.833,330.792 49.871,330.715 50.167 C 330.641 50.449,330.488 50.500,329.715 50.500 C 328.942 50.500,328.789 50.551,328.715 50.833 C 328.645 51.101,328.488 51.167,327.911 51.167 C 327.035 51.167,326.667 51.295,326.667 51.601 C 326.667 51.757,326.469 51.833,326.068 51.833 C 325.609 51.833,325.448 51.911,325.382 52.167 C 325.333 52.351,325.154 52.500,324.981 52.500 C 324.778 52.500,324.667 52.618,324.667 52.833 C 324.667 53.075,324.556 53.167,324.264 53.167 C 323.688 53.167,323.333 53.332,323.333 53.601 C 323.333 53.729,323.219 53.833,323.079 53.833 C 322.939 53.833,322.754 54.021,322.667 54.250 C 322.580 54.479,322.394 54.667,322.254 54.667 C 322.075 54.667,322.000 54.838,322.000 55.250 C 322.000 55.722,321.937 55.833,321.667 55.833 C 321.432 55.833,321.333 55.944,321.333 56.210 C 321.333 56.417,321.183 56.680,321.000 56.795 C 320.749 56.951,320.667 57.183,320.667 57.732 C 320.667 58.321,320.603 58.478,320.333 58.548 C 320.035 58.626,319.811 60.555,319.984 61.554 C 319.998 61.630,319.923 61.639,319.819 61.574 C 319.453 61.348,319.338 61.935,319.336 64.040 C 319.334 65.985,319.361 66.181,319.667 66.372 C 319.963 66.557,320.000 66.761,320.000 68.222 C 320.000 69.724,320.028 69.872,320.333 69.952 C 320.615 70.025,320.667 70.179,320.667 70.952 C 320.667 71.724,320.718 71.878,321.000 71.952 C 321.248 72.016,321.333 72.179,321.333 72.583 C 321.333 72.988,321.419 73.150,321.667 73.215 C 321.866 73.267,322.000 73.442,322.000 73.651 C 322.000 73.889,322.106 74.000,322.333 74.000 C 322.556 74.000,322.667 74.111,322.667 74.333 C 322.667 74.556,322.778 74.667,323.000 74.667 C 323.222 74.667,323.333 74.778,323.333 75.000 C 323.333 75.222,323.444 75.333,323.667 75.333 C 323.889 75.333,324.000 75.444,324.000 75.667 C 324.000 75.882,324.111 76.000,324.314 76.000 C 324.488 76.000,324.667 76.149,324.715 76.333 C 324.781 76.586,324.942 76.667,325.382 76.667 C 325.821 76.667,325.982 76.747,326.048 77.000 C 326.114 77.253,326.276 77.333,326.715 77.333 C 327.154 77.333,327.316 77.414,327.382 77.667 C 327.451 77.931,327.609 78.000,328.141 78.000 C 328.511 78.000,328.861 78.076,328.918 78.169 C 328.976 78.263,329.095 78.294,329.182 78.240 C 329.270 78.186,329.321 78.241,329.296 78.363 C 329.262 78.523,329.534 78.597,330.292 78.633 C 331.029 78.668,331.333 78.748,331.333 78.907 C 331.333 79.495,339.798 79.586,339.952 79.000 C 340.027 78.711,340.179 78.667,341.089 78.667 C 342.289 78.667,342.667 78.563,342.667 78.232 C 342.667 78.072,342.875 78.000,343.333 78.000 C 343.889 78.000,344.000 77.944,344.000 77.667 C 344.000 77.395,344.111 77.333,344.599 77.333 C 345.058 77.333,345.218 77.255,345.285 77.000 C 345.333 76.816,345.512 76.667,345.686 76.667 C 345.884 76.667,346.000 76.549,346.000 76.348 C 346.000 76.106,346.161 76.002,346.667 75.917 C 347.058 75.851,347.333 75.712,347.333 75.580 C 347.333 75.457,347.483 75.308,347.667 75.250 C 347.850 75.192,348.000 75.046,348.000 74.925 C 348.000 74.804,348.150 74.666,348.333 74.618 C 348.517 74.570,348.667 74.420,348.667 74.285 C 348.667 74.150,348.817 74.000,349.000 73.952 C 349.183 73.904,349.333 73.745,349.333 73.599 C 349.333 73.453,349.433 73.333,349.554 73.333 C 349.676 73.333,349.995 73.066,350.263 72.739 C 350.531 72.411,350.919 71.958,351.125 71.730 C 351.331 71.502,351.500 71.170,351.500 70.991 C 351.500 70.778,351.614 70.667,351.833 70.667 C 352.137 70.667,352.167 70.778,352.167 71.932 C 352.167 73.058,352.204 73.208,352.500 73.285 C 352.761 73.353,352.833 73.512,352.833 74.019 C 352.833 74.556,352.891 74.667,353.167 74.667 C 353.438 74.667,353.500 74.778,353.500 75.266 C 353.500 75.724,353.578 75.885,353.833 75.952 C 354.018 76.000,354.167 76.179,354.167 76.353 C 354.167 76.556,354.285 76.667,354.500 76.667 C 354.722 76.667,354.833 76.778,354.833 77.000 C 354.833 77.215,354.944 77.333,355.147 77.333 C 355.321 77.333,355.500 77.482,355.548 77.667 C 355.614 77.919,355.776 78.000,356.215 78.000 C 356.654 78.000,356.816 78.081,356.882 78.333 C 356.955 78.615,357.109 78.667,357.882 78.667 C 358.654 78.667,358.808 78.718,358.882 79.000 C 359.036 79.591,366.833 79.492,366.833 78.899 C 366.833 78.726,367.090 78.667,367.833 78.667 C 368.722 78.667,368.833 78.630,368.833 78.333 C 368.833 78.058,368.944 78.000,369.474 78.000 C 369.891 78.000,370.215 77.890,370.401 77.684 C 370.839 77.200,371.472 77.135,371.533 77.566 L 371.583 77.917 385.792 77.959 L 400.000 78.002 400.000 73.001 L 400.000 68.000 396.167 68.000 L 392.333 68.000 392.333 34.000 L 392.333 0.000 381.917 0.000 L 371.500 0.000 371.500 5.167 M52.000 18.000 L 52.000 21.667 55.333 21.667 L 58.667 21.667 58.667 52.167 L 58.667 82.667 55.333 82.667 L 52.000 82.667 52.000 86.167 L 52.000 89.667 62.667 89.667 L 73.333 89.667 73.333 86.167 L 73.333 82.667 69.667 82.667 L 66.000 82.667 66.000 52.167 L 66.000 21.667 69.667 21.667 L 73.333 21.667 73.333 18.000 L 73.333 14.333 62.667 14.333 L 52.000 14.333 52.000 18.000 M0.000 52.250 L 0.000 80.000 28.000 80.000 L 56.000 80.000 56.000 76.333 L 56.000 72.667 31.500 72.667 L 7.000 72.667 7.000 52.250 L 7.000 31.833 31.500 31.833 L 56.000 31.833 56.000 28.167 L 56.000 24.500 28.000 24.500 L 0.000 24.500 0.000 52.250 M68.667 28.167 L 68.667 31.833 70.333 31.833 L 72.000 31.833 72.000 52.250 L 72.000 72.667 70.333 72.667 L 68.667 72.667 68.667 76.333 L 68.667 80.000 74.000 80.000 L 79.333 80.000 79.333 52.250 L 79.333 24.500 74.000 24.500 L 68.667 24.500 68.667 28.167 M147.882 26.167 C 147.807 26.454,147.653 26.500,146.772 26.503 C 145.690 26.505,145.215 26.673,145.408 26.985 C 145.472 27.090,145.463 27.164,145.387 27.151 C 144.642 27.022,143.794 27.198,143.715 27.500 C 143.647 27.761,143.488 27.833,142.981 27.833 C 142.444 27.833,142.333 27.891,142.333 28.167 C 142.333 28.444,142.222 28.500,141.667 28.500 C 141.111 28.500,141.000 28.556,141.000 28.833 C 141.000 29.095,140.889 29.167,140.484 29.167 C 140.109 29.167,139.945 29.257,139.882 29.500 C 139.825 29.716,139.654 29.833,139.397 29.833 C 139.111 29.833,139.000 29.927,139.000 30.167 C 139.000 30.389,138.889 30.500,138.667 30.500 C 138.444 30.500,138.333 30.611,138.333 30.833 C 138.333 31.056,138.222 31.167,138.000 31.167 C 137.778 31.167,137.667 31.278,137.667 31.500 C 137.667 31.722,137.556 31.833,137.333 31.833 C 137.111 31.833,137.000 31.944,137.000 32.167 C 137.000 32.389,136.889 32.500,136.667 32.500 C 136.444 32.500,136.333 32.611,136.333 32.833 C 136.333 33.056,136.222 33.167,136.000 33.167 C 135.778 33.167,135.667 33.278,135.667 33.500 C 135.667 33.722,135.556 33.833,135.333 33.833 C 135.118 33.833,135.000 33.944,135.000 34.147 C 135.000 34.321,134.851 34.500,134.667 34.548 C 134.411 34.615,134.333 34.776,134.333 35.234 C 134.333 35.722,134.271 35.833,134.000 35.833 C 133.793 35.833,133.667 35.944,133.667 36.127 C 133.667 36.288,133.517 36.513,133.333 36.628 C 133.126 36.758,133.000 37.017,133.000 37.315 C 133.000 37.654,132.902 37.820,132.667 37.882 C 132.414 37.948,132.333 38.109,132.333 38.548 C 132.333 38.988,132.253 39.149,132.000 39.215 C 131.717 39.289,131.667 39.442,131.667 40.234 C 131.667 41.056,131.627 41.167,131.333 41.167 C 131.037 41.167,131.000 41.278,131.000 42.167 C 131.000 43.056,130.963 43.167,130.667 43.167 C 130.361 43.167,130.333 43.278,130.333 44.500 C 130.333 45.722,130.306 45.833,130.000 45.833 C 129.679 45.833,129.667 45.944,129.667 48.827 C 129.667 51.651,129.648 51.832,129.333 52.000 C 128.796 52.288,128.876 54.500,129.424 54.500 C 129.600 54.500,129.657 55.168,129.698 57.679 C 129.744 60.500,129.783 60.876,130.042 61.020 C 130.269 61.147,130.333 61.404,130.333 62.175 C 130.333 62.944,130.408 63.241,130.667 63.500 C 130.889 63.722,131.000 64.056,131.000 64.500 C 131.000 65.056,131.056 65.167,131.333 65.167 C 131.616 65.167,131.667 65.278,131.667 65.903 C 131.667 66.798,131.794 67.167,132.101 67.167 C 132.229 67.167,132.333 67.324,132.333 67.516 C 132.333 67.724,132.467 67.900,132.667 67.952 C 132.919 68.018,133.000 68.179,133.000 68.618 C 133.000 69.058,133.081 69.219,133.333 69.285 C 133.517 69.333,133.667 69.476,133.667 69.603 C 133.667 69.730,133.817 69.983,134.000 70.167 C 134.183 70.350,134.333 70.650,134.333 70.833 C 134.333 71.027,134.444 71.167,134.599 71.167 C 134.745 71.167,134.903 71.314,134.950 71.494 C 134.997 71.675,135.178 71.867,135.351 71.922 C 135.525 71.977,135.667 72.125,135.667 72.250 C 135.667 72.375,135.817 72.525,136.000 72.583 C 136.183 72.642,136.333 72.792,136.333 72.917 C 136.333 73.042,136.483 73.192,136.667 73.250 C 136.850 73.308,137.000 73.428,137.000 73.516 C 137.000 73.605,137.131 73.725,137.292 73.784 C 137.452 73.844,137.749 74.066,137.950 74.279 C 138.152 74.492,138.462 74.667,138.639 74.667 C 138.821 74.667,138.999 74.812,139.048 75.000 C 139.096 75.183,139.255 75.333,139.401 75.333 C 139.547 75.333,139.817 75.483,140.000 75.667 C 140.183 75.850,140.446 76.000,140.583 76.000 C 140.721 76.000,140.983 76.150,141.167 76.333 C 141.350 76.517,141.669 76.667,141.877 76.667 C 142.084 76.667,142.347 76.817,142.461 77.000 C 142.623 77.259,142.850 77.333,143.482 77.333 C 144.154 77.333,144.309 77.391,144.382 77.667 C 144.456 77.949,144.609 78.000,145.390 78.000 C 146.164 78.000,146.328 78.053,146.417 78.333 C 146.511 78.630,146.669 78.667,147.845 78.667 C 148.864 78.667,149.167 78.720,149.167 78.899 C 149.167 79.497,160.667 79.595,161.039 79.000 C 161.214 78.719,161.429 78.666,162.415 78.664 C 163.807 78.662,164.333 78.543,164.333 78.231 C 164.333 78.070,164.552 78.000,165.058 78.000 C 165.570 78.000,165.870 77.903,166.083 77.667 C 166.249 77.483,166.592 77.333,166.846 77.333 C 167.475 77.333,167.833 77.176,167.833 76.899 C 167.833 76.743,168.031 76.667,168.432 76.667 C 168.891 76.667,169.052 76.589,169.118 76.333 C 169.167 76.149,169.346 76.000,169.519 76.000 C 169.722 76.000,169.833 75.882,169.833 75.667 C 169.833 75.425,169.944 75.333,170.236 75.333 C 170.812 75.333,171.167 75.168,171.167 74.899 C 171.167 74.771,171.317 74.667,171.500 74.667 C 171.722 74.667,171.833 74.556,171.833 74.333 C 171.833 74.111,171.944 74.000,172.167 74.000 C 172.389 74.000,172.500 73.889,172.500 73.667 C 172.500 73.444,172.611 73.333,172.833 73.333 C 173.056 73.333,173.167 73.222,173.167 73.000 C 173.167 72.778,173.278 72.667,173.500 72.667 C 173.722 72.667,173.833 72.556,173.833 72.333 C 173.833 72.111,173.944 72.000,174.167 72.000 C 174.389 72.000,174.500 71.889,174.500 71.667 C 174.500 71.479,174.611 71.333,174.754 71.333 C 174.894 71.333,175.080 71.146,175.167 70.917 C 175.254 70.688,175.439 70.500,175.579 70.500 C 175.757 70.500,175.833 70.330,175.833 69.936 C 175.833 69.512,175.916 69.351,176.167 69.285 C 176.422 69.218,176.500 69.058,176.500 68.599 C 176.500 68.111,176.562 68.000,176.833 68.000 C 177.117 68.000,177.167 67.889,177.167 67.250 C 177.167 66.611,177.216 66.500,177.500 66.500 C 177.806 66.500,177.833 66.389,177.833 65.167 C 177.833 63.944,177.861 63.833,178.167 63.833 C 178.465 63.833,178.500 63.723,178.497 62.792 C 178.494 61.275,178.482 61.266,176.356 61.193 C 174.734 61.138,174.520 61.096,174.447 60.815 C 174.373 60.534,174.194 60.500,172.766 60.500 C 171.510 60.500,171.167 60.450,171.167 60.268 C 171.167 59.908,170.777 59.833,168.903 59.833 C 167.252 59.833,167.167 59.850,167.167 60.182 C 167.167 60.391,167.033 60.566,166.833 60.618 C 166.583 60.684,166.500 60.846,166.500 61.269 C 166.500 61.611,166.369 61.965,166.167 62.167 C 165.983 62.350,165.833 62.688,165.833 62.917 C 165.833 63.222,165.744 63.333,165.500 63.333 C 165.230 63.333,165.167 63.444,165.167 63.917 C 165.167 64.328,165.092 64.500,164.913 64.500 C 164.773 64.500,164.587 64.688,164.500 64.917 C 164.413 65.146,164.227 65.333,164.087 65.333 C 163.944 65.333,163.833 65.479,163.833 65.667 C 163.833 65.889,163.722 66.000,163.500 66.000 C 163.278 66.000,163.167 66.111,163.167 66.333 C 163.167 66.556,163.056 66.667,162.833 66.667 C 162.611 66.667,162.500 66.778,162.500 67.000 C 162.500 67.284,162.389 67.333,161.748 67.333 C 161.203 67.333,160.918 67.425,160.711 67.667 C 160.487 67.929,160.220 68.000,159.463 68.000 C 158.722 68.000,158.423 68.077,158.167 68.333 C 157.876 68.624,157.611 68.667,156.103 68.667 C 154.512 68.667,154.365 68.640,154.285 68.333 C 154.206 68.031,154.058 68.000,152.702 68.000 C 151.346 68.000,151.197 67.969,151.118 67.667 C 151.049 67.402,150.891 67.333,150.349 67.333 C 149.778 67.333,149.667 67.279,149.667 67.000 C 149.667 66.759,149.556 66.667,149.264 66.667 C 148.696 66.667,148.333 66.502,148.333 66.243 C 148.333 66.122,148.183 65.975,148.000 65.917 C 147.817 65.858,147.667 65.708,147.667 65.583 C 147.667 65.458,147.517 65.308,147.333 65.250 C 147.150 65.192,147.000 65.042,147.000 64.917 C 147.000 64.792,146.850 64.642,146.667 64.583 C 146.480 64.524,146.333 64.331,146.333 64.144 C 146.333 63.887,146.257 63.835,146.000 63.917 C 145.705 64.010,145.667 63.947,145.667 63.356 C 145.667 62.836,145.593 62.666,145.333 62.583 C 145.083 62.504,145.000 62.331,145.000 61.890 C 145.000 61.442,144.921 61.281,144.667 61.215 C 144.386 61.142,144.333 60.988,144.333 60.242 C 144.333 59.502,144.278 59.338,144.000 59.250 C 143.698 59.154,143.667 58.998,143.667 57.572 C 143.667 56.447,143.607 55.988,143.458 55.960 C 143.344 55.937,150.862 55.881,160.167 55.835 L 177.083 55.750 177.133 54.809 C 177.173 54.039,177.242 53.853,177.508 53.783 C 178.023 53.648,178.016 43.350,177.500 43.215 C 177.202 43.137,177.167 42.988,177.167 41.814 C 177.167 40.611,177.138 40.500,176.833 40.500 C 176.537 40.500,176.500 40.389,176.500 39.500 C 176.500 38.611,176.463 38.500,176.167 38.500 C 175.889 38.500,175.833 38.389,175.833 37.833 C 175.833 37.278,175.778 37.167,175.500 37.167 C 175.229 37.167,175.167 37.056,175.167 36.568 C 175.167 36.109,175.089 35.948,174.833 35.882 C 174.649 35.833,174.500 35.654,174.500 35.481 C 174.500 35.278,174.382 35.167,174.167 35.167 C 173.895 35.167,173.833 35.056,173.833 34.568 C 173.833 34.109,173.755 33.948,173.500 33.882 C 173.316 33.833,173.167 33.654,173.167 33.481 C 173.167 33.278,173.049 33.167,172.833 33.167 C 172.611 33.167,172.500 33.056,172.500 32.833 C 172.500 32.611,172.389 32.500,172.167 32.500 C 171.944 32.500,171.833 32.389,171.833 32.167 C 171.833 31.944,171.722 31.833,171.500 31.833 C 171.278 31.833,171.167 31.722,171.167 31.500 C 171.167 31.278,171.056 31.167,170.833 31.167 C 170.611 31.167,170.500 31.056,170.500 30.833 C 170.500 30.611,170.389 30.500,170.167 30.500 C 169.944 30.500,169.833 30.389,169.833 30.167 C 169.833 29.922,169.722 29.833,169.417 29.833 C 169.172 29.833,169.000 29.738,169.000 29.601 C 169.000 29.346,168.650 29.167,168.153 29.167 C 167.944 29.167,167.833 29.051,167.833 28.833 C 167.833 28.556,167.722 28.500,167.167 28.500 C 166.611 28.500,166.500 28.444,166.500 28.167 C 166.500 27.889,166.389 27.833,165.833 27.833 C 165.278 27.833,165.167 27.778,165.167 27.500 C 165.167 27.219,165.056 27.167,164.457 27.167 C 163.927 27.167,163.694 27.082,163.539 26.833 C 163.366 26.556,163.150 26.500,162.260 26.500 C 161.336 26.500,161.175 26.454,161.083 26.167 C 160.980 25.841,160.831 25.833,154.473 25.833 C 148.109 25.833,147.967 25.841,147.882 26.167 M288.167 26.167 C 287.907 26.426,287.611 26.500,286.833 26.500 C 285.944 26.500,285.833 26.537,285.833 26.833 C 285.833 27.130,285.722 27.167,284.833 27.167 C 283.944 27.167,283.833 27.204,283.833 27.500 C 283.833 27.778,283.722 27.833,283.167 27.833 C 282.611 27.833,282.500 27.889,282.500 28.167 C 282.500 28.443,282.389 28.500,281.845 28.500 C 281.336 28.500,281.166 28.574,281.083 28.833 C 281.006 29.078,280.831 29.167,280.425 29.167 C 280.012 29.167,279.850 29.251,279.785 29.500 C 279.733 29.699,279.558 29.833,279.349 29.833 C 279.111 29.833,279.000 29.939,279.000 30.167 C 279.000 30.428,278.889 30.500,278.484 30.500 C 278.109 30.500,277.945 30.591,277.882 30.833 C 277.834 31.017,277.658 31.167,277.492 31.167 C 277.325 31.167,277.144 31.309,277.089 31.482 C 277.034 31.655,276.841 31.836,276.661 31.883 C 276.481 31.930,276.333 32.080,276.333 32.215 C 276.333 32.350,276.183 32.500,276.000 32.548 C 275.817 32.596,275.667 32.746,275.667 32.882 C 275.667 33.017,275.517 33.167,275.333 33.215 C 275.150 33.263,275.000 33.422,275.000 33.568 C 275.000 33.714,274.888 33.833,274.752 33.833 C 274.591 33.833,274.466 34.069,274.397 34.500 C 274.317 35.002,274.214 35.167,273.979 35.167 C 273.778 35.167,273.667 35.285,273.667 35.500 C 273.667 35.722,273.556 35.833,273.333 35.833 C 273.109 35.833,273.000 35.944,273.000 36.172 C 273.000 36.358,272.890 36.553,272.755 36.605 C 272.620 36.656,272.461 36.954,272.403 37.266 C 272.344 37.578,272.200 37.833,272.083 37.833 C 271.834 37.833,271.667 38.200,271.667 38.744 C 271.667 38.988,271.545 39.160,271.333 39.215 C 271.050 39.289,271.000 39.442,271.000 40.234 C 271.000 41.056,270.960 41.167,270.667 41.167 C 270.389 41.167,270.333 41.278,270.333 41.833 C 270.333 42.278,270.222 42.611,270.000 42.833 C 269.735 43.098,269.667 43.389,269.667 44.250 C 269.667 45.061,269.609 45.333,269.436 45.333 C 269.078 45.333,269.005 45.887,269.002 48.619 C 269.000 50.983,268.977 51.167,268.667 51.333 C 268.099 51.637,268.192 55.167,268.768 55.167 C 268.957 55.167,269.000 55.704,269.000 58.099 C 269.000 60.891,269.016 61.035,269.333 61.118 C 269.629 61.196,269.667 61.346,269.667 62.452 C 269.667 63.558,269.704 63.708,270.000 63.785 C 270.268 63.855,270.333 64.012,270.333 64.589 C 270.333 65.465,270.462 65.833,270.768 65.833 C 270.928 65.833,271.000 66.041,271.000 66.500 C 271.000 67.056,271.056 67.167,271.333 67.167 C 271.605 67.167,271.667 67.278,271.667 67.766 C 271.667 68.224,271.745 68.385,272.000 68.452 C 272.192 68.502,272.333 68.679,272.333 68.868 C 272.333 69.058,272.475 69.235,272.667 69.285 C 272.917 69.351,273.000 69.512,273.000 69.936 C 273.000 70.330,273.076 70.500,273.254 70.500 C 273.394 70.500,273.580 70.687,273.667 70.917 C 273.754 71.146,273.931 71.333,274.060 71.333 C 274.189 71.333,274.334 71.483,274.382 71.667 C 274.430 71.850,274.580 72.000,274.715 72.000 C 274.850 72.000,275.000 72.150,275.048 72.333 C 275.096 72.517,275.246 72.667,275.382 72.667 C 275.517 72.667,275.667 72.817,275.715 73.000 C 275.763 73.183,275.913 73.333,276.048 73.333 C 276.184 73.333,276.334 73.483,276.382 73.667 C 276.430 73.850,276.588 74.000,276.734 74.000 C 276.880 74.000,277.000 74.111,277.000 74.247 C 277.000 74.383,277.182 74.539,277.405 74.595 C 277.627 74.651,277.847 74.795,277.893 74.916 C 277.940 75.037,278.200 75.184,278.472 75.244 C 278.763 75.308,279.001 75.486,279.051 75.676 C 279.114 75.919,279.281 76.000,279.715 76.000 C 280.154 76.000,280.316 76.081,280.382 76.333 C 280.434 76.535,280.609 76.667,280.825 76.667 C 281.020 76.667,281.342 76.817,281.538 77.000 C 281.766 77.212,282.127 77.333,282.531 77.333 C 283.056 77.333,283.167 77.392,283.167 77.667 C 283.167 77.962,283.278 78.000,284.147 78.000 C 284.988 78.000,285.140 78.048,285.215 78.333 C 285.292 78.630,285.442 78.667,286.568 78.667 C 287.538 78.667,287.833 78.721,287.833 78.899 C 287.833 79.304,288.244 79.333,293.833 79.333 C 299.422 79.333,299.833 79.304,299.833 78.899 C 299.833 78.720,300.138 78.667,301.167 78.667 C 302.389 78.667,302.500 78.639,302.500 78.333 C 302.500 78.040,302.611 78.000,303.432 78.000 C 304.224 78.000,304.378 77.950,304.452 77.667 C 304.520 77.406,304.679 77.333,305.186 77.333 C 305.611 77.333,305.948 77.219,306.167 77.000 C 306.350 76.817,306.650 76.667,306.833 76.667 C 307.048 76.667,307.167 76.556,307.167 76.355 C 307.167 76.119,307.331 76.016,307.833 75.936 C 308.265 75.867,308.500 75.742,308.500 75.581 C 308.500 75.445,308.620 75.333,308.766 75.333 C 308.912 75.333,309.070 75.183,309.118 75.000 C 309.167 74.816,309.346 74.667,309.519 74.667 C 309.722 74.667,309.833 74.549,309.833 74.333 C 309.833 74.139,309.944 74.000,310.099 74.000 C 310.245 74.000,310.402 73.857,310.448 73.682 C 310.493 73.507,310.674 73.327,310.849 73.281 C 311.034 73.233,311.167 73.052,311.167 72.849 C 311.167 72.611,311.273 72.500,311.500 72.500 C 311.770 72.500,311.833 72.389,311.833 71.917 C 311.833 71.444,311.897 71.333,312.167 71.333 C 312.382 71.333,312.500 71.222,312.500 71.019 C 312.500 70.846,312.649 70.667,312.833 70.618 C 313.089 70.552,313.167 70.391,313.167 69.932 C 313.167 69.444,313.229 69.333,313.500 69.333 C 313.735 69.333,313.833 69.222,313.833 68.957 C 313.833 68.750,313.983 68.487,314.167 68.372 C 314.379 68.239,314.500 67.983,314.500 67.665 C 314.500 67.278,314.574 67.167,314.833 67.167 C 315.130 67.167,315.167 67.056,315.167 66.167 C 315.167 65.278,315.204 65.167,315.500 65.167 C 315.774 65.167,315.833 65.056,315.833 64.540 C 315.833 64.094,315.929 63.854,316.167 63.705 C 316.459 63.523,316.500 63.317,316.500 62.018 C 316.500 60.679,316.532 60.531,316.833 60.452 C 317.074 60.389,317.167 60.224,317.167 59.859 C 317.167 59.252,316.920 59.046,316.682 59.455 C 316.542 59.696,316.509 59.635,316.505 59.125 L 316.500 58.500 314.853 58.500 C 313.346 58.500,313.198 58.472,313.118 58.167 C 313.039 57.863,312.891 57.833,311.432 57.833 C 310.177 57.833,309.833 57.783,309.833 57.601 C 309.833 57.239,309.443 57.167,307.500 57.167 C 305.072 57.167,305.167 57.106,305.167 58.665 C 305.167 59.821,305.131 59.971,304.833 60.048 C 304.556 60.121,304.500 60.276,304.500 60.973 C 304.500 61.664,304.442 61.829,304.167 61.917 C 303.920 61.995,303.833 62.169,303.833 62.583 C 303.833 62.998,303.746 63.172,303.500 63.250 C 303.239 63.333,303.167 63.502,303.167 64.029 C 303.167 64.576,303.117 64.683,302.901 64.600 C 302.725 64.533,302.607 64.609,302.550 64.827 C 302.503 65.008,302.322 65.201,302.149 65.256 C 301.975 65.311,301.833 65.470,301.833 65.610 C 301.833 65.750,301.683 65.904,301.500 65.952 C 301.316 66.000,301.167 66.179,301.167 66.353 C 301.167 66.599,301.044 66.667,300.595 66.667 C 300.169 66.667,299.995 66.752,299.917 67.000 C 299.843 67.233,299.664 67.333,299.324 67.333 C 299.017 67.333,298.759 67.457,298.628 67.667 C 298.459 67.937,298.239 68.000,297.460 68.000 C 296.611 68.000,296.500 68.039,296.500 68.333 C 296.500 68.644,296.389 68.667,294.853 68.667 C 293.346 68.667,293.198 68.638,293.118 68.333 C 293.041 68.037,292.891 68.000,291.777 68.000 C 290.669 68.000,290.510 67.961,290.417 67.667 C 290.334 67.408,290.164 67.333,289.655 67.333 C 289.111 67.333,289.000 67.277,289.000 67.000 C 289.000 66.730,288.889 66.667,288.417 66.667 C 287.994 66.667,287.833 66.593,287.833 66.401 C 287.833 66.255,287.686 66.097,287.506 66.050 C 287.325 66.003,287.133 65.822,287.078 65.649 C 287.023 65.475,286.875 65.333,286.750 65.333 C 286.625 65.333,286.475 65.183,286.417 65.000 C 286.358 64.817,286.203 64.667,286.072 64.667 C 285.941 64.667,285.833 64.557,285.833 64.423 C 285.833 64.288,285.687 64.100,285.507 64.004 C 285.325 63.907,285.133 63.572,285.072 63.248 C 285.012 62.928,284.865 62.667,284.746 62.667 C 284.623 62.667,284.481 62.378,284.417 62.000 C 284.347 61.590,284.213 61.333,284.069 61.333 C 283.912 61.333,283.833 61.143,283.833 60.761 C 283.833 59.993,283.566 59.333,283.254 59.333 C 283.043 59.333,283.000 59.049,283.000 57.667 C 283.000 56.111,282.978 56.000,282.667 56.000 C 282.344 56.000,282.333 55.889,282.333 52.583 C 282.333 49.278,282.344 49.167,282.667 49.167 C 282.977 49.167,283.000 49.056,283.000 47.561 C 283.000 46.062,283.028 45.929,283.417 45.569 C 283.730 45.278,283.833 45.014,283.833 44.503 C 283.833 44.073,283.919 43.790,284.067 43.733 C 284.195 43.684,284.350 43.382,284.410 43.062 C 284.470 42.743,284.664 42.336,284.843 42.157 C 285.021 41.979,285.167 41.683,285.167 41.500 C 285.167 41.315,285.278 41.167,285.417 41.167 C 285.554 41.167,285.667 41.065,285.667 40.941 C 285.667 40.817,285.835 40.528,286.042 40.300 C 286.912 39.335,287.167 38.984,287.167 38.749 C 287.167 38.574,287.346 38.500,287.766 38.500 C 288.224 38.500,288.385 38.422,288.452 38.167 C 288.513 37.932,288.679 37.833,289.014 37.833 C 289.318 37.833,289.552 37.714,289.667 37.500 C 289.812 37.228,290.016 37.167,290.771 37.167 C 291.558 37.167,291.711 37.116,291.785 36.833 C 291.868 36.516,292.012 36.500,294.833 36.500 C 297.654 36.500,297.799 36.516,297.882 36.833 C 297.959 37.130,298.109 37.167,299.234 37.167 C 300.389 37.167,300.500 37.196,300.500 37.500 C 300.500 37.776,300.611 37.833,301.147 37.833 C 301.654 37.833,301.813 37.906,301.882 38.167 C 301.930 38.350,302.088 38.500,302.234 38.500 C 302.389 38.500,302.500 38.639,302.500 38.833 C 302.500 39.017,302.647 39.314,302.826 39.493 C 303.088 39.755,303.163 40.094,303.201 41.201 C 303.238 42.242,303.305 42.572,303.471 42.538 C 303.592 42.512,303.647 42.563,303.593 42.651 C 303.539 42.739,303.571 42.857,303.664 42.915 C 303.757 42.973,303.833 43.653,303.833 44.427 C 303.833 45.722,303.860 45.833,304.167 45.833 C 304.389 45.833,304.500 45.944,304.500 46.167 C 304.500 46.489,304.611 46.500,307.833 46.500 C 311.056 46.500,311.167 46.489,311.167 46.167 C 311.167 45.852,311.278 45.833,313.167 45.833 L 315.167 45.833 315.167 43.901 C 315.167 42.109,315.142 41.962,314.833 41.882 C 314.521 41.800,314.500 41.654,314.500 39.548 C 314.500 37.442,314.479 37.297,314.167 37.215 C 313.854 37.133,313.833 36.988,313.833 34.882 C 313.833 32.776,313.813 32.630,313.500 32.548 C 313.214 32.474,313.167 32.321,313.167 31.481 C 313.167 30.611,313.129 30.500,312.833 30.500 C 312.611 30.500,312.500 30.389,312.500 30.167 C 312.500 29.958,312.389 29.833,312.204 29.833 C 312.041 29.833,311.779 29.683,311.622 29.500 C 311.465 29.317,311.165 29.167,310.955 29.167 C 310.746 29.167,310.446 29.017,310.289 28.833 C 310.082 28.591,309.797 28.500,309.252 28.500 C 308.611 28.500,308.500 28.451,308.500 28.167 C 308.500 27.891,308.389 27.833,307.853 27.833 C 307.346 27.833,307.187 27.761,307.118 27.500 C 307.041 27.204,306.891 27.167,305.766 27.167 C 304.611 27.167,304.500 27.137,304.500 26.833 C 304.500 26.526,304.389 26.500,303.083 26.500 C 301.984 26.500,301.667 26.448,301.667 26.268 C 301.667 25.860,301.254 25.833,294.820 25.833 C 288.722 25.833,288.488 25.845,288.167 26.167 M179.944 26.611 C 179.806 26.750,179.796 36.542,179.934 36.903 C 180.022 37.130,180.451 37.167,183.000 37.167 C 185.481 37.167,185.980 37.207,186.060 37.417 C 186.113 37.554,186.271 37.667,186.411 37.667 C 186.556 37.667,186.667 37.812,186.667 38.000 C 186.667 38.194,186.778 38.333,186.932 38.333 C 187.078 38.333,187.236 38.481,187.284 38.661 C 187.331 38.841,187.503 39.031,187.667 39.083 C 187.830 39.135,188.003 39.325,188.050 39.506 C 188.097 39.686,188.246 39.833,188.382 39.833 C 188.517 39.833,188.667 39.983,188.715 40.167 C 188.763 40.350,188.922 40.500,189.068 40.500 C 189.222 40.500,189.333 40.639,189.333 40.833 C 189.333 41.056,189.444 41.167,189.667 41.167 C 189.889 41.167,190.000 41.278,190.000 41.500 C 190.000 41.722,190.111 41.833,190.333 41.833 C 190.556 41.833,190.667 41.944,190.667 42.167 C 190.667 42.389,190.778 42.500,191.000 42.500 C 191.222 42.500,191.333 42.611,191.333 42.833 C 191.333 43.056,191.444 43.167,191.667 43.167 C 191.889 43.167,192.000 43.278,192.000 43.500 C 192.000 43.722,192.111 43.833,192.333 43.833 C 192.556 43.833,192.667 43.944,192.667 44.167 C 192.667 44.389,192.778 44.500,193.000 44.500 C 193.222 44.500,193.333 44.611,193.333 44.833 C 193.333 45.056,193.444 45.167,193.667 45.167 C 193.889 45.167,194.000 45.278,194.000 45.500 C 194.000 45.722,194.111 45.833,194.333 45.833 C 194.556 45.833,194.667 45.944,194.667 46.167 C 194.667 46.389,194.778 46.500,195.000 46.500 C 195.222 46.500,195.333 46.611,195.333 46.833 C 195.333 47.056,195.444 47.167,195.667 47.167 C 195.889 47.167,196.000 47.278,196.000 47.500 C 196.000 47.722,196.111 47.833,196.333 47.833 C 196.556 47.833,196.667 47.944,196.667 48.167 C 196.667 48.389,196.778 48.500,197.000 48.500 C 197.222 48.500,197.333 48.611,197.333 48.833 C 197.333 49.056,197.444 49.167,197.667 49.167 C 197.889 49.167,198.000 49.278,198.000 49.500 C 198.000 49.722,198.111 49.833,198.333 49.833 C 198.551 49.833,198.667 49.944,198.667 50.153 C 198.667 50.451,198.844 50.708,199.792 51.788 C 199.998 52.023,200.167 52.279,200.167 52.358 C 200.167 52.436,200.279 52.500,200.417 52.500 C 200.556 52.500,200.667 52.648,200.667 52.833 C 200.667 53.056,200.556 53.167,200.333 53.167 C 200.111 53.167,200.000 53.278,200.000 53.500 C 200.000 53.722,199.889 53.833,199.667 53.833 C 199.444 53.833,199.333 53.944,199.333 54.167 C 199.333 54.361,199.222 54.500,199.068 54.500 C 198.922 54.500,198.763 54.650,198.715 54.833 C 198.667 55.017,198.517 55.167,198.382 55.167 C 198.246 55.167,198.096 55.317,198.048 55.500 C 198.000 55.683,197.850 55.833,197.715 55.833 C 197.580 55.833,197.430 55.981,197.383 56.161 C 197.336 56.341,197.155 56.534,196.982 56.589 C 196.809 56.644,196.667 56.804,196.667 56.944 C 196.667 57.083,196.517 57.237,196.333 57.285 C 196.149 57.333,196.000 57.512,196.000 57.686 C 196.000 57.859,195.885 58.000,195.745 58.000 C 195.604 58.000,195.441 58.131,195.381 58.292 C 195.321 58.452,195.136 58.681,194.969 58.801 C 194.792 58.929,194.667 59.227,194.667 59.521 C 194.667 59.947,194.616 60.006,194.333 59.917 C 194.073 59.834,194.000 59.887,194.000 60.155 C 194.000 60.389,193.893 60.500,193.667 60.500 C 193.444 60.500,193.333 60.611,193.333 60.833 C 193.333 61.056,193.222 61.167,193.000 61.167 C 192.778 61.167,192.667 61.278,192.667 61.500 C 192.667 61.722,192.556 61.833,192.333 61.833 C 192.118 61.833,192.000 61.944,192.000 62.147 C 192.000 62.321,191.851 62.500,191.667 62.548 C 191.483 62.596,191.333 62.746,191.333 62.882 C 191.333 63.017,191.183 63.167,191.000 63.215 C 190.817 63.263,190.667 63.417,190.667 63.556 C 190.667 63.696,190.517 63.858,190.333 63.917 C 190.150 63.975,190.000 64.137,190.000 64.277 C 190.000 64.417,189.850 64.570,189.667 64.618 C 189.482 64.667,189.333 64.846,189.333 65.019 C 189.333 65.222,189.215 65.333,189.000 65.333 C 188.778 65.333,188.667 65.444,188.667 65.667 C 188.667 65.889,188.556 66.000,188.333 66.000 C 188.111 66.000,188.000 66.111,188.000 66.333 C 188.000 66.556,187.889 66.667,187.667 66.667 C 187.451 66.667,187.333 66.778,187.333 66.981 C 187.333 67.154,187.184 67.333,187.000 67.382 C 186.817 67.430,186.667 67.588,186.667 67.734 C 186.667 67.969,186.265 68.000,183.248 68.000 L 179.828 68.000 179.873 72.958 L 179.917 77.917 191.625 77.959 L 203.333 78.002 203.333 73.001 L 203.333 68.000 201.792 67.987 C 200.944 67.980,200.344 67.936,200.458 67.890 C 200.573 67.843,200.667 67.662,200.667 67.486 C 200.667 67.310,200.781 67.167,200.922 67.167 C 201.062 67.167,201.225 67.041,201.284 66.888 C 201.343 66.734,201.528 66.472,201.696 66.304 C 201.863 66.137,202.000 65.813,202.000 65.583 C 202.000 65.278,202.089 65.167,202.333 65.167 C 202.556 65.167,202.667 65.056,202.667 64.833 C 202.667 64.611,202.778 64.500,203.000 64.500 C 203.222 64.500,203.333 64.389,203.333 64.167 C 203.333 63.944,203.444 63.833,203.667 63.833 C 203.889 63.833,204.000 63.722,204.000 63.500 C 204.000 63.278,204.111 63.167,204.333 63.167 C 204.556 63.167,204.667 63.056,204.667 62.833 C 204.667 62.611,204.778 62.500,205.000 62.500 C 205.215 62.500,205.333 62.389,205.333 62.186 C 205.333 62.012,205.482 61.833,205.667 61.785 C 205.850 61.737,206.000 61.578,206.000 61.432 C 206.000 61.286,206.150 61.017,206.333 60.833 C 206.517 60.650,206.667 60.350,206.667 60.167 C 206.667 59.944,206.778 59.833,207.000 59.833 C 207.222 59.833,207.333 59.722,207.333 59.500 C 207.333 59.278,207.444 59.167,207.667 59.167 C 207.889 59.167,208.000 59.278,208.000 59.500 C 208.000 59.722,208.111 59.833,208.333 59.833 C 208.517 59.833,208.672 59.890,208.679 59.958 C 208.738 60.557,208.892 60.946,209.171 61.206 C 209.352 61.375,209.500 61.585,209.500 61.673 C 209.500 61.761,209.604 61.833,209.731 61.833 C 209.857 61.833,210.000 61.983,210.048 62.167 C 210.096 62.350,210.246 62.500,210.382 62.500 C 210.517 62.500,210.667 62.650,210.715 62.833 C 210.763 63.017,210.922 63.167,211.068 63.167 C 211.222 63.167,211.333 63.306,211.333 63.500 C 211.333 63.722,211.444 63.833,211.667 63.833 C 211.889 63.833,212.000 63.944,212.000 64.167 C 212.000 64.389,212.111 64.500,212.333 64.500 C 212.556 64.500,212.667 64.611,212.667 64.833 C 212.667 65.049,212.778 65.167,212.981 65.167 C 213.211 65.167,213.327 65.329,213.409 65.768 C 213.483 66.164,213.632 66.399,213.844 66.455 C 214.022 66.501,214.167 66.680,214.167 66.853 C 214.167 67.056,214.285 67.167,214.500 67.167 C 214.717 67.167,214.833 67.278,214.833 67.486 C 214.833 67.662,214.927 67.843,215.042 67.890 C 215.156 67.936,214.368 67.980,213.289 67.987 L 211.328 68.000 211.373 72.958 L 211.417 77.917 224.125 77.959 L 236.833 78.002 236.833 73.001 L 236.833 68.000 234.083 68.000 C 231.725 68.000,231.333 67.964,231.333 67.745 C 231.333 67.604,231.224 67.447,231.090 67.396 C 230.956 67.345,230.801 67.159,230.745 66.985 C 230.690 66.810,230.537 66.667,230.405 66.667 C 230.274 66.667,230.167 66.547,230.167 66.401 C 230.167 66.255,230.017 66.096,229.833 66.048 C 229.649 66.000,229.500 65.821,229.500 65.647 C 229.500 65.444,229.382 65.333,229.167 65.333 C 228.944 65.333,228.833 65.222,228.833 65.000 C 228.833 64.778,228.722 64.667,228.500 64.667 C 228.285 64.667,228.167 64.556,228.167 64.353 C 228.167 64.179,228.018 64.000,227.833 63.952 C 227.650 63.904,227.500 63.750,227.500 63.610 C 227.500 63.470,227.350 63.308,227.167 63.250 C 226.983 63.192,226.833 63.030,226.833 62.890 C 226.833 62.750,226.683 62.596,226.500 62.548 C 226.317 62.500,226.167 62.350,226.167 62.215 C 226.167 62.080,226.017 61.930,225.833 61.882 C 225.650 61.834,225.500 61.684,225.500 61.548 C 225.500 61.413,225.350 61.263,225.167 61.215 C 224.983 61.167,224.833 61.017,224.833 60.882 C 224.833 60.746,224.683 60.596,224.500 60.548 C 224.317 60.500,224.167 60.350,224.167 60.215 C 224.167 60.080,224.017 59.930,223.833 59.882 C 223.650 59.834,223.499 59.709,223.498 59.606 C 223.495 59.395,222.947 58.652,222.375 58.084 C 222.169 57.879,222.000 57.627,222.000 57.523 C 222.000 57.418,221.885 57.333,221.745 57.333 C 221.604 57.333,221.445 57.217,221.390 57.075 C 221.336 56.933,221.001 56.514,220.646 56.145 C 220.291 55.775,220.000 55.404,220.000 55.320 C 220.000 55.236,219.893 55.167,219.761 55.167 C 219.630 55.167,219.475 55.017,219.417 54.833 C 219.358 54.650,219.212 54.500,219.092 54.500 C 218.971 54.500,218.833 54.350,218.785 54.167 C 218.737 53.983,218.587 53.833,218.452 53.833 C 218.316 53.833,218.166 53.683,218.118 53.500 C 218.070 53.317,217.920 53.167,217.785 53.167 C 217.650 53.167,217.500 53.017,217.452 52.833 C 217.404 52.650,217.254 52.500,217.118 52.500 C 216.983 52.500,216.833 52.350,216.785 52.167 C 216.733 51.967,216.558 51.833,216.349 51.833 C 216.111 51.833,216.000 51.727,216.000 51.500 C 216.000 51.256,216.111 51.167,216.417 51.167 C 216.722 51.167,216.833 51.078,216.833 50.833 C 216.833 50.611,216.944 50.500,217.167 50.500 C 217.389 50.500,217.500 50.389,217.500 50.167 C 217.500 49.944,217.611 49.833,217.833 49.833 C 218.056 49.833,218.167 49.722,218.167 49.500 C 218.167 49.278,218.278 49.167,218.500 49.167 C 218.722 49.167,218.833 49.056,218.833 48.833 C 218.833 48.639,218.944 48.500,219.099 48.500 C 219.245 48.500,219.404 48.350,219.452 48.167 C 219.500 47.983,219.650 47.833,219.785 47.833 C 219.920 47.833,220.070 47.683,220.118 47.500 C 220.166 47.317,220.316 47.167,220.452 47.167 C 220.587 47.167,220.737 47.017,220.785 46.833 C 220.833 46.650,220.983 46.500,221.118 46.500 C 221.254 46.500,221.404 46.350,221.452 46.167 C 221.500 45.983,221.650 45.833,221.785 45.833 C 221.920 45.833,222.070 45.683,222.118 45.500 C 222.166 45.317,222.316 45.167,222.452 45.167 C 222.587 45.167,222.735 45.024,222.781 44.849 C 222.827 44.674,223.007 44.493,223.182 44.448 C 223.357 44.402,223.500 44.254,223.500 44.118 C 223.500 43.983,223.650 43.833,223.833 43.785 C 224.017 43.737,224.167 43.587,224.167 43.452 C 224.167 43.316,224.317 43.166,224.500 43.118 C 224.683 43.070,224.833 42.912,224.833 42.766 C 224.833 42.620,224.941 42.500,225.072 42.500 C 225.203 42.500,225.358 42.350,225.417 42.167 C 225.475 41.983,225.630 41.833,225.761 41.833 C 225.893 41.833,226.000 41.766,226.000 41.684 C 226.000 41.602,226.338 41.178,226.750 40.741 C 227.162 40.304,227.500 39.884,227.500 39.807 C 227.500 39.730,227.612 39.667,227.750 39.667 C 227.887 39.667,228.000 39.582,228.000 39.477 C 228.000 39.373,228.188 39.114,228.417 38.902 C 228.646 38.690,228.833 38.362,228.833 38.175 C 228.833 37.944,228.942 37.833,229.167 37.833 C 229.389 37.833,229.500 37.722,229.500 37.500 C 229.500 37.179,229.611 37.167,232.500 37.167 L 235.500 37.167 235.500 31.833 L 235.500 26.500 224.186 26.500 L 212.872 26.500 212.772 26.875 C 212.633 27.391,212.672 36.151,212.815 36.667 C 212.927 37.070,212.983 37.085,214.549 37.131 C 216.029 37.175,216.167 37.207,216.167 37.506 C 216.167 37.718,216.054 37.833,215.845 37.833 C 215.667 37.833,215.475 37.983,215.417 38.167 C 215.358 38.350,215.196 38.500,215.056 38.500 C 214.917 38.500,214.763 38.650,214.715 38.833 C 214.667 39.017,214.529 39.167,214.408 39.167 C 214.288 39.167,214.142 39.317,214.083 39.500 C 214.025 39.683,213.875 39.833,213.750 39.833 C 213.625 39.833,213.475 39.983,213.417 40.167 C 213.358 40.350,213.203 40.500,213.072 40.500 C 212.941 40.500,212.833 40.610,212.833 40.744 C 212.833 40.878,212.683 41.069,212.500 41.167 C 212.317 41.265,212.167 41.428,212.167 41.528 C 212.167 41.629,211.979 41.886,211.750 42.098 C 211.521 42.310,211.333 42.638,211.333 42.825 C 211.333 43.056,211.225 43.167,211.000 43.167 C 210.778 43.167,210.667 43.278,210.667 43.500 C 210.667 43.722,210.556 43.833,210.333 43.833 C 210.111 43.833,210.000 43.944,210.000 44.167 C 210.000 44.389,209.889 44.500,209.667 44.500 C 209.444 44.500,209.333 44.611,209.333 44.833 C 209.333 45.056,209.222 45.167,209.000 45.167 C 208.778 45.167,208.667 45.056,208.667 44.833 C 208.667 44.611,208.556 44.500,208.333 44.500 C 208.111 44.500,208.000 44.389,208.000 44.167 C 208.000 43.944,207.889 43.833,207.667 43.833 C 207.398 43.833,207.333 43.722,207.333 43.261 C 207.333 42.836,207.248 42.662,207.000 42.583 C 206.817 42.525,206.667 42.333,206.667 42.155 C 206.667 41.944,206.552 41.833,206.333 41.833 C 206.111 41.833,206.000 41.722,206.000 41.500 C 206.000 41.278,205.889 41.167,205.667 41.167 C 205.444 41.167,205.333 41.056,205.333 40.833 C 205.333 40.611,205.222 40.500,205.000 40.500 C 204.778 40.500,204.667 40.389,204.667 40.167 C 204.667 39.944,204.556 39.833,204.333 39.833 C 204.062 39.833,204.000 39.722,204.000 39.234 C 204.000 38.776,203.922 38.615,203.667 38.548 C 203.482 38.500,203.333 38.321,203.333 38.147 C 203.333 37.944,203.215 37.833,203.000 37.833 C 202.780 37.833,202.667 37.722,202.667 37.506 C 202.667 37.206,202.804 37.175,204.292 37.131 L 205.917 37.083 205.961 31.792 L 206.005 26.500 193.030 26.500 C 185.894 26.500,180.006 26.550,179.944 26.611 M238.206 31.790 L 238.250 37.083 242.208 37.128 L 246.167 37.173 246.167 52.586 L 246.167 68.000 242.500 68.000 L 238.833 68.000 238.833 73.000 L 238.833 78.000 252.917 78.000 L 267.000 78.000 267.000 73.000 L 267.000 68.000 263.334 68.000 L 259.668 68.000 259.626 47.292 L 259.583 26.583 248.873 26.540 L 238.162 26.498 238.206 31.790 M157.167 36.066 C 157.167 36.373,157.536 36.500,158.430 36.500 C 159.056 36.500,159.167 36.550,159.167 36.833 C 159.167 37.049,159.278 37.167,159.482 37.167 C 159.656 37.167,159.839 37.275,159.890 37.407 C 159.941 37.540,160.249 37.698,160.575 37.759 C 161.005 37.840,161.167 37.957,161.167 38.185 C 161.167 38.358,161.317 38.650,161.500 38.833 C 161.683 39.017,161.833 39.286,161.833 39.432 C 161.833 39.578,161.983 39.737,162.167 39.785 C 162.351 39.833,162.500 40.012,162.500 40.186 C 162.500 40.359,162.650 40.650,162.833 40.833 C 163.018 41.018,163.167 41.389,163.167 41.665 C 163.167 41.983,163.287 42.239,163.500 42.372 C 163.771 42.541,163.833 42.761,163.833 43.540 C 163.833 44.389,163.872 44.500,164.167 44.500 C 164.463 44.500,164.500 44.611,164.500 45.500 L 164.500 46.500 154.083 46.500 L 143.667 46.500 143.667 45.500 C 143.667 44.611,143.704 44.500,144.000 44.500 C 144.296 44.500,144.333 44.389,144.333 43.500 C 144.333 42.611,144.370 42.500,144.667 42.500 C 144.944 42.500,145.000 42.389,145.000 41.833 C 145.000 41.278,145.056 41.167,145.333 41.167 C 145.549 41.167,145.667 41.056,145.667 40.853 C 145.667 40.679,145.816 40.500,146.000 40.452 C 146.255 40.385,146.333 40.224,146.333 39.766 C 146.333 39.278,146.395 39.167,146.667 39.167 C 146.889 39.167,147.000 39.056,147.000 38.833 C 147.000 38.611,147.111 38.500,147.333 38.500 C 147.556 38.500,147.667 38.389,147.667 38.167 C 147.667 37.944,147.778 37.833,148.000 37.833 C 148.222 37.833,148.333 37.722,148.333 37.500 C 148.333 37.222,148.444 37.167,149.000 37.167 C 149.556 37.167,149.667 37.111,149.667 36.833 C 149.667 36.550,149.778 36.500,150.403 36.500 C 151.298 36.500,151.667 36.373,151.667 36.066 C 151.667 35.876,152.177 35.833,154.417 35.833 C 156.656 35.833,157.167 35.876,157.167 36.066 M31.167 41.500 L 31.167 45.167 38.833 45.167 L 46.500 45.167 46.500 41.500 L 46.500 37.833 38.833 37.833 L 31.167 37.833 31.167 41.500 M349.500 56.167 C 349.500 56.463,349.611 56.500,350.500 56.500 L 351.500 56.500 351.500 58.182 C 351.500 59.724,351.472 59.872,351.167 59.952 C 350.885 60.025,350.833 60.179,350.833 60.952 C 350.833 61.724,350.782 61.878,350.500 61.952 C 350.251 62.017,350.167 62.179,350.167 62.592 C 350.167 62.998,350.078 63.172,349.833 63.250 C 349.616 63.319,349.500 63.502,349.500 63.777 C 349.500 64.076,349.188 64.499,348.417 65.244 C 347.821 65.820,347.333 66.375,347.333 66.479 C 347.333 66.582,347.072 66.667,346.750 66.667 C 346.278 66.667,346.167 66.730,346.167 67.000 C 346.167 67.244,346.056 67.333,345.750 67.333 C 345.444 67.333,345.333 67.422,345.333 67.667 C 345.333 67.944,345.222 68.000,344.667 68.000 C 344.111 68.000,344.000 68.056,344.000 68.333 C 344.000 68.630,343.889 68.667,342.989 68.667 C 342.053 68.667,341.985 68.692,342.083 69.000 C 342.185 69.321,342.113 69.333,340.106 69.333 C 338.169 69.333,338.015 69.310,337.917 69.000 C 337.828 68.721,337.664 68.667,336.905 68.667 C 336.111 68.667,336.000 68.626,336.000 68.333 C 336.000 68.136,335.889 68.000,335.727 68.000 C 335.435 68.000,334.783 67.376,334.613 66.935 C 334.557 66.787,334.396 66.667,334.255 66.667 C 334.094 66.667,334.000 66.513,334.000 66.250 C 334.000 66.021,333.850 65.683,333.667 65.500 C 333.365 65.198,333.333 64.944,333.333 62.833 C 333.333 60.611,333.349 60.500,333.667 60.500 C 333.944 60.500,334.000 60.389,334.000 59.833 C 334.000 59.278,334.056 59.167,334.333 59.167 C 334.556 59.167,334.667 59.056,334.667 58.833 C 334.667 58.611,334.778 58.500,335.000 58.500 C 335.222 58.500,335.333 58.389,335.333 58.167 C 335.333 57.944,335.444 57.833,335.667 57.833 C 335.889 57.833,336.000 57.722,336.000 57.500 C 336.000 57.206,336.111 57.167,336.932 57.167 C 337.724 57.167,337.878 57.117,337.952 56.833 C 338.026 56.548,338.179 56.500,339.019 56.500 C 339.889 56.500,340.000 56.462,340.000 56.167 C 340.000 55.841,340.111 55.833,344.750 55.833 C 349.389 55.833,349.500 55.841,349.500 56.167 M13.111 59.278 C 13.050 59.339,13.000 60.989,13.000 62.944 L 13.000 66.500 20.750 66.500 L 28.500 66.500 28.500 62.833 L 28.500 59.167 20.861 59.167 C 16.660 59.167,13.172 59.217,13.111 59.278 M49.269 59.427 C 49.136 59.773,49.135 65.891,49.268 66.236 C 49.355 66.465,49.815 66.500,52.688 66.500 L 56.007 66.500 55.962 62.875 L 55.917 59.250 52.644 59.205 C 49.769 59.165,49.359 59.192,49.269 59.427 " stroke="none" fill="#040404" fill-rule="evenodd"></path><path id="path2" d="M49.237 41.500 C 49.237 43.379,49.261 44.148,49.291 43.208 C 49.321 42.269,49.321 40.731,49.291 39.792 C 49.261 38.852,49.237 39.621,49.237 41.500 " stroke="none" fill="#3cb8c0" fill-rule="evenodd"></path><path id="path3" d="" stroke="none" fill="#3c6040" fill-rule="evenodd"></path><path id="path4" d="" stroke="none" fill="#3c0444" fill-rule="evenodd"></path></g></svg>